<?xml version="1.0" encoding="utf-8"?>
<!-- Generator: Adobe Illustrator 20.1.0, SVG Export Plug-In . SVG Version: 6.00 Build 0)  -->
<svg version="1.1" id="Слой_1" xmlns="http://www.w3.org/2000/svg" xmlns:xlink="http://www.w3.org/1999/xlink" x="0px" y="0px"
	 viewBox="0 0 40.5 32.1" style="enable-background:new 0 0 40.5 32.1;" xml:space="preserve">
<style type="text/css">
	.st0{fill:#FFFFFF;}
	.st1{fill:#020202;}
	.st2{fill:none;stroke:#020202;stroke-miterlimit:10;}
</style>
<circle class="st0" cx="23.7" cy="15.2" r="0.9"/>
<path class="st1" d="M24.2,19.6c0,2.2-1.8,4-4,4s-4-1.8-4-4s1.8-0.7,4-0.7S24.2,17.4,24.2,19.6z"/>
<path class="st1" d="M3.2,10.6C4,9.5,4.8,8.4,5.8,7.5C6.4,7,7.2,6.3,8,6.1c0,0,0.1-0.1,0.1-0.1C8.9,5.5,9.8,5,10.7,4.7
	c-0.6-2.2-2.6-3.7-5-3.7c-2.9,0-5.2,2.3-5.2,5.2C0.5,8.1,1.6,9.8,3.2,10.6z"/>
<path class="st1" d="M37.2,10.6c-0.8-1.1-1.6-2.2-2.6-3.1C34,7,33.2,6.3,32.4,6.1c0,0-0.1-0.1-0.1-0.1c-0.7-0.5-1.6-1.1-2.6-1.4
	c0.6-2.2,2.6-3.7,5-3.7c2.9,0,5.2,2.3,5.2,5.2C39.9,8.1,38.8,9.8,37.2,10.6z"/>
<path d="M20.3,23.5C20.3,23.5,20.3,23.5,20.3,23.5c-0.1,0.3-0.3,0.5-0.4,0.8c-0.4,0.8-1.1,1.3-2.1,1.6c0.8,0.6,1.7,0.7,2.5,0.8v0
	c0,0,0,0,0,0l0,0v0c0.8-0.1,1.7-0.2,2.5-0.8c-0.9-0.3-1.7-0.7-2.1-1.6C20.6,24.1,20.4,23.8,20.3,23.5C20.3,23.5,20.3,23.5,20.3,23.5
	"/>
<path class="st2" d="M29.5,30.6H11c-4.1,0-7.4-3.3-7.4-7.4V12.3C3.6,8.3,6.9,5,11,5h18.4c4.1,0,7.4,3.3,7.4,7.4v10.9
	C36.8,27.3,33.5,30.6,29.5,30.6z"/>
<path class="st1" d="M28.1,10.7c-2.6-0.4-5.1,0.4-5.6,3.6s5.8,7.4,7.9,5.2C32.7,17.2,33.3,11.5,28.1,10.7z M26.2,16
	c-0.5,0.5-1.2,0.5-1.7,0c-0.5-0.5-0.5-1.2,0-1.7c0.5-0.5,1.2-0.5,1.7,0C26.6,14.8,26.6,15.6,26.2,16z"/>
<path class="st1" d="M18.4,14.3c-0.5-3.2-3-4-5.6-3.6c-5.2,0.8-4.6,6.5-2.3,8.9C12.5,21.7,18.9,17.5,18.4,14.3z M16.5,16
	c-0.5,0.5-1.2,0.5-1.7,0c-0.5-0.5-0.5-1.2,0-1.7c0.5-0.5,1.2-0.5,1.7,0C17,14.8,17,15.6,16.5,16z"/>
</svg>
