<svg width="60" height="64" viewBox="0 0 60 64" fill="none" xmlns="http://www.w3.org/2000/svg">
<path d="M59.1892 35.7028C58.0921 34.6058 56.308 34.6241 55.2337 35.7435L49.3538 41.8707L35.0047 37.122L31.9925 40.1342L43.953 47.4985L37.901 53.8049L34.0199 53.1678L31.2974 55.8903L37.0031 57.8888L39.0016 63.5946L41.7242 60.872L41.087 56.9909L47.3934 50.939L54.7577 62.8994L57.7699 59.8872L53.0213 45.5381L59.1484 39.6582C60.2678 38.584 60.2861 36.7998 59.1892 35.7028Z" fill="#0BB1CF"/>
<path d="M29.7027 58.8108C13.8506 58.8108 1 45.9602 1 30.1081C1 14.256 13.8506 1.4054 29.7027 1.4054C43.5164 1.4054 55.0509 11.1637 57.7889 24.1628" stroke="#0BB1CF" stroke-linecap="round" stroke-dasharray="3 6"/>
</svg>
