<svg width="70" height="70" viewBox="0 0 70 70" fill="none" xmlns="http://www.w3.org/2000/svg">
<mask id="mask0" mask-type="alpha" maskUnits="userSpaceOnUse" x="0" y="0" width="70" height="70">
<circle cx="35" cy="35" r="35" fill="black"/>
</mask>
<g mask="url(#mask0)">
<path d="M60.9518 50.662H47.4314C47.5724 50.2729 47.6499 49.8548 47.6499 49.4189V48.1759H53.9241C58.4636 48.1759 62.1568 44.5626 62.1568 40.121C62.1568 37.9695 61.3005 35.9467 59.7456 34.4253L51.8118 26.6629L48.1867 23.1162C44.0579 19.0766 38.5686 16.8519 32.7295 16.8519H-23.8202C-24.5218 16.8519 -25.0907 17.4084 -25.0907 18.0949C-25.0907 18.7812 -24.522 19.3379 -23.8202 19.3379H32.7295C37.8897 19.3379 42.7411 21.304 46.3898 24.8741L47.8459 26.2988H33.2066C30.5445 26.2988 28.3789 28.4178 28.3789 31.0222C28.3789 33.6266 30.5447 35.7456 33.2066 35.7456H57.5016L57.9488 36.1833C59.0237 37.235 59.616 38.6335 59.616 40.121C59.616 43.1917 57.0625 45.6899 53.9241 45.6899H-32.4331C-33.1348 45.6899 -33.7036 46.2465 -33.7036 46.933C-33.7036 47.6193 -33.1349 48.176 -32.4331 48.176H4.03564V49.419C4.03564 49.8548 4.11309 50.273 4.25413 50.6621H-32.3676C-33.0693 50.6621 -33.6381 51.2186 -33.6381 51.9051C-33.6381 52.5915 -33.0694 53.1481 -32.3676 53.1481H19.7892C20.4908 53.1481 21.0597 52.5916 21.0597 51.9051C21.0597 51.2188 20.491 50.6621 19.7892 50.6621H11.4399C11.5809 50.273 11.6583 49.8549 11.6583 49.419V48.176H40.0272V49.419C40.0272 49.8548 40.1046 50.273 40.2456 50.6621H19.5818C18.8802 50.6621 18.3113 51.2186 18.3113 51.9051C18.3113 52.5915 18.8801 53.1481 19.5818 53.1481H60.9518C61.6534 53.1481 62.2223 52.5916 62.2223 51.9051C62.2223 51.2186 61.6536 50.662 60.9518 50.662ZM33.2066 33.2597C31.9456 33.2597 30.9197 32.2559 30.9197 31.0222C30.9197 29.7885 31.9456 28.7848 33.2066 28.7848H50.387L54.9606 33.2596L33.2066 33.2597ZM9.1174 49.4189C9.1174 50.1043 8.54753 50.662 7.84693 50.662C7.14645 50.662 6.57646 50.1044 6.57646 49.4189V48.1759H9.1174V49.4189ZM45.109 49.4189C45.109 50.1043 44.5392 50.662 43.8386 50.662C43.1381 50.662 42.5681 50.1044 42.5681 49.4189V48.1759H45.109V49.4189Z" fill="#0BB1CF"/>
<path d="M25.6421 51.0262C25.4058 50.795 25.0781 50.662 24.7439 50.662C24.4098 50.662 24.0819 50.7948 23.8456 51.0262C23.6093 51.2573 23.4734 51.578 23.4734 51.905C23.4734 52.232 23.6093 52.5526 23.8456 52.7837C24.0819 53.0149 24.4097 53.148 24.7439 53.148C25.078 53.148 25.4058 53.015 25.6421 52.7837C25.8784 52.5526 26.0143 52.2319 26.0143 51.905C26.0143 51.5781 25.8784 51.2573 25.6421 51.0262Z" fill="#0BB1CF"/>
<path d="M18.1992 26.2988L-20.9135 26.2988C-21.6151 26.2988 -22.184 26.8554 -22.184 27.5418C-22.184 28.2282 -21.6152 28.7849 -20.9135 28.7849L18.1992 28.7849C19.4601 28.7849 20.486 29.7886 20.486 31.0223C20.486 32.2561 19.4601 33.2598 18.199 33.2598H-20.9135C-21.6151 33.2598 -22.184 33.8164 -22.184 34.5029C-22.184 35.1893 -21.6152 35.7459 -20.9135 35.7459H18.1992C20.8612 35.7459 23.0268 33.6269 23.0268 31.0225C23.0268 28.4181 20.861 26.2988 18.1992 26.2988Z" fill="#0BB1CF"/>
<path d="M-20.0158 26.663C-20.2521 26.4317 -20.578 26.2988 -20.9135 26.2988C-21.2476 26.2988 -21.576 26.4317 -21.8122 26.663C-22.0485 26.8942 -22.184 27.215 -22.184 27.5418C-22.184 27.8687 -22.0485 28.1894 -21.8122 28.4204C-21.576 28.6516 -21.2476 28.7849 -20.9135 28.7849C-20.5781 28.7849 -20.2521 28.6517 -20.0158 28.4204C-19.7782 28.1894 -19.6435 27.8686 -19.6435 27.5417C-19.6435 27.2148 -19.7782 26.8942 -20.0158 26.663Z" fill="#0BB1CF"/>
</g>
</svg>
