<svg width="71" height="47" viewBox="0 0 71 47" fill="none" xmlns="http://www.w3.org/2000/svg">
<path d="M69.5189 46.2751H1.32427C0.651761 46.2751 0.106445 45.7298 0.106445 45.0573V1.21782C0.106445 0.545316 0.651761 0 1.32427 0H69.5191C70.1916 0 70.7369 0.545316 70.7369 1.21782V45.0573C70.7367 45.7299 70.1914 46.2751 69.5189 46.2751Z" fill="#0BB1CF"/>
<path d="M35.5619 5.2463L36.0503 6.71036L37.5935 6.72236C37.7934 6.72388 37.8762 6.97881 37.7155 7.09759L36.4739 8.0144L36.9394 9.48577C36.9996 9.67614 36.7828 9.83396 36.6201 9.71767L35.3647 8.82016L34.1092 9.71767C33.9467 9.83382 33.7297 9.67628 33.79 9.48577L34.2554 8.0144L33.0139 7.09759C32.8532 6.97881 32.9359 6.72388 33.1358 6.72236L34.6791 6.71036L35.1674 5.2463C35.2304 5.05676 35.4988 5.05676 35.5619 5.2463Z" fill="white"/>
<path d="M35.5619 36.6798L36.0503 38.1439L37.5935 38.1559C37.7934 38.1574 37.8762 38.4123 37.7155 38.5311L36.4739 39.4479L36.9394 40.9193C36.9996 41.1097 36.7828 41.2675 36.6201 41.1512L35.3647 40.2537L34.1092 41.1512C33.9467 41.2673 33.7297 41.1098 33.79 40.9193L34.2554 39.4479L33.0139 38.5311C32.8532 38.4123 32.9359 38.1574 33.1358 38.1559L34.6791 38.1439L35.1674 36.6798C35.2304 36.4903 35.4988 36.4903 35.5619 36.6798Z" fill="white"/>
<path d="M51.2787 20.9631L51.767 22.4271L53.3103 22.4391C53.5102 22.4406 53.5929 22.6956 53.4322 22.8143L52.1907 23.7312L52.6561 25.2025C52.7164 25.3929 52.4995 25.5507 52.3369 25.4344L51.0814 24.5369L49.8259 25.4344C49.6634 25.5506 49.4464 25.393 49.5067 25.2025L49.9722 23.7312L48.7306 22.8143C48.5699 22.6956 48.6527 22.4406 48.8526 22.4391L50.3958 22.4271L50.8842 20.9631C50.9472 20.7735 51.2155 20.7735 51.2787 20.9631Z" fill="white"/>
<path d="M19.845 20.9631L20.3334 22.4271L21.8766 22.4391C22.0765 22.4406 22.1593 22.6956 21.9986 22.8143L20.757 23.7312L21.2225 25.2025C21.2828 25.3929 21.0659 25.5507 20.9033 25.4344L19.6478 24.5369L18.3923 25.4344C18.2298 25.5506 18.0128 25.393 18.0731 25.2025L18.5385 23.7312L17.297 22.8143C17.1363 22.6956 17.219 22.4406 17.4189 22.4391L18.9622 22.4271L19.4505 20.9631C19.5137 20.7735 19.782 20.7735 19.845 20.9631Z" fill="white"/>
<path d="M22.2045 12.7556L22.6929 14.2197L24.2361 14.2317C24.436 14.2332 24.5188 14.4881 24.3581 14.6069L23.1165 15.5237L23.582 16.9951C23.6422 17.1854 23.4254 17.3433 23.2627 17.227L22.0073 16.3295L20.7518 17.227C20.5893 17.3431 20.3723 17.1856 20.4326 16.9951L20.898 15.5237L19.6565 14.6069C19.4958 14.4881 19.5785 14.2332 19.7784 14.2317L21.3217 14.2197L21.81 12.7556C21.8732 12.5661 22.1412 12.5661 22.2045 12.7556Z" fill="white"/>
<path d="M49.4267 28.4724L49.9151 29.9364L51.4583 29.9484C51.6582 29.9499 51.741 30.2049 51.5803 30.3236L50.3387 31.2405L50.8041 32.7118C50.8644 32.9022 50.6476 33.06 50.4849 32.9437L49.2294 32.0462L47.974 32.9437C47.8115 33.0599 47.5945 32.9023 47.6548 32.7118L48.1202 31.2405L46.8786 30.3236C46.7179 30.2049 46.8007 29.9499 47.0006 29.9484L48.5438 29.9364L49.0322 28.4724C49.0954 28.2828 49.3635 28.2828 49.4267 28.4724Z" fill="white"/>
<path d="M43.6741 7.00281L44.1624 8.46687L45.7057 8.47888C45.9055 8.48039 45.9883 8.73533 45.8276 8.8541L44.5861 9.77091L45.0515 11.2423C45.1118 11.4327 44.8949 11.5905 44.7323 11.4742L43.4768 10.5767L42.2213 11.4742C42.0588 11.5903 41.8418 11.4328 41.9021 11.2423L42.3675 9.77091L41.126 8.8541C40.9653 8.73533 41.0481 8.48039 41.2479 8.47888L42.7912 8.46687L43.2795 7.00281C43.3426 6.81327 43.6106 6.81327 43.6741 7.00281Z" fill="white"/>
<path d="M27.9572 34.2251L28.4455 35.6892L29.9888 35.7012C30.1887 35.7027 30.2714 35.9577 30.1107 36.0764L28.8692 36.9932L29.3346 38.4646C29.3949 38.655 29.178 38.8128 29.0154 38.6965L27.7599 37.799L26.5044 38.6965C26.3419 38.8127 26.1249 38.6551 26.1852 38.4646L26.6507 36.9932L25.4091 36.0764C25.2484 35.9577 25.3312 35.7027 25.5311 35.7012L27.0743 35.6892L27.5626 34.2251C27.6258 34.0356 27.8939 34.0356 27.9572 34.2251Z" fill="white"/>
<path d="M49.0322 12.7556L48.5438 14.2197L47.0006 14.2317C46.8007 14.2332 46.7179 14.4881 46.8786 14.6069L48.1202 15.5237L47.6548 16.9951C47.5945 17.1854 47.8113 17.3433 47.974 17.227L49.2294 16.3295L50.4849 17.227C50.6474 17.3431 50.8644 17.1856 50.8041 16.9951L50.3387 15.5237L51.5803 14.6069C51.741 14.4881 51.6582 14.2332 51.4583 14.2317L49.9151 14.2197L49.4267 12.7556C49.3635 12.5661 49.0954 12.5661 49.0322 12.7556Z" fill="white"/>
<path d="M21.81 28.4724L21.3217 29.9364L19.7784 29.9484C19.5785 29.9499 19.4958 30.2049 19.6565 30.3236L20.898 31.2405L20.4326 32.7118C20.3723 32.9022 20.5891 33.06 20.7518 32.9437L22.0073 32.0462L23.2627 32.9437C23.4253 33.0599 23.6422 32.9023 23.582 32.7118L23.1165 31.2405L24.3581 30.3236C24.5188 30.2049 24.436 29.9499 24.2361 29.9484L22.6929 29.9364L22.2045 28.4724C22.1412 28.2828 21.8732 28.2828 21.81 28.4724Z" fill="white"/>
<path d="M27.5626 7.00281L27.0743 8.46687L25.5311 8.47888C25.3312 8.48039 25.2484 8.73533 25.4091 8.8541L26.6507 9.77091L26.1852 11.2423C26.1249 11.4327 26.3418 11.5905 26.5044 11.4742L27.7599 10.5767L29.0154 11.4742C29.1779 11.5903 29.3949 11.4328 29.3346 11.2423L28.8692 9.77091L30.1107 8.8541C30.2714 8.73533 30.1887 8.48039 29.9888 8.47888L28.4455 8.46687L27.9572 7.00281C27.8939 6.81327 27.6258 6.81327 27.5626 7.00281Z" fill="white"/>
<path d="M43.2794 34.2251L42.7911 35.6892L41.2478 35.7012C41.0479 35.7027 40.9652 35.9577 41.1259 36.0764L42.3674 36.9932L41.902 38.4646C41.8417 38.655 42.0585 38.8128 42.2212 38.6965L43.4767 37.799L44.7321 38.6965C44.8947 38.8127 45.1116 38.6551 45.0514 38.4646L44.5859 36.9932L45.8275 36.0764C45.9882 35.9577 45.9054 35.7027 45.7055 35.7012L44.1623 35.6892L43.6739 34.2251C43.6106 34.0356 43.3426 34.0356 43.2794 34.2251Z" fill="white"/>
</svg>
