<svg width="60" height="44" viewBox="0 0 60 44" fill="none" xmlns="http://www.w3.org/2000/svg">
<path fill-rule="evenodd" clip-rule="evenodd" d="M24.9257 26.125L29.5 26.8125V33C27.467 32.3125 23.7059 29.975 24.9257 26.125ZM34.0744 26.125L29.5001 26.8125V33C31.5331 32.3125 35.2942 29.975 34.0744 26.125Z" fill="#0BB1CF"/>
<rect x="6.4375" y="7.875" width="46.125" height="35.125" rx="7" stroke="#0BB1CF" stroke-width="2"/>
<path d="M16.5 8.25C13.0625 8.9375 11 8.9375 10.3125 10.3125C9.48257 10.3125 6.61876 16.3775 5.86318 16.1495C2.47061 15.1258 0 11.9764 0 8.25C0 3.69365 3.69365 0 8.25 0C12.8063 0 16.5 3.69365 16.5 8.25Z" fill="#0BB1CF"/>
<path d="M43 8.4258C46.4375 9.12795 48.5 9.12795 49.1875 10.5323C50.0174 10.5323 52.8812 16.7264 53.6368 16.4936C57.0294 15.4481 59.5 12.2316 59.5 8.4258C59.5 3.77236 55.8063 0 51.25 0C46.6937 0 43 3.77236 43 8.4258Z" fill="#0BB1CF"/>
<path fill-rule="evenodd" clip-rule="evenodd" d="M17.2371 27.843C20.1852 29.3525 22.6908 27.7079 24.4733 24.2268C26.2557 20.7458 26.64 16.7465 23.6919 15.237C20.7438 13.7274 15.5798 15.2793 13.7973 18.7603C12.0149 22.2414 14.2891 26.3335 17.2371 27.843ZM23.313 22.0001C24.0724 22.0001 24.688 21.3844 24.688 20.6251C24.688 19.8657 24.0724 19.2501 23.313 19.2501C22.5536 19.2501 21.938 19.8657 21.938 20.6251C21.938 21.3844 22.5536 22.0001 23.313 22.0001Z" fill="#0BB1CF"/>
<path fill-rule="evenodd" clip-rule="evenodd" d="M41.3449 27.6854C38.4704 29.1572 36.0273 27.5537 34.2894 24.1595C32.5515 20.7653 32.1768 16.8659 35.0513 15.394C37.9258 13.9222 42.9609 15.4353 44.6989 18.8295C46.4368 22.2236 44.2194 26.2135 41.3449 27.6854ZM35.4206 21.9883C34.6802 21.9883 34.08 21.388 34.08 20.6476C34.08 19.9072 34.6802 19.3069 35.4206 19.3069C36.1611 19.3069 36.7613 19.9072 36.7613 20.6476C36.7613 21.388 36.1611 21.9883 35.4206 21.9883Z" fill="#0BB1CF"/>
<path d="M29.5 33L32.9375 37.125H26.0625L29.5 33Z" fill="#0BB1CF"/>
</svg>
