<svg width="89" height="89" viewBox="0 0 89 89" fill="none" xmlns="http://www.w3.org/2000/svg">
<path d="M73.3879 28.1417C71.6369 20.3906 64.5861 14.7666 56.6195 14.7666H44.2926C36.9095 14.7666 30.2536 18.0537 25.1706 21.6561H16.6124C15.5929 21.6561 14.7666 22.4816 14.7666 23.502V40.4875C14.7666 41.5079 15.5929 42.3333 16.6124 42.3333H25.1815C29.1747 45.1591 34.1384 47.7849 39.6629 48.7816L42.4187 59.0666H42.1024C41.0829 59.0666 40.2565 59.8921 40.2565 60.9124V71.9874C40.2565 73.0078 41.0829 73.8333 42.1024 73.8333H58.7149C59.7344 73.8333 60.5607 73.0078 60.5607 71.9874V60.9124C60.5607 59.8921 59.7344 59.0666 58.7149 59.0666H58.3986L61.2131 48.5625C67.1602 46.8838 71.9736 42.0513 73.3864 35.8569C73.6829 34.6041 73.8336 33.3044 73.8336 31.9958C73.8333 30.6886 73.6835 29.3927 73.3879 28.1417ZM56.6195 18.4583C62.545 18.4583 67.8185 22.4202 69.5285 28.007C65.8699 24.0232 60.3699 21.6561 54.4039 21.6561H40.2518C36.263 21.6561 32.4588 22.4166 28.958 23.5776C33.294 20.7805 38.6035 18.4583 44.2923 18.4583H56.6195ZM19.929 31.9955C25.1467 28.6824 32.3614 25.3475 40.2521 25.3475H54.4042C60.048 25.3475 65.1546 27.8694 68.0046 31.9955C65.1537 36.1198 60.0471 38.6416 54.4042 38.6416H40.2521C32.3596 38.6416 25.1458 35.307 19.929 31.9955ZM56.8687 70.1416H43.9479V62.7583H56.8687V70.1416ZM54.5778 59.0666H46.2391L43.592 49.1874C43.8256 49.1939 44.0575 49.2084 44.2928 49.2084H56.6198C56.8235 49.2084 57.0241 49.1889 57.2267 49.1818L54.5778 59.0666ZM56.6195 45.5167H44.2926C38.639 45.5167 33.351 43.2143 29.0217 40.434C32.5049 41.5826 36.2872 42.3333 40.2521 42.3333H54.4042C60.3672 42.3333 65.8658 39.9689 69.5241 35.9884C67.7978 41.5637 62.5273 45.5167 56.6195 45.5167Z" />
</svg>
