<svg width="31" height="31" viewBox="0 0 31 31" fill="none" xmlns="http://www.w3.org/2000/svg">
<path d="M5.83063 18.7478C4.49565 18.7478 3.40834 19.8349 3.40834 21.1708C3.40834 22.5067 4.49532 23.5931 5.83063 23.5931C7.16695 23.5931 8.25292 22.5067 8.25292 21.1708C8.25292 19.8356 7.16735 18.7478 5.83063 18.7478ZM5.83063 22.6932C4.9917 22.6932 4.3087 22.0098 4.3087 21.1707C4.3087 20.3317 4.99137 19.6483 5.83063 19.6483C6.67023 19.6483 7.35318 20.331 7.35318 21.1707C7.35318 22.0098 6.67057 22.6932 5.83063 22.6932ZM25.2592 18.7478C23.9233 18.7478 22.8366 19.8349 22.8366 21.1708C22.8366 22.5067 23.923 23.5931 25.2592 23.5931C26.5954 23.5931 27.6815 22.5067 27.6815 21.1708C27.6812 19.8356 26.5947 18.7478 25.2592 18.7478ZM25.2592 22.6932C24.4198 22.6932 23.7365 22.0098 23.7365 21.1707C23.7365 20.3317 24.4191 19.6483 25.2592 19.6483C26.098 19.6483 26.7812 20.331 26.7812 21.1707C26.7806 22.0098 26.098 22.6932 25.2592 22.6932ZM30.0997 17.9982H30.9993V9.97931C30.9993 8.55838 29.8479 7.40698 28.4273 7.40698H2.5721C1.15066 7.40704 0 8.55838 0 9.97931V19.0693C0 20.4909 1.15066 21.6422 2.5721 21.6422H3.2431C3.22671 21.5223 3.21577 21.4013 3.21577 21.2773C3.21577 19.7857 4.42524 18.5759 5.91704 18.5759C7.40884 18.5759 8.6183 19.7857 8.6183 21.2773C8.6183 21.4013 8.60669 21.5223 8.59097 21.6422H22.6661C22.6497 21.5223 22.6388 21.4013 22.6388 21.2773C22.6388 19.7857 23.8482 18.5759 25.3408 18.5759C26.8325 18.5759 28.0413 19.7857 28.0413 21.2773C28.0413 21.4013 28.0304 21.5223 28.014 21.6422H31V20.5701H30.1001C29.958 20.5701 29.8425 20.455 29.8425 20.3132V18.2551C29.8418 18.1126 29.9573 17.9982 30.0997 17.9982ZM17.1502 8.73641V14.9102H12.4344V8.73641H17.1502ZM5.01611 14.9102H4.07265C1.90778 14.9102 1.95116 13.6245 1.95116 13.4827V8.99349C1.95116 8.85154 2.06595 8.73641 2.20791 8.73641H5.01611H7.20264V14.9102H5.01611ZM7.45995 14.9102V8.73641H12.1766V14.9102H7.45995ZM22.5961 14.9102H17.4071V8.73641H22.5961V14.9102ZM24.8893 14.6527C24.8893 14.7953 24.7738 14.9102 24.6327 14.9102H22.8366V8.73641H24.6327C24.7738 8.73641 24.8893 8.85154 24.8893 8.99349V14.6527ZM29.5019 16.3255C29.5019 16.3255 28.346 16.4303 27.0902 16.142C25.835 15.854 25.6614 14.7178 25.6614 14.7178V10.0392V8.71497H28.1773C28.9085 8.71497 29.5016 9.30792 29.5016 10.0392V16.3254H29.5019V16.3255Z" />
</svg>
