<svg width="30" height="30" viewBox="0 0 30 30" fill="none" xmlns="http://www.w3.org/2000/svg">
<g clip-path="url(#clip0)">
<path d="M26.4566 17.7239C30.317 13.5763 30.0036 7.01673 29.9881 6.7336C29.9634 6.28637 29.6061 5.92931 29.1588 5.90459C29.0249 5.89704 27.1286 5.80457 24.7558 6.28751C24.2878 3.88378 23.4677 2.15686 23.4288 2.07561C23.2349 1.67186 22.7684 1.47868 22.3455 1.627C22.2605 1.65675 20.4606 2.29762 18.4309 3.66566C17.0995 1.65538 15.6976 0.382104 15.5863 0.28254C15.2528 -0.0163806 14.7477 -0.0163806 14.414 0.28254C14.3027 0.382104 12.9008 1.65538 11.5694 3.66589C9.53969 2.29785 7.73953 1.65675 7.65484 1.627C7.23209 1.47891 6.7654 1.67186 6.57154 2.07561C6.53263 2.15686 5.71231 3.88378 5.24448 6.28774C2.87165 5.8048 0.975126 5.89726 0.84123 5.90459C0.393993 5.92931 0.0369358 6.28637 0.0122165 6.73383C-0.0035764 7.01673 -0.316688 13.5763 3.54365 17.7239C1.57686 18.8127 0.289165 20.2352 0.225535 20.3061C-0.0731568 20.6398 -0.0731568 21.145 0.225535 21.4787C0.365383 21.6348 3.697 25.3013 7.94003 25.3013C9.04256 25.3013 10.0831 25.0534 11.0226 24.6842C11.9993 27.6427 14.3053 29.7343 14.4138 29.8318C14.5806 29.981 14.7905 30.0558 15.0001 30.0558C15.2098 30.0558 15.4195 29.981 15.5863 29.8318C15.695 29.7345 18.0006 27.6427 18.9774 24.6844C19.917 25.0534 20.9575 25.3013 22.06 25.3013C26.3031 25.3013 29.6349 21.6348 29.7748 21.4787C30.0735 21.145 30.0735 20.6398 29.7748 20.3061C29.7109 20.2349 28.423 18.8124 26.4566 17.7239ZM24.9614 16.7436C22.6753 19.0296 19.2702 19.7303 17.1047 19.9381C18.6671 18.0725 20.8678 14.7617 20.8678 10.9148C20.8678 10.4843 20.8394 10.0609 20.7884 9.64499C23.4558 7.99681 26.7302 7.70132 28.2348 7.65898C28.1849 9.49072 27.762 13.943 24.9614 16.7436ZM22.1626 3.60065C22.4276 4.29348 22.8005 5.40562 23.0497 6.72307C22.1743 6.99521 21.2773 7.35502 20.4121 7.82995C20.1365 6.88169 19.7566 5.99248 19.3295 5.1804C20.4366 4.42578 21.4858 3.90278 22.1626 3.60065ZM15.0011 2.17655C16.0974 3.33446 18.3959 6.09433 18.9749 9.40009C18.9752 9.40054 18.9752 9.401 18.9754 9.40169C19.0617 9.89493 19.11 10.4005 19.11 10.9148C19.11 14.8617 16.2604 18.3171 15.0001 19.652C13.7399 18.3171 10.8901 14.8617 10.8901 10.9148C10.8901 6.9666 13.742 3.51002 15.0011 2.17655ZM7.83749 3.60065C8.5143 3.90301 9.56372 4.42601 10.6706 5.18063C10.2435 5.99248 9.86356 6.88169 9.58799 7.82995C8.72281 7.35502 7.82582 6.99521 6.95034 6.72307C7.19959 5.40562 7.57267 4.29325 7.83749 3.60065ZM9.2117 9.64499C9.16066 10.0609 9.13251 10.4843 9.13251 10.9148C9.13251 14.764 11.3355 18.0761 12.8979 19.9413C10.7354 19.7362 7.3328 19.0377 5.03848 16.7436C2.24657 13.9516 1.81925 9.49095 1.7666 7.6576C3.27013 7.69834 6.53766 7.99131 9.2117 9.64499ZM2.13488 20.8911C2.727 20.3546 3.7208 19.5597 4.94647 18.9784C7.50424 20.8838 10.6637 21.5057 12.7635 21.6993C12.3284 22.0218 11.8184 22.3565 11.2529 22.6508C11.2213 22.6645 11.1909 22.6806 11.1616 22.6977C10.2096 23.1804 9.10642 23.5437 7.94003 23.5437C5.41408 23.5437 3.16737 21.8238 2.13488 20.8911ZM14.9988 27.9224C14.2934 27.1442 13.1409 25.6739 12.6191 23.9019C13.65 23.2958 14.4719 22.6158 14.9999 22.1299C15.528 22.6158 16.3499 23.2958 17.3805 23.9016C16.8594 25.667 15.7042 27.1419 14.9988 27.9224ZM22.06 23.5437C20.1653 23.5437 18.4281 22.5762 17.2421 21.6986C19.3418 21.5046 22.4981 20.882 25.0534 18.9786C26.2745 19.5584 27.2715 20.356 27.8657 20.8932C26.8361 21.8266 24.5972 23.5437 22.06 23.5437Z" />
</g>
<defs>
<clipPath id="clip0">
<rect width="30" height="30" fill="white"/>
</clipPath>
</defs>
</svg>
