<svg width="35" height="35" viewBox="0 0 35 35" fill="none" xmlns="http://www.w3.org/2000/svg">
<path d="M18.0469 7.67375V1.09375H16.9531V7.67375C13.5203 7.81682 10.2803 9.29942 7.92789 11.8036C5.5755 14.3077 4.29809 17.634 4.36964 21.0691C4.44119 24.5041 5.856 27.7743 8.31063 30.1783C10.7653 32.5824 14.0642 33.9288 17.5 33.9288C20.9358 33.9288 24.2347 32.5824 26.6894 30.1783C29.144 27.7743 30.5588 24.5041 30.6304 21.0691C30.7019 17.634 29.4245 14.3077 27.0721 11.8036C24.7197 9.29942 21.4797 7.81682 18.0469 7.67375ZM27.201 13.6719H24.8593C24.2552 12.1892 23.36 10.8427 22.2266 9.71195C24.212 10.5584 25.931 11.9268 27.201 13.6719ZM24.1172 26.7969H20.4449C20.6509 24.981 20.7605 23.1556 20.773 21.3281H25.1442C25.0995 23.1946 24.7527 25.0414 24.1172 26.7969ZM19.075 32.5566C19.7116 31.0697 20.1273 29.4978 20.3087 27.8906H23.6666C22.5351 30.3116 20.9048 31.9545 19.0755 32.5566H19.075ZM11.3334 27.8906H14.6912C14.8726 29.4978 15.288 31.0697 15.9245 32.5566C14.0952 31.9545 12.4649 30.3116 11.3334 27.8906ZM10.8828 26.7969C10.2475 25.0414 9.90084 23.1945 9.85633 21.3281H14.2275C14.2401 23.1556 14.3496 24.981 14.5556 26.7969H10.8828ZM15.6494 14.7656H19.3517C19.5618 16.5812 19.6731 18.4068 19.6853 20.2344H15.3158C15.3278 18.4068 15.439 16.5812 15.6488 14.7656H15.6494ZM20.3093 13.6719C20.128 12.0647 19.7125 10.4928 19.0761 9.00594C20.9054 9.6075 22.5356 11.2509 23.6698 13.6719H20.3093ZM19.2019 13.6719H15.7987C16.3548 10.0078 17.1877 8.75 17.5 8.75C17.8123 8.75 18.6452 10.0078 19.2013 13.6719H19.2019ZM15.925 9.00594C15.2884 10.4928 14.8727 12.0647 14.6912 13.6719H11.3334C12.4649 11.2509 14.0952 9.60805 15.9245 9.00594H15.925ZM10.8828 14.7656H14.5556C14.3496 16.5815 14.2401 18.4069 14.2275 20.2344H9.85578C9.90047 18.368 10.2473 16.5211 10.8828 14.7656ZM15.6494 26.7969C15.4393 24.9813 15.328 23.1557 15.3158 21.3281H19.6853C19.6731 23.1557 19.5618 24.9813 19.3517 26.7969H15.6494ZM20.7736 20.2344C20.761 18.4069 20.6515 16.5815 20.4455 14.7656H24.1172C24.7525 16.5211 25.0992 18.368 25.1437 20.2344H20.7736ZM12.7734 9.71195C11.6399 10.8427 10.7448 12.1892 10.1407 13.6719H7.79898C9.06896 11.9268 10.788 10.5584 12.7734 9.71195ZM7.07929 14.7656H9.71578C9.12404 16.5302 8.80106 18.3737 8.75765 20.2344H5.48078C5.56728 18.3096 6.11555 16.434 7.07929 14.7656ZM5.48078 21.3281H8.75765C8.80106 23.1888 9.12404 25.0323 9.71578 26.7969H7.07929C6.11555 25.1286 5.56728 23.2529 5.48078 21.3281ZM7.79898 27.8906H10.1407C10.7448 29.3733 11.6399 30.7198 12.7734 31.8506C10.788 31.0042 9.06896 29.6357 7.79898 27.8906ZM15.7987 27.8906H19.2013C18.6452 31.5547 17.8123 32.8125 17.5 32.8125C17.1877 32.8125 16.3548 31.5547 15.7987 27.8906ZM22.2266 31.8506C23.36 30.7198 24.2552 29.3733 24.8593 27.8906H27.201C25.931 29.6357 24.212 31.0042 22.2266 31.8506ZM27.9207 26.7969H25.2842C25.876 25.0323 26.1989 23.1888 26.2423 21.3281H29.5192C29.4327 23.2529 28.8844 25.1286 27.9207 26.7969ZM29.5192 20.2344H26.2423C26.1989 18.3737 25.876 16.5302 25.2842 14.7656H27.9207C28.8844 16.434 29.4327 18.3096 29.5192 20.2344Z"/>
<path d="M33.3594 9.29688C32.7792 9.29688 32.2228 9.06641 31.8126 8.65617C31.4023 8.24594 31.1719 7.68954 31.1719 7.10938C31.1719 6.96433 31.1143 6.82524 31.0117 6.72268C30.9091 6.62012 30.77 6.5625 30.625 6.5625C30.48 6.5625 30.3409 6.62012 30.2383 6.72268C30.1357 6.82524 30.0781 6.96433 30.0781 7.10938C30.0781 7.68954 29.8477 8.24594 29.4374 8.65617C29.0272 9.06641 28.4708 9.29688 27.8906 9.29688C27.7456 9.29688 27.6065 9.35449 27.5039 9.45705C27.4014 9.55961 27.3438 9.69871 27.3438 9.84375C27.3438 9.98879 27.4014 10.1279 27.5039 10.2304C27.6065 10.333 27.7456 10.3906 27.8906 10.3906C28.4708 10.3906 29.0272 10.6211 29.4374 11.0313C29.8477 11.4416 30.0781 11.998 30.0781 12.5781C30.0781 12.7232 30.1357 12.8623 30.2383 12.9648C30.3409 13.0674 30.48 13.125 30.625 13.125C30.77 13.125 30.9091 13.0674 31.0117 12.9648C31.1143 12.8623 31.1719 12.7232 31.1719 12.5781C31.1719 11.998 31.4023 11.4416 31.8126 11.0313C32.2228 10.6211 32.7792 10.3906 33.3594 10.3906C33.5044 10.3906 33.6435 10.333 33.7461 10.2304C33.8486 10.1279 33.9062 9.98879 33.9062 9.84375C33.9062 9.69871 33.8486 9.55961 33.7461 9.45705C33.6435 9.35449 33.5044 9.29688 33.3594 9.29688ZM30.625 10.768C30.3815 10.4014 30.0673 10.0872 29.7008 9.84375C30.0673 9.60027 30.3815 9.28605 30.625 8.91953C30.8685 9.28605 31.1827 9.60027 31.5492 9.84375C31.1827 10.0872 30.8685 10.4014 30.625 10.768Z"/>
<path d="M4.92188 12.5781C5.06692 12.5781 5.20602 12.5205 5.30857 12.4179C5.41113 12.3154 5.46875 12.1763 5.46875 12.0312C5.46962 11.3063 5.75798 10.6113 6.27059 10.0987C6.7832 9.58611 7.47819 9.29774 8.20312 9.29688C8.34817 9.29688 8.48727 9.23926 8.58982 9.1367C8.69238 9.03414 8.75 8.89504 8.75 8.75C8.75 8.60496 8.69238 8.46586 8.58982 8.3633C8.48727 8.26074 8.34817 8.20312 8.20312 8.20312C7.47819 8.20226 6.7832 7.91389 6.27059 7.40129C5.75798 6.88868 5.46962 6.19368 5.46875 5.46875C5.46875 5.32371 5.41113 5.18461 5.30857 5.08205C5.20602 4.97949 5.06692 4.92188 4.92188 4.92188C4.77683 4.92188 4.63774 4.97949 4.53518 5.08205C4.43262 5.18461 4.375 5.32371 4.375 5.46875C4.37413 6.19368 4.08577 6.88868 3.57316 7.40129C3.06055 7.91389 2.36556 8.20226 1.64062 8.20312C1.49558 8.20312 1.35648 8.26074 1.25393 8.3633C1.15137 8.46586 1.09375 8.60496 1.09375 8.75C1.09375 8.89504 1.15137 9.03414 1.25393 9.1367C1.35648 9.23926 1.49558 9.29688 1.64062 9.29688C2.36556 9.29774 3.06055 9.58611 3.57316 10.0987C4.08577 10.6113 4.37413 11.3063 4.375 12.0312C4.375 12.1763 4.43262 12.3154 4.53518 12.4179C4.63774 12.5205 4.77683 12.5781 4.92188 12.5781ZM3.60227 8.75C4.14351 8.42476 4.59664 7.97163 4.92188 7.43039C5.24711 7.97163 5.70024 8.42476 6.24148 8.75C5.70024 9.07524 5.24711 9.52837 4.92188 10.0696C4.59664 9.52837 4.14351 9.07524 3.60227 8.75Z"/>
</svg>
