<svg width="22" height="32" viewBox="0 0 22 32" fill="none" xmlns="http://www.w3.org/2000/svg">
<mask id="path-1-outside-1" maskUnits="userSpaceOnUse" x="0" y="0" width="22" height="32" fill="black">
<rect fill="white" width="22" height="32"/>
<path d="M15.5019 1H6.50184C5.39726 1 4.50187 1.89539 4.50187 2.99997V9.57597C4.3563 9.53386 4.20638 9.50845 4.05486 9.49998H3.96652C3.21212 9.50342 2.57949 10.0706 2.49389 10.8199C2.41241 11.51 2.27874 12.193 2.09403 12.8629C1.98211 13.2276 1.84547 13.5842 1.68502 13.93C1.35406 14.5807 1.15653 15.2909 1.10389 16.019C1.08993 16.4491 1.10732 16.9059 1.12403 17.3465C1.13937 17.7564 1.15585 18.1801 1.14601 18.5706C1.13891 18.834 1.11648 19.2405 1.09199 19.699C1.03752 20.6989 0.969995 21.9429 1.0144 22.5371C1.02424 23.4382 1.33964 24.3093 1.90887 25.0081C2.06794 25.2349 2.25402 25.5 2.46986 25.8511C2.55752 25.9921 2.6509 26.1349 2.74543 26.2795C3.15536 26.7792 3.41743 27.3837 3.50189 28.0245V29.4999C3.50189 30.3285 4.17343 31 5.00198 31H11.0019C11.8304 31 12.502 30.3285 12.502 29.4999V27.4999C12.5061 27.3155 12.6084 27.147 12.7705 27.0584C13.7425 26.5585 14.5965 25.8568 15.2753 25.0001H15.5019C16.4159 24.9999 17.2131 24.3794 17.4374 23.4936C17.4593 23.4936 17.4799 23.5 17.5019 23.5H18.0169C18.7981 23.5041 19.5092 23.0507 19.8354 22.3409C20.1613 21.6312 20.0418 20.7964 19.53 20.2064C20.0349 19.9091 20.3815 19.4026 20.4762 18.8242C20.5707 18.2458 20.4034 17.6553 20.0194 17.2124C20.7955 16.7558 21.1693 15.8354 20.9312 14.9668C20.6932 14.0984 19.9024 13.4972 19.002 13.4999H17.5019V12.5796L19.2405 11.8609C20.2675 11.4519 20.769 10.2885 20.3609 9.26103C19.9516 8.23427 18.7884 7.73279 17.761 8.13997L17.501 8.24342V2.99997C17.501 1.89584 16.6061 1.00046 15.5019 1ZM13.502 1.99998V2.50009C13.502 2.77612 13.2781 2.99997 13.0019 2.99997H9.00192C8.72589 2.99997 8.50204 2.77612 8.50204 2.50009V1.99998H13.502ZM12.277 26.1889C11.8021 26.4551 11.5061 26.9557 11.502 27.4999V29.4999C11.502 29.7762 11.2781 30 11.0019 30H5.00198C4.72572 30 4.50187 29.7762 4.50187 29.4999V28.0245C4.42977 27.1855 4.11003 26.3869 3.58337 25.73C3.49388 25.594 3.40598 25.4599 3.32404 25.3265C3.09493 24.955 2.89787 24.6765 2.73033 24.4341C2.26592 23.8825 2.01187 23.1841 2.01347 22.4629C1.97433 21.9324 2.04002 20.7239 2.09243 19.7534C2.11738 19.2835 2.14233 18.8665 2.14736 18.596C2.15789 18.1739 2.14141 17.7345 2.12539 17.309C2.10845 16.8654 2.09243 16.447 2.10594 16.052C2.15537 15.4507 2.32406 14.8654 2.60192 14.3301C2.78045 13.9428 2.9322 13.5439 3.05602 13.136C3.25446 12.4155 3.3982 11.6808 3.48541 10.9385C3.51104 10.6913 3.71795 10.5027 3.96652 10.5H4.048C4.25788 10.5155 4.46044 10.5858 4.63485 10.7034C4.67445 10.7462 4.72137 10.7817 4.77332 10.808C5.13839 11.1184 5.50186 11.7401 5.50186 13C5.49888 13.0241 5.50094 13.0483 5.50804 13.0715C5.59387 14.5445 4.52888 16.9274 4.27848 17.0524C4.06997 17.1545 3.95988 17.3873 4.01344 17.6132C4.067 17.8388 4.26978 17.9975 4.50187 17.9949V22.9999C4.50187 24.1045 5.39726 25.0001 6.50184 25.0001H13.9339C13.4306 25.4604 12.8744 25.8595 12.277 26.1889ZM15.5019 24.0001H6.50184C5.94955 24.0001 5.50186 23.5522 5.50186 22.9999V17.067C6.09077 15.7874 6.42929 14.407 6.49887 13H6.50184C6.50184 11.4745 6.03034 10.6144 5.50186 10.129V2.99997C5.50186 2.44768 5.94955 1.99998 6.50184 1.99998H7.50183V2.50009C7.50183 3.32841 8.17359 3.99995 9.00192 3.99995H13.0019C13.8304 3.99995 14.5019 3.32841 14.5019 2.50009V1.99998H15.5019C16.0542 1.99998 16.5019 2.44768 16.5019 2.99997V13.778C15.9421 14.0966 15.5724 14.6677 15.5109 15.3088C15.4493 15.9499 15.7038 16.5809 16.1929 17C15.7551 17.3758 15.5026 17.924 15.5019 18.501C15.501 19.078 15.7516 19.6269 16.1883 20.0041C15.7054 20.4206 15.4527 21.0443 15.5097 21.6795C15.5669 22.3148 15.9265 22.8836 16.4758 23.2075C16.3802 23.6691 15.9734 24.0001 15.5019 24.0001ZM18.5019 19.5001H17.5019C17.3863 19.5005 17.2716 19.4792 17.1638 19.4369C16.7656 19.2984 16.4994 18.9217 16.5019 18.5001C16.5019 17.9478 16.9496 17.5001 17.5019 17.5001H18.5019C19.0542 17.5001 19.5019 17.9478 19.5019 18.5001C19.5019 19.0524 19.0542 19.5001 18.5019 19.5001ZM18.0169 22.5H17.5019C16.9496 22.5 16.5019 22.0523 16.5019 21.5C16.5019 20.9477 16.9496 20.5 17.5019 20.5H18.0169C18.5692 20.5 19.0169 20.9477 19.0169 21.5C19.0169 22.0523 18.5692 22.5 18.0169 22.5ZM20.002 15.4999C20.002 16.0522 19.5543 16.5001 19.002 16.5001H17.5019C16.9496 16.5001 16.5019 16.0522 16.5019 15.4999C16.5019 14.9476 16.9496 14.4999 17.5019 14.4999H19.002C19.5543 14.4999 20.002 14.9476 20.002 15.4999ZM18.1304 9.07106C18.4632 8.93968 18.8406 8.99599 19.1208 9.21869C19.4007 9.44139 19.5408 9.79639 19.4879 10.1502C19.4353 10.5041 19.1977 10.8028 18.8649 10.9339L17.5019 11.5V9.32054L18.1304 9.07106Z"/>
<path d="M13.0018 21.9999H9.00191C8.72588 21.9999 8.50203 22.2237 8.50203 22.5C8.50203 22.776 8.72588 22.9999 9.00191 22.9999H13.0018C13.2781 22.9999 13.502 22.776 13.502 22.5C13.502 22.2237 13.2781 21.9999 13.0018 21.9999Z"/>
<path d="M6.00195 28C5.72569 28 5.50185 28.2239 5.50185 28.4999C5.50185 28.7762 5.72569 29 6.00195 29H6.50183C6.77809 29 7.00194 28.7762 7.00194 28.4999C7.00194 28.2239 6.77809 28 6.50183 28H6.00195Z"/>
<path d="M8.50203 29H10.0019C10.2782 29 10.502 28.7762 10.502 28.4999C10.502 28.2239 10.2782 28 10.0019 28H8.50203C8.22577 28 8.00192 28.2239 8.00192 28.4999C8.00192 28.7762 8.22577 29 8.50203 29Z"/>
<path d="M7.00194 4.50006C6.72568 4.50006 6.50183 4.7239 6.50183 4.99994V5.50004C6.50183 5.77608 6.72568 5.99992 7.00194 5.99992C7.27797 5.99992 7.50182 5.77608 7.50182 5.50004V4.99994C7.50182 4.7239 7.27797 4.50006 7.00194 4.50006Z"/>
<path d="M7.00194 6.9999C6.72568 6.9999 6.50183 7.22375 6.50183 7.50001V10.0001C6.50183 10.2761 6.72568 10.5 7.00194 10.5C7.27797 10.5 7.50182 10.2761 7.50182 10.0001V7.50001C7.50182 7.22375 7.27797 6.9999 7.00194 6.9999Z"/>
</mask>
<path d="M15.5019 1H6.50184C5.39726 1 4.50187 1.89539 4.50187 2.99997V9.57597C4.3563 9.53386 4.20638 9.50845 4.05486 9.49998H3.96652C3.21212 9.50342 2.57949 10.0706 2.49389 10.8199C2.41241 11.51 2.27874 12.193 2.09403 12.8629C1.98211 13.2276 1.84547 13.5842 1.68502 13.93C1.35406 14.5807 1.15653 15.2909 1.10389 16.019C1.08993 16.4491 1.10732 16.9059 1.12403 17.3465C1.13937 17.7564 1.15585 18.1801 1.14601 18.5706C1.13891 18.834 1.11648 19.2405 1.09199 19.699C1.03752 20.6989 0.969995 21.9429 1.0144 22.5371C1.02424 23.4382 1.33964 24.3093 1.90887 25.0081C2.06794 25.2349 2.25402 25.5 2.46986 25.8511C2.55752 25.9921 2.6509 26.1349 2.74543 26.2795C3.15536 26.7792 3.41743 27.3837 3.50189 28.0245V29.4999C3.50189 30.3285 4.17343 31 5.00198 31H11.0019C11.8304 31 12.502 30.3285 12.502 29.4999V27.4999C12.5061 27.3155 12.6084 27.147 12.7705 27.0584C13.7425 26.5585 14.5965 25.8568 15.2753 25.0001H15.5019C16.4159 24.9999 17.2131 24.3794 17.4374 23.4936C17.4593 23.4936 17.4799 23.5 17.5019 23.5H18.0169C18.7981 23.5041 19.5092 23.0507 19.8354 22.3409C20.1613 21.6312 20.0418 20.7964 19.53 20.2064C20.0349 19.9091 20.3815 19.4026 20.4762 18.8242C20.5707 18.2458 20.4034 17.6553 20.0194 17.2124C20.7955 16.7558 21.1693 15.8354 20.9312 14.9668C20.6932 14.0984 19.9024 13.4972 19.002 13.4999H17.5019V12.5796L19.2405 11.8609C20.2675 11.4519 20.769 10.2885 20.3609 9.26103C19.9516 8.23427 18.7884 7.73279 17.761 8.13997L17.501 8.24342V2.99997C17.501 1.89584 16.6061 1.00046 15.5019 1ZM13.502 1.99998V2.50009C13.502 2.77612 13.2781 2.99997 13.0019 2.99997H9.00192C8.72589 2.99997 8.50204 2.77612 8.50204 2.50009V1.99998H13.502ZM12.277 26.1889C11.8021 26.4551 11.5061 26.9557 11.502 27.4999V29.4999C11.502 29.7762 11.2781 30 11.0019 30H5.00198C4.72572 30 4.50187 29.7762 4.50187 29.4999V28.0245C4.42977 27.1855 4.11003 26.3869 3.58337 25.73C3.49388 25.594 3.40598 25.4599 3.32404 25.3265C3.09493 24.955 2.89787 24.6765 2.73033 24.4341C2.26592 23.8825 2.01187 23.1841 2.01347 22.4629C1.97433 21.9324 2.04002 20.7239 2.09243 19.7534C2.11738 19.2835 2.14233 18.8665 2.14736 18.596C2.15789 18.1739 2.14141 17.7345 2.12539 17.309C2.10845 16.8654 2.09243 16.447 2.10594 16.052C2.15537 15.4507 2.32406 14.8654 2.60192 14.3301C2.78045 13.9428 2.9322 13.5439 3.05602 13.136C3.25446 12.4155 3.3982 11.6808 3.48541 10.9385C3.51104 10.6913 3.71795 10.5027 3.96652 10.5H4.048C4.25788 10.5155 4.46044 10.5858 4.63485 10.7034C4.67445 10.7462 4.72137 10.7817 4.77332 10.808C5.13839 11.1184 5.50186 11.7401 5.50186 13C5.49888 13.0241 5.50094 13.0483 5.50804 13.0715C5.59387 14.5445 4.52888 16.9274 4.27848 17.0524C4.06997 17.1545 3.95988 17.3873 4.01344 17.6132C4.067 17.8388 4.26978 17.9975 4.50187 17.9949V22.9999C4.50187 24.1045 5.39726 25.0001 6.50184 25.0001H13.9339C13.4306 25.4604 12.8744 25.8595 12.277 26.1889ZM15.5019 24.0001H6.50184C5.94955 24.0001 5.50186 23.5522 5.50186 22.9999V17.067C6.09077 15.7874 6.42929 14.407 6.49887 13H6.50184C6.50184 11.4745 6.03034 10.6144 5.50186 10.129V2.99997C5.50186 2.44768 5.94955 1.99998 6.50184 1.99998H7.50183V2.50009C7.50183 3.32841 8.17359 3.99995 9.00192 3.99995H13.0019C13.8304 3.99995 14.5019 3.32841 14.5019 2.50009V1.99998H15.5019C16.0542 1.99998 16.5019 2.44768 16.5019 2.99997V13.778C15.9421 14.0966 15.5724 14.6677 15.5109 15.3088C15.4493 15.9499 15.7038 16.5809 16.1929 17C15.7551 17.3758 15.5026 17.924 15.5019 18.501C15.501 19.078 15.7516 19.6269 16.1883 20.0041C15.7054 20.4206 15.4527 21.0443 15.5097 21.6795C15.5669 22.3148 15.9265 22.8836 16.4758 23.2075C16.3802 23.6691 15.9734 24.0001 15.5019 24.0001ZM18.5019 19.5001H17.5019C17.3863 19.5005 17.2716 19.4792 17.1638 19.4369C16.7656 19.2984 16.4994 18.9217 16.5019 18.5001C16.5019 17.9478 16.9496 17.5001 17.5019 17.5001H18.5019C19.0542 17.5001 19.5019 17.9478 19.5019 18.5001C19.5019 19.0524 19.0542 19.5001 18.5019 19.5001ZM18.0169 22.5H17.5019C16.9496 22.5 16.5019 22.0523 16.5019 21.5C16.5019 20.9477 16.9496 20.5 17.5019 20.5H18.0169C18.5692 20.5 19.0169 20.9477 19.0169 21.5C19.0169 22.0523 18.5692 22.5 18.0169 22.5ZM20.002 15.4999C20.002 16.0522 19.5543 16.5001 19.002 16.5001H17.5019C16.9496 16.5001 16.5019 16.0522 16.5019 15.4999C16.5019 14.9476 16.9496 14.4999 17.5019 14.4999H19.002C19.5543 14.4999 20.002 14.9476 20.002 15.4999ZM18.1304 9.07106C18.4632 8.93968 18.8406 8.99599 19.1208 9.21869C19.4007 9.44139 19.5408 9.79639 19.4879 10.1502C19.4353 10.5041 19.1977 10.8028 18.8649 10.9339L17.5019 11.5V9.32054L18.1304 9.07106Z" />
<path d="M13.0018 21.9999H9.00191C8.72588 21.9999 8.50203 22.2237 8.50203 22.5C8.50203 22.776 8.72588 22.9999 9.00191 22.9999H13.0018C13.2781 22.9999 13.502 22.776 13.502 22.5C13.502 22.2237 13.2781 21.9999 13.0018 21.9999Z" />
<path d="M6.00195 28C5.72569 28 5.50185 28.2239 5.50185 28.4999C5.50185 28.7762 5.72569 29 6.00195 29H6.50183C6.77809 29 7.00194 28.7762 7.00194 28.4999C7.00194 28.2239 6.77809 28 6.50183 28H6.00195Z" />
<path d="M8.50203 29H10.0019C10.2782 29 10.502 28.7762 10.502 28.4999C10.502 28.2239 10.2782 28 10.0019 28H8.50203C8.22577 28 8.00192 28.2239 8.00192 28.4999C8.00192 28.7762 8.22577 29 8.50203 29Z" />
<path d="M7.00194 4.50006C6.72568 4.50006 6.50183 4.7239 6.50183 4.99994V5.50004C6.50183 5.77608 6.72568 5.99992 7.00194 5.99992C7.27797 5.99992 7.50182 5.77608 7.50182 5.50004V4.99994C7.50182 4.7239 7.27797 4.50006 7.00194 4.50006Z" />
<path d="M7.00194 6.9999C6.72568 6.9999 6.50183 7.22375 6.50183 7.50001V10.0001C6.50183 10.2761 6.72568 10.5 7.00194 10.5C7.27797 10.5 7.50182 10.2761 7.50182 10.0001V7.50001C7.50182 7.22375 7.27797 6.9999 7.00194 6.9999Z" />
<path d="M15.5019 1H6.50184C5.39726 1 4.50187 1.89539 4.50187 2.99997V9.57597C4.3563 9.53386 4.20638 9.50845 4.05486 9.49998H3.96652C3.21212 9.50342 2.57949 10.0706 2.49389 10.8199C2.41241 11.51 2.27874 12.193 2.09403 12.8629C1.98211 13.2276 1.84547 13.5842 1.68502 13.93C1.35406 14.5807 1.15653 15.2909 1.10389 16.019C1.08993 16.4491 1.10732 16.9059 1.12403 17.3465C1.13937 17.7564 1.15585 18.1801 1.14601 18.5706C1.13891 18.834 1.11648 19.2405 1.09199 19.699C1.03752 20.6989 0.969995 21.9429 1.0144 22.5371C1.02424 23.4382 1.33964 24.3093 1.90887 25.0081C2.06794 25.2349 2.25402 25.5 2.46986 25.8511C2.55752 25.9921 2.6509 26.1349 2.74543 26.2795C3.15536 26.7792 3.41743 27.3837 3.50189 28.0245V29.4999C3.50189 30.3285 4.17343 31 5.00198 31H11.0019C11.8304 31 12.502 30.3285 12.502 29.4999V27.4999C12.5061 27.3155 12.6084 27.147 12.7705 27.0584C13.7425 26.5585 14.5965 25.8568 15.2753 25.0001H15.5019C16.4159 24.9999 17.2131 24.3794 17.4374 23.4936C17.4593 23.4936 17.4799 23.5 17.5019 23.5H18.0169C18.7981 23.5041 19.5092 23.0507 19.8354 22.3409C20.1613 21.6312 20.0418 20.7964 19.53 20.2064C20.0349 19.9091 20.3815 19.4026 20.4762 18.8242C20.5707 18.2458 20.4034 17.6553 20.0194 17.2124C20.7955 16.7558 21.1693 15.8354 20.9312 14.9668C20.6932 14.0984 19.9024 13.4972 19.002 13.4999H17.5019V12.5796L19.2405 11.8609C20.2675 11.4519 20.769 10.2885 20.3609 9.26103C19.9516 8.23427 18.7884 7.73279 17.761 8.13997L17.501 8.24342V2.99997C17.501 1.89584 16.6061 1.00046 15.5019 1ZM13.502 1.99998V2.50009C13.502 2.77612 13.2781 2.99997 13.0019 2.99997H9.00192C8.72589 2.99997 8.50204 2.77612 8.50204 2.50009V1.99998H13.502ZM12.277 26.1889C11.8021 26.4551 11.5061 26.9557 11.502 27.4999V29.4999C11.502 29.7762 11.2781 30 11.0019 30H5.00198C4.72572 30 4.50187 29.7762 4.50187 29.4999V28.0245C4.42977 27.1855 4.11003 26.3869 3.58337 25.73C3.49388 25.594 3.40598 25.4599 3.32404 25.3265C3.09493 24.955 2.89787 24.6765 2.73033 24.4341C2.26592 23.8825 2.01187 23.1841 2.01347 22.4629C1.97433 21.9324 2.04002 20.7239 2.09243 19.7534C2.11738 19.2835 2.14233 18.8665 2.14736 18.596C2.15789 18.1739 2.14141 17.7345 2.12539 17.309C2.10845 16.8654 2.09243 16.447 2.10594 16.052C2.15537 15.4507 2.32406 14.8654 2.60192 14.3301C2.78045 13.9428 2.9322 13.5439 3.05602 13.136C3.25446 12.4155 3.3982 11.6808 3.48541 10.9385C3.51104 10.6913 3.71795 10.5027 3.96652 10.5H4.048C4.25788 10.5155 4.46044 10.5858 4.63485 10.7034C4.67445 10.7462 4.72137 10.7817 4.77332 10.808C5.13839 11.1184 5.50186 11.7401 5.50186 13C5.49888 13.0241 5.50094 13.0483 5.50804 13.0715C5.59387 14.5445 4.52888 16.9274 4.27848 17.0524C4.06997 17.1545 3.95988 17.3873 4.01344 17.6132C4.067 17.8388 4.26978 17.9975 4.50187 17.9949V22.9999C4.50187 24.1045 5.39726 25.0001 6.50184 25.0001H13.9339C13.4306 25.4604 12.8744 25.8595 12.277 26.1889ZM15.5019 24.0001H6.50184C5.94955 24.0001 5.50186 23.5522 5.50186 22.9999V17.067C6.09077 15.7874 6.42929 14.407 6.49887 13H6.50184C6.50184 11.4745 6.03034 10.6144 5.50186 10.129V2.99997C5.50186 2.44768 5.94955 1.99998 6.50184 1.99998H7.50183V2.50009C7.50183 3.32841 8.17359 3.99995 9.00192 3.99995H13.0019C13.8304 3.99995 14.5019 3.32841 14.5019 2.50009V1.99998H15.5019C16.0542 1.99998 16.5019 2.44768 16.5019 2.99997V13.778C15.9421 14.0966 15.5724 14.6677 15.5109 15.3088C15.4493 15.9499 15.7038 16.5809 16.1929 17C15.7551 17.3758 15.5026 17.924 15.5019 18.501C15.501 19.078 15.7516 19.6269 16.1883 20.0041C15.7054 20.4206 15.4527 21.0443 15.5097 21.6795C15.5669 22.3148 15.9265 22.8836 16.4758 23.2075C16.3802 23.6691 15.9734 24.0001 15.5019 24.0001ZM18.5019 19.5001H17.5019C17.3863 19.5005 17.2716 19.4792 17.1638 19.4369C16.7656 19.2984 16.4994 18.9217 16.5019 18.5001C16.5019 17.9478 16.9496 17.5001 17.5019 17.5001H18.5019C19.0542 17.5001 19.5019 17.9478 19.5019 18.5001C19.5019 19.0524 19.0542 19.5001 18.5019 19.5001ZM18.0169 22.5H17.5019C16.9496 22.5 16.5019 22.0523 16.5019 21.5C16.5019 20.9477 16.9496 20.5 17.5019 20.5H18.0169C18.5692 20.5 19.0169 20.9477 19.0169 21.5C19.0169 22.0523 18.5692 22.5 18.0169 22.5ZM20.002 15.4999C20.002 16.0522 19.5543 16.5001 19.002 16.5001H17.5019C16.9496 16.5001 16.5019 16.0522 16.5019 15.4999C16.5019 14.9476 16.9496 14.4999 17.5019 14.4999H19.002C19.5543 14.4999 20.002 14.9476 20.002 15.4999ZM18.1304 9.07106C18.4632 8.93968 18.8406 8.99599 19.1208 9.21869C19.4007 9.44139 19.5408 9.79639 19.4879 10.1502C19.4353 10.5041 19.1977 10.8028 18.8649 10.9339L17.5019 11.5V9.32054L18.1304 9.07106Z" stroke="#0BB1CF" stroke-width="0.8" mask="url(#path-1-outside-1)"/>
<path d="M13.0018 21.9999H9.00191C8.72588 21.9999 8.50203 22.2237 8.50203 22.5C8.50203 22.776 8.72588 22.9999 9.00191 22.9999H13.0018C13.2781 22.9999 13.502 22.776 13.502 22.5C13.502 22.2237 13.2781 21.9999 13.0018 21.9999Z" stroke="#0BB1CF" stroke-width="0.8" mask="url(#path-1-outside-1)"/>
<path d="M6.00195 28C5.72569 28 5.50185 28.2239 5.50185 28.4999C5.50185 28.7762 5.72569 29 6.00195 29H6.50183C6.77809 29 7.00194 28.7762 7.00194 28.4999C7.00194 28.2239 6.77809 28 6.50183 28H6.00195Z" stroke="#0BB1CF" stroke-width="0.8" mask="url(#path-1-outside-1)"/>
<path d="M8.50203 29H10.0019C10.2782 29 10.502 28.7762 10.502 28.4999C10.502 28.2239 10.2782 28 10.0019 28H8.50203C8.22577 28 8.00192 28.2239 8.00192 28.4999C8.00192 28.7762 8.22577 29 8.50203 29Z" stroke="#0BB1CF" stroke-width="0.8" mask="url(#path-1-outside-1)"/>
<path d="M7.00194 4.50006C6.72568 4.50006 6.50183 4.7239 6.50183 4.99994V5.50004C6.50183 5.77608 6.72568 5.99992 7.00194 5.99992C7.27797 5.99992 7.50182 5.77608 7.50182 5.50004V4.99994C7.50182 4.7239 7.27797 4.50006 7.00194 4.50006Z" stroke="#0BB1CF" stroke-width="0.8" mask="url(#path-1-outside-1)"/>
<path d="M7.00194 6.9999C6.72568 6.9999 6.50183 7.22375 6.50183 7.50001V10.0001C6.50183 10.2761 6.72568 10.5 7.00194 10.5C7.27797 10.5 7.50182 10.2761 7.50182 10.0001V7.50001C7.50182 7.22375 7.27797 6.9999 7.00194 6.9999Z" stroke="#0BB1CF" stroke-width="0.8" mask="url(#path-1-outside-1)"/>
</svg>
