<svg width="89" height="89" viewBox="0 0 89 89" fill="none" xmlns="http://www.w3.org/2000/svg">
<path d="M53.929 23.073H35.4707C24.2749 23.073 15.1665 32.1814 15.1665 43.3772V65.5272H18.8582V61.8355H70.5415V65.5272H74.2332V43.3772C74.2332 32.1814 65.1248 23.073 53.929 23.073ZM18.8582 48.2097L19.6467 47.8151C23.0374 46.119 26.8345 45.223 30.6281 45.223H58.7716C62.5651 45.223 66.3622 46.1187 69.753 47.8151L70.5415 48.2097V50.7605H18.8582V48.2097ZM35.4707 26.7647H53.929C63.0888 26.7647 70.5415 34.2165 70.5415 43.3772V44.1128C67.916 42.9102 65.1041 42.1087 62.2353 41.7519V35.9938C62.2353 34.9735 61.4089 34.148 60.3894 34.148H47.4686C46.4491 34.148 45.6228 34.9735 45.6228 35.9938V41.5313H43.7769V35.9938C43.7769 34.9735 42.9506 34.148 41.9311 34.148H29.0103C27.9911 34.148 27.1644 34.9735 27.1644 35.9938V41.7519C24.2956 42.1087 21.4837 42.9102 18.8582 44.1128V43.3772C18.8582 34.2165 26.3109 26.7647 35.4707 26.7647ZM18.8582 58.1438V54.4522H70.5415V58.1438H18.8582Z" />
</svg>
