<svg width="35" height="35" viewBox="0 0 35 35" fill="none" xmlns="http://www.w3.org/2000/svg">
<g clip-path="url(#clip0)">
<path d="M17.4923 15.9858C17.0723 15.9858 16.7314 16.3267 16.7314 16.7468V22.8339C16.7314 23.254 17.0723 23.5949 17.4923 23.5949C17.9123 23.5949 18.2532 23.254 18.2532 22.8339V16.7468C18.2532 16.3267 17.9123 15.9858 17.4923 15.9858Z" />
<path d="M15.4775 16.0346C15.0848 15.8885 14.6451 16.0848 14.4974 16.4789L12.9269 20.6669L11.3564 16.4805C11.2088 16.0879 10.7675 15.8916 10.3764 16.0362C9.98223 16.1837 9.78285 16.622 9.93201 17.0162L12.2147 23.1034C12.3258 23.4002 12.6104 23.5965 12.9269 23.5965C13.2434 23.5965 13.528 23.4002 13.6391 23.1034L15.9218 17.0162C16.071 16.6205 15.8716 16.1837 15.4775 16.0346Z" />
<path d="M20.5359 15.9858C20.1159 15.9858 19.775 16.3267 19.775 16.7468V22.8339C19.775 23.254 20.1159 23.5949 20.5359 23.5949C20.956 23.5949 21.2969 23.254 21.2969 22.8339V20.5512H22.0578C23.3164 20.5512 24.3405 19.5271 24.3405 18.2685C24.3405 17.01 23.3164 15.9858 22.0578 15.9858H20.5359ZM22.8187 18.2685C22.8187 18.6886 22.4762 19.0295 22.0577 19.0295H21.2969V17.5077H22.0578C22.4763 17.5077 22.8187 17.8485 22.8187 18.2685Z" />
<path d="M34.9601 13.4506C34.8673 13.1767 34.6253 12.9789 34.3392 12.9408L23.3183 11.4798L18.1807 1.18027C18.0529 0.923111 17.7881 0.760254 17.5005 0.760254C17.2128 0.760254 16.9495 0.924609 16.8202 1.18177L11.6811 11.4798L0.661723 12.9408C0.375601 12.9788 0.135203 13.1767 0.0408276 13.4506C-0.0519786 13.7245 0.0180005 14.0273 0.223444 14.2328L8.30572 22.3151L6.10369 33.3284C6.04741 33.6145 6.15848 33.9067 6.38825 34.0832C6.61958 34.2612 6.93303 34.2886 7.19026 34.1593L17.502 29.0034L27.8138 34.1593C27.9234 34.2126 28.039 34.24 28.1547 34.24C28.3175 34.24 28.4819 34.1867 28.6127 34.0832C28.8441 33.9052 28.9536 33.6145 28.8973 33.3285L26.6953 22.3152L34.7775 14.2328C34.9829 14.0289 35.053 13.7245 34.9601 13.4506ZM25.3347 21.5268C25.1551 21.7079 25.076 21.9651 25.1262 22.2147L27.1045 32.1034L17.8429 27.4725C17.7348 27.4192 17.6177 27.3918 17.5019 27.3918C17.3862 27.3918 17.2691 27.4177 17.161 27.4725L7.89932 32.1033L9.87764 22.2146C9.92786 21.965 9.84875 21.7064 9.66913 21.5267L2.38895 14.2465L12.2822 12.9347C12.5333 12.9012 12.7509 12.746 12.8635 12.5207L17.5019 3.22557L22.1389 12.5207C22.2515 12.7475 22.4691 12.9027 22.7202 12.9347L32.615 14.2465L25.3347 21.5268Z" />
</g>
<defs>
<clipPath id="clip0">
<rect width="35" height="35" fill="white"/>
</clipPath>
</defs>
</svg>
