<svg width="30" height="30" viewBox="0 0 30 30" fill="none" xmlns="http://www.w3.org/2000/svg">
<path d="M29.9959 12.7701C30.009 12.6581 29.9875 12.541 29.9257 12.4364L27.8718 8.95645C27.1674 7.78116 26.5027 7.09484 25.1723 6.97879C25.1287 6.96734 25.0829 6.96118 25.0356 6.96118H1.60714C0.721004 6.96118 0 7.68212 0 8.56832V17.5453C0 18.9967 1.21667 19.6924 2.14661 19.9409C2.20902 21.6596 3.62585 23.0389 5.35962 23.0389C6.94996 23.0389 8.2735 21.8778 8.52944 20.3588H21.4996C21.7556 21.8778 23.0794 23.0389 24.6701 23.0389C26.2604 23.0389 27.584 21.8778 27.8399 20.3588H29.4643C29.7601 20.3588 30 20.1189 30 19.8231V12.8337C30 12.8121 29.9984 12.791 29.9959 12.7701ZM27.8855 14.4891C27.8855 14.1937 28.1258 13.9534 28.4212 13.9534H28.9286V15.0081H27.8855V14.4891ZM28.615 12.3237H24.0516L22.7192 9.65656H27.0409L28.615 12.3237ZM1.07143 13.3951H1.64618V15.008H1.07143V13.3951ZM1.07143 12.3237V9.64739H18.7081C19.2994 9.64739 19.6536 9.85618 19.8913 10.3431L20.8467 12.3237H1.07143ZM5.35962 21.9675C4.1771 21.9675 3.21509 21.0055 3.21509 19.8229C3.21509 18.6406 4.1771 17.6787 5.35962 17.6787C6.54174 17.6787 7.50355 18.6406 7.50355 19.8229C7.50355 21.0055 6.54174 21.9675 5.35962 21.9675ZM24.6701 21.9675C23.4876 21.9675 22.5256 21.0055 22.5256 19.8229C22.5256 18.6406 23.4876 17.6787 24.6701 17.6787C25.8522 17.6787 26.814 18.6406 26.814 19.8229C26.814 21.0055 25.8523 21.9675 24.6701 21.9675ZM27.84 19.2874C27.5843 17.7684 26.2606 16.6073 24.6701 16.6073C23.0793 16.6073 21.7554 17.7684 21.4996 19.2874H8.52951C8.27371 17.7684 6.95009 16.6073 5.35962 16.6073C3.91975 16.6073 2.69792 17.5583 2.28931 18.8652C1.78848 18.7095 1.07143 18.3469 1.07143 17.5454V16.0795H1.64618C2.23694 16.0795 2.71761 15.5989 2.71761 15.0081V13.3952H21.6874C21.9832 13.3952 22.2231 13.1553 22.2231 12.8595V12.8337C22.2231 12.7532 22.205 12.6736 22.1699 12.601L20.8552 9.87533C20.4343 9.01317 19.7119 8.57596 18.7081 8.57596H1.07143V8.56839C1.07143 8.27301 1.31176 8.03268 1.60714 8.03268H24.7483C25.4631 8.03268 25.8974 8.19011 26.2868 8.58513H21.8527C21.667 8.58513 21.4946 8.68123 21.397 8.83913C21.2993 8.99696 21.2904 9.19417 21.3734 9.36024L23.1889 12.9945C23.2488 13.225 23.4582 13.3951 23.7074 13.3951H27.2453C26.978 13.6823 26.814 14.0668 26.814 14.4891V15.5438C26.814 15.8396 27.0538 16.0795 27.3497 16.0795H28.9286V19.2874H27.84Z" />
<path d="M24.6698 15.0081H4.88841C4.59256 15.0081 4.35269 15.2479 4.35269 15.5438C4.35269 15.8396 4.59256 16.0795 4.88841 16.0795H24.6698C24.9656 16.0795 25.2055 15.8396 25.2055 15.5438C25.2055 15.2479 24.9656 15.0081 24.6698 15.0081Z" />
<path d="M6.40987 19.2874C6.11402 19.2874 5.87415 19.5272 5.87415 19.8231C5.87415 20.1071 5.64326 20.3381 5.3594 20.3381C5.0754 20.3381 4.84438 20.1071 4.84438 19.8231C4.84438 19.5392 5.0754 19.3082 5.3594 19.3082C5.65525 19.3082 5.89511 19.0684 5.89511 18.7725C5.89511 18.4767 5.65525 18.2368 5.3594 18.2368C4.48465 18.2368 3.77295 18.9484 3.77295 19.8231C3.77295 20.6978 4.48465 21.4095 5.3594 21.4095C6.23402 21.4095 6.94558 20.6978 6.94558 19.8231C6.94558 19.5272 6.70572 19.2874 6.40987 19.2874Z" />
<path d="M25.7204 19.2874C25.4245 19.2874 25.1847 19.5272 25.1847 19.8231C25.1847 20.1071 24.9538 20.3381 24.6699 20.3381C24.3859 20.3381 24.1549 20.1071 24.1549 19.8231C24.1549 19.5392 24.3859 19.3082 24.6699 19.3082C24.9658 19.3082 25.2056 19.0684 25.2056 18.7725C25.2056 18.4767 24.9658 18.2368 24.6699 18.2368C23.7952 18.2368 23.0835 18.9484 23.0835 19.8231C23.0835 20.6978 23.7952 21.4095 24.6699 21.4095C25.5445 21.4095 26.2561 20.6978 26.2561 19.8231C26.2561 19.5272 26.0162 19.2874 25.7204 19.2874Z" />
</svg>
