<svg width="30" height="30" viewBox="0 0 30 30" fill="none" xmlns="http://www.w3.org/2000/svg">
<g clip-path="url(#clip0)">
<path d="M23.0077 11.1478C23.3666 11.1478 23.6575 10.8568 23.6575 10.4979V4.49916C23.6575 4.14026 23.3666 3.84927 23.0077 3.84927H7.01091C6.65201 3.84927 6.36102 4.14026 6.36102 4.49916V10.4979C6.36102 10.8568 6.65201 11.1478 7.01091 11.1478H23.0077ZM22.3578 9.84804H15.6592V5.14906H22.3578V9.84804ZM7.66081 5.14906H14.3594V9.84804H7.66081V5.14906Z" stroke="#0BB1CF" stroke-width="0.3"/>
<path d="M29.9658 29.0345L29.9677 29.0363C30.2139 29.2914 30.2104 29.6967 29.9597 29.9474C29.709 30.198 29.3035 30.2016 29.0486 29.9553L29.0468 29.9535L29.0468 29.9535L21.2388 22.1455H8.77974L0.973473 29.9517C0.973175 29.952 0.972876 29.9524 0.972577 29.9527C0.809351 30.1206 0.568369 30.1883 0.341387 30.1287L29.9658 29.0345ZM29.9658 29.0345L23.0769 22.1455H24.0074C24.9185 22.1455 25.6571 21.4068 25.6571 20.4958V5.49887V5.4987C25.6548 3.48426 24.0225 1.85188 22.008 1.84959H22.0078H19.6584V1.49969C19.6584 0.588651 18.9197 -0.15 18.0087 -0.15H12.0099C11.0989 -0.15 10.3602 0.588651 10.3602 1.49969V1.84959L8.01072 1.84959L8.01055 1.84959C5.9961 1.85188 4.36373 3.48426 4.36144 5.4987V5.49887V20.4958C4.36144 21.4068 5.10009 22.1455 6.01113 22.1455H6.9417L0.0546885 29.0325C0.0543479 29.0329 0.0540077 29.0332 0.0536679 29.0335C-0.114836 29.1967 -0.18195 29.438 -0.122766 29.6647L-0.122716 29.6648C-0.0631029 29.8919 0.114167 30.0693 0.341377 30.1287L29.9658 29.0345ZM11.66 1.49969C11.66 1.30647 11.8167 1.1498 12.0099 1.1498H18.0087C18.2019 1.1498 18.3586 1.30647 18.3586 1.49969V1.84959H11.66V1.49969ZM5.66123 20.4958V5.49906C5.66284 4.20198 6.71366 3.15109 8.01072 3.14939C8.01078 3.14939 8.01084 3.14939 8.0109 3.14939H22.0077C22.0077 3.14939 22.0078 3.14939 22.0078 3.14939C23.3047 3.15109 24.3557 4.20198 24.3573 5.49906V20.4958C24.3573 20.689 24.2007 20.8457 24.0074 20.8457H6.01113C5.8179 20.8457 5.66123 20.689 5.66123 20.4958Z" stroke="#0BB1CF" stroke-width="0.3"/>
<path d="M22.6577 19.9959V14.997C22.6577 14.6381 22.3667 14.3471 22.0078 14.3471H8.0107C7.65179 14.3471 7.3608 14.6381 7.3608 14.997V19.9959C7.3608 20.3548 7.65179 20.6458 8.0107 20.6458H22.0078C22.3667 20.6458 22.6577 20.3548 22.6577 19.9959ZM21.3579 19.346H8.6606V15.6469H21.3579V19.346Z" stroke="#0BB1CF" stroke-width="0.3"/>
<path d="M11.0101 19.1462C11.9211 19.1462 12.6598 18.4076 12.6598 17.4965C12.6598 16.5855 11.9211 15.8468 11.0101 15.8468C10.0991 15.8468 9.36041 16.5855 9.36041 17.4965C9.36041 18.4076 10.0991 19.1462 11.0101 19.1462ZM11.0101 17.1466C11.2033 17.1466 11.36 17.3033 11.36 17.4965C11.36 17.6898 11.2033 17.8464 11.0101 17.8464C10.8169 17.8464 10.6602 17.6898 10.6602 17.4965C10.6602 17.3033 10.8169 17.1466 11.0101 17.1466Z" stroke="#0BB1CF" stroke-width="0.3"/>
<path d="M19.0085 19.1462C19.9195 19.1462 20.6581 18.4076 20.6581 17.4965C20.6581 16.5855 19.9195 15.8468 19.0085 15.8468C18.0974 15.8468 17.3588 16.5855 17.3588 17.4965C17.3588 18.4076 18.0974 19.1462 19.0085 19.1462ZM19.0085 17.1466C19.2017 17.1466 19.3584 17.3033 19.3584 17.4965C19.3584 17.6898 19.2017 17.8464 19.0085 17.8464C18.8152 17.8464 18.6586 17.6898 18.6586 17.4965C18.6586 17.3033 18.8152 17.1466 19.0085 17.1466Z" stroke="#0BB1CF" fill="none" stroke-width="0.3"/>
<path d="M20.5081 24.1452C20.8671 24.1452 21.158 23.8542 21.158 23.4953C21.158 23.1364 20.8671 22.8454 20.5081 22.8454H9.5104C9.15149 22.8454 8.8605 23.1364 8.8605 23.4953C8.8605 23.8542 9.15149 24.1452 9.5104 24.1452H20.5081Z" stroke="#0BB1CF" fill="none" stroke-width="0.3"/>
<path d="M6.36102 26.4945C6.36102 26.8534 6.65201 27.1444 7.01091 27.1444H23.0077C23.3666 27.1444 23.6575 26.8534 23.6575 26.4945C23.6575 26.1356 23.3666 25.8446 23.0077 25.8446H7.01091C6.65201 25.8446 6.36102 26.1356 6.36102 26.4945Z" fill="none" stroke="#0BB1CF" stroke-width="0.3"/>
<path d="M26.007 28.8441H4.01152C3.65262 28.8441 3.36163 29.1351 3.36163 29.494C3.36163 29.8529 3.65262 30.1439 4.01152 30.1439H26.007C26.3659 30.1439 26.6569 29.8529 26.6569 29.494C26.6569 29.1351 26.3659 28.8441 26.007 28.8441Z" stroke="#0BB1CF" fill="none" stroke-width="0.3"/>
</g>
<defs>
<clipPath id="clip0">
<rect width="30" height="30" fill="white"/>
</clipPath>
</defs>
</svg>
