<svg width="89" height="89" viewBox="0 0 89 89" fill="none" xmlns="http://www.w3.org/2000/svg">
<path d="M59.35 30.0491C49.7514 20.4502 37.0019 15.167 23.4393 15.167C23.4068 15.167 23.3743 15.167 23.3418 15.167L23.3489 18.8587H23.439C36.0137 18.8587 47.8385 23.7579 56.7396 32.6593C65.6631 41.584 70.5644 53.441 70.5408 66.0503L74.2325 66.0574C74.2582 52.4605 68.9729 39.6711 59.35 30.0491Z" />
<path d="M23.3452 31.498V35.1897C31.5939 35.1897 39.3449 38.3982 45.1724 44.226C50.9993 50.0538 54.2087 57.8049 54.2087 66.0535H57.9004C57.9004 56.8187 54.3071 48.1395 47.7826 41.6162C41.2584 35.0905 32.58 31.498 23.3452 31.498Z" />
<path d="M23.3552 47.8296L23.3354 51.5213C27.2253 51.5428 30.8729 53.0608 33.6066 55.7933C36.3393 58.526 37.8561 62.1742 37.8777 66.0644L41.5693 66.0428C41.5422 61.1739 39.6414 56.6081 36.2167 53.1834C32.7917 49.7581 28.2238 47.8565 23.3552 47.8296Z" />
<path d="M16.7883 64.7803C14.6259 66.943 14.6259 70.4489 16.7883 72.6116C18.9508 74.7741 22.457 74.7741 24.6197 72.6116C26.7821 70.4492 26.7821 66.943 24.6197 64.7803C22.457 62.6178 18.9508 62.6178 16.7883 64.7803Z" />
</svg>
