<svg width="30" height="30" viewBox="0 0 30 30" fill="none" xmlns="http://www.w3.org/2000/svg">
<path d="M10.8011 8.31797L10.8011 8.31798C10.8543 8.38633 10.9224 8.44164 11.0002 8.47969C11.078 8.51773 11.1634 8.53751 11.25 8.53752H11.2608V8.53754L11.263 8.53749C11.3518 8.53546 11.4389 8.51268 11.5172 8.47096C11.5956 8.42925 11.6631 8.36976 11.7144 8.29727L12.3777 7.35928L12.996 8.13205L10.687 24.2944C10.687 24.2945 10.687 24.2945 10.687 24.2945C10.6753 24.3763 10.6816 24.4598 10.7054 24.5389C10.7292 24.6181 10.77 24.6912 10.825 24.753L14.575 28.9717C14.6283 29.0318 14.6938 29.0798 14.7671 29.1127C14.8403 29.1456 14.9197 29.1626 15 29.1626C15.0803 29.1626 15.1597 29.1456 15.233 29.1127C15.3063 29.0798 15.3717 29.0318 15.4251 28.9717L19.1751 24.753C19.23 24.6912 19.2708 24.6182 19.2947 24.5391C19.3185 24.4599 19.3248 24.3765 19.3131 24.2947L17.0041 8.13193L17.6223 7.35911L18.2856 8.29712C18.3369 8.36965 18.4044 8.42916 18.4828 8.4709C18.5612 8.51264 18.6482 8.53545 18.737 8.53749V8.53752H18.7393H18.75C18.8366 8.53751 18.9221 8.51773 18.9999 8.47969C19.0777 8.44164 19.1457 8.38633 19.1989 8.31798L19.1989 8.31798L22.4802 4.09924C22.4802 4.09923 22.4802 4.09923 22.4802 4.09923C22.5587 3.99834 22.6009 3.87396 22.6 3.74614C22.5991 3.61832 22.5553 3.49452 22.4754 3.3947L22.3973 3.45717L22.4754 3.3947L20.6004 1.05095L20.6004 1.05093C20.5327 0.966334 20.4422 0.902835 20.3397 0.86791C20.2371 0.832984 20.1267 0.828086 20.0214 0.853792L15 2.07999L9.97888 0.853804C9.97886 0.8538 9.97885 0.853796 9.97883 0.853792C9.87356 0.82804 9.76313 0.832897 9.66053 0.867794C9.55792 0.902695 9.46742 0.966191 9.39968 1.0508L9.39966 1.05083L7.52466 3.39458L7.52466 3.39458C7.44481 3.4944 7.40091 3.6182 7.40004 3.74603C7.39918 3.87385 7.4414 3.99823 7.51989 4.09912L10.8011 8.31797ZM13.5357 6.98518L13.2072 6.57464L16.0108 5.07963L16.3116 5.50512L13.5357 6.98518ZM13.7647 10.7955L14.087 8.53752H15.913L16.0607 9.57108L13.7647 10.7955ZM13.5654 12.1908L16.2318 10.769L16.434 12.1844L13.3299 13.8399L13.5654 12.1908ZM18.1499 24.1943L15 27.7377L13.6437 26.2116L18.0986 23.8358L18.1499 24.1943ZM17.7504 21.3984L17.7505 21.3985L17.9275 22.6383L12.8662 25.3371L11.9765 24.3364L11.9765 24.3364L11.9476 24.3039L17.7252 21.2227L17.7504 21.3984ZM12.2605 21.3244L17.3516 18.6088L17.554 20.0249L12.0249 22.9736L12.2605 21.3244ZM16.9784 15.9957L17.1806 17.411L12.4598 19.9289L12.6954 18.2798L16.9784 15.9957ZM16.605 13.3822L16.8073 14.7978L12.8947 16.8843L13.1302 15.2354L16.605 13.3822ZM16.8452 6.50946L16.1329 7.40002H15.1749L16.8452 6.50946ZM18.7721 7.01441L15.9473 3.01986L19.9387 2.04484L21.3069 3.755L18.7721 7.01441ZM15 3.65059L15.3485 4.14347L14.2296 4.74022L15 3.65059ZM10.0613 2.04484L14.053 3.01964L11.2282 7.01417L8.69339 3.75476L10.0613 2.04484Z"  stroke="#0BB1CF" stroke-width="0.2"/>
</svg>
