<svg width="89" height="90" viewBox="0 0 89 90" fill="none" xmlns="http://www.w3.org/2000/svg">
<path d="M47.9922 48.5918H51.6838V59.6668H47.9922V48.5918Z" />
<path d="M40.6084 48.5918H44.3001V59.6668H40.6084V48.5918Z" />
<path d="M33.2251 48.5918H36.9168V59.6668H33.2251V48.5918Z" />
<path d="M64.6043 35.6709H59.0668V31.9792V30.1334C59.0668 25.0448 54.9263 20.9042 49.8377 20.9042H47.6755C47.3527 19.9904 46.7904 19.1665 46.0317 18.5229C44.7898 17.4704 43.1457 17.0215 41.5172 17.2955C40.991 17.3838 40.4827 17.5533 40.0084 17.7949C38.4732 16.2483 36.3923 15.3667 34.1481 15.3667C31.9157 15.3667 29.8291 16.2373 28.2952 17.7985C26.89 19.1809 26.0465 20.9801 25.8743 22.9287C24.1124 23.2819 22.4809 24.1473 21.1499 25.4594C19.4139 27.2187 18.4585 29.5332 18.4585 31.9792V39.3625C18.4585 40.8587 19.0436 42.2521 20.0728 43.2541C21.102 44.3106 22.517 44.8944 24.0196 44.8944C24.1747 44.8944 24.3315 44.8873 24.4883 44.8746C24.9597 44.8339 25.4121 44.7249 25.8421 44.5666V72.5875C25.8421 73.6079 26.6685 74.4334 27.688 74.4334H57.2213C58.2408 74.4334 59.0671 73.6079 59.0671 72.5875V67.05H64.6046C67.6581 67.05 70.1421 64.566 70.1421 61.5125V41.2084C70.1418 38.1549 67.6578 35.6709 64.6043 35.6709ZM29.5335 44.9H55.3752V63.3584H29.5335V44.9ZM55.3752 39.3625V41.2084H29.5335V39.1588V33.825H40.612C40.7113 36.6966 42.8905 39.0994 45.6655 39.3392C47.3282 39.4798 48.9354 38.8814 50.0367 37.7512C51.0984 36.7166 51.6835 35.3233 51.6835 33.8253H55.3752V35.6712V39.3625ZM24.1809 41.1957C23.6177 41.2515 23.0876 41.0569 22.6821 40.644C22.3386 40.3088 22.1502 39.8546 22.1502 39.3622V32.1809C22.1502 30.6918 22.646 29.2037 23.6886 28.1405C24.7615 27.0462 26.1865 26.4414 27.6877 26.4414C28.7072 26.4414 29.5335 25.6159 29.5335 24.5956V23.6727C29.5335 22.4379 30.0131 21.2861 30.9053 20.4083C31.7615 19.5377 32.9133 19.0581 34.1481 19.0581C35.4198 19.0581 36.5988 19.572 37.4576 20.4677C37.1044 21.2356 36.9168 22.0846 36.9168 22.9535V24.5956C36.9168 25.6151 37.7432 26.4414 38.7627 26.4414C39.7822 26.4414 40.6085 25.6151 40.6085 24.5956V22.9535C40.6085 22.4361 40.7869 21.9261 41.1061 21.5474C41.299 21.315 41.6351 21.0194 42.1309 20.9346C42.6897 20.8428 43.2269 20.9851 43.6451 21.3401C44.0515 21.6851 44.2889 22.1827 44.2999 22.711C44.3211 23.7279 45.0098 24.5956 46.0267 24.5956H49.8377C52.8911 24.5956 55.3752 27.0796 55.3752 30.1331H49.8377C48.8182 30.1331 47.9918 30.9594 47.9918 31.9789V33.8247C47.9918 34.3168 47.8034 34.7728 47.4277 35.1387C47.0565 35.5191 46.5311 35.6939 45.9729 35.6596C45.05 35.5802 44.3002 34.6647 44.3002 33.621V31.9789C44.3002 30.9594 43.4738 30.1331 42.4543 30.1331H27.6877C26.6682 30.1331 25.8418 30.9594 25.8418 31.9789V33.8247V39.1585C25.8418 40.2025 25.092 41.1183 24.1809 41.1957ZM55.3752 70.7417H29.5335V67.05H55.3752V70.7417ZM66.4502 61.5125C66.4502 62.5308 65.6217 63.3584 64.6043 63.3584H59.0668V39.3625H64.6043C65.6217 39.3625 66.4502 40.1901 66.4502 41.2084V61.5125Z" />
</svg>
