<svg width="90" height="90" viewBox="0 0 90 90" fill="none" xmlns="http://www.w3.org/2000/svg">
<path d="M65.1943 69.4656V46.5729C65.1943 42.3602 63.3287 39.4293 62.4238 38.2539L61.5307 22.7282C61.5434 22.7138 61.5549 22.6993 61.5676 22.683C61.9054 22.2451 62.0289 21.6807 61.9054 21.1417L60.9078 16.7994C60.715 15.9613 59.9686 15.3665 59.1089 15.3665H55.7669H55.4586H52.7935C51.9338 15.3665 51.1875 15.9613 50.9946 16.7994L49.997 21.1417C49.8736 21.6807 49.997 22.2448 50.3349 22.683C50.3476 22.6993 50.3591 22.7138 50.3718 22.7282L49.4787 38.2539C48.5738 39.429 46.7082 42.3602 46.7082 46.5729V69.4656C46.673 69.9848 46.6603 71.6703 47.8266 72.9807C48.417 73.644 49.5192 74.4334 51.4208 74.4334H55.8904H56.0121H60.4816C62.3833 74.4334 63.4858 73.644 64.0758 72.9807C65.2418 71.67 65.2294 69.9848 65.1943 69.4656ZM58.2873 30.6328H53.6151L53.7247 28.7276H58.1777L58.2873 30.6328ZM54.2634 19.0584H55.4586H55.7669H57.6391L58.0076 20.6627C57.8355 20.9672 57.7525 21.3189 57.7723 21.6757L57.9654 25.0357H53.9368L54.1299 21.6757C54.1497 21.3189 54.0667 20.9672 53.8945 20.6627L54.2634 19.0584ZM52.6175 40.2442C52.922 39.927 53.1042 39.5123 53.1293 39.0726L53.4025 34.3245H58.4994L58.7725 39.0726C58.7976 39.5017 58.9816 39.9199 59.2755 40.2353C59.3665 40.3328 61.5026 42.6688 61.5026 46.5731L61.5044 51.1535H50.3995V46.5731C50.3995 42.6685 52.5357 40.3325 52.6175 40.2442ZM61.5059 54.8448L61.5067 56.75H50.3995V54.8448H61.5059ZM61.3142 70.5309C61.1907 70.6644 60.8868 70.7418 60.4813 70.7418H56.0118H55.8901H51.4205C51.015 70.7418 50.7111 70.6644 50.5877 70.5309C50.4075 70.3345 50.3768 69.8944 50.3866 69.7539C50.3945 69.6836 50.3993 69.6133 50.3993 69.5412V60.4417H61.5076L61.5112 69.7249C61.5251 69.8944 61.4943 70.3345 61.3142 70.5309Z" />
<path d="M43.0918 46.5729C43.0918 42.3602 41.2271 39.4293 40.3222 38.2539L39.4282 22.7282C39.4409 22.7138 39.4524 22.6993 39.4651 22.683C39.8021 22.2468 39.9264 21.6807 39.803 21.1417L38.8062 16.7994C38.6143 15.9613 37.868 15.3665 37.0074 15.3665H33.6645H33.357H30.6911C29.8305 15.3665 29.0842 15.9613 28.8922 16.7994L27.8954 21.1417C27.772 21.6807 27.8963 22.2465 28.2333 22.683C28.246 22.6993 28.2575 22.7138 28.2702 22.7282L27.3762 38.2539C26.4713 39.429 24.6066 42.3602 24.6066 46.5729V69.4656C24.5715 69.9848 24.5588 71.6703 25.725 72.9807C26.3154 73.644 27.4176 74.4334 29.3192 74.4334H33.7879H33.9105H38.3792C40.2808 74.4334 41.3833 73.644 41.9734 72.9807C43.1397 71.6703 43.127 69.9848 43.0918 69.4656V46.5729ZM36.1851 30.6328H31.513L31.6225 28.7276H36.0756L36.1851 30.6328ZM32.1609 19.0584H33.357H33.6645H35.5375L35.9052 20.6627C35.733 20.9672 35.65 21.3189 35.6698 21.6757L35.8632 25.0357H31.8352L32.0286 21.6757C32.0484 21.3189 31.9654 20.9672 31.7932 20.6627L32.1609 19.0584ZM30.5153 40.2442C30.8198 39.927 31.002 39.5123 31.0272 39.0726L31.3003 34.3245H36.3978L36.671 39.0726C36.6961 39.5123 36.8783 39.927 37.1828 40.2442C37.2043 40.2675 39.3999 42.6632 39.3999 46.5729L39.4016 51.1532H28.298V46.5729C28.298 42.6685 30.4332 40.3325 30.5153 40.2442ZM39.4034 54.8448L39.4043 56.75H28.298V54.8448H39.4034ZM39.2117 70.5309C39.0883 70.6644 38.7844 70.7418 38.3789 70.7418H33.9102H33.7876H29.3192C28.9137 70.7418 28.6098 70.6644 28.4864 70.5309C28.3062 70.3345 28.2755 69.8944 28.2853 69.7539C28.2933 69.6836 28.298 69.6133 28.298 69.5412V60.4417H39.4055L39.409 69.7249C39.4226 69.8944 39.3919 70.3345 39.2117 70.5309Z" />
</svg>
