<svg width="89" height="90" viewBox="0 0 89 90" fill="none" xmlns="http://www.w3.org/2000/svg">
<path d="M62.1652 39.6221C60.8288 39.6221 59.5482 39.8545 58.3483 40.2635L52.5001 30.1333H57.1292C57.8303 30.1333 58.4 30.703 58.4 31.4041C58.4 31.7538 58.2579 32.0704 58.0291 32.3002L59.8778 35.5034C61.4531 34.4431 62.405 32.5246 61.9951 30.4148C61.5373 28.0589 59.3327 26.4417 56.9325 26.4417H49.3022C48.6425 26.4417 48.0332 26.7931 47.7033 27.3646C47.3734 27.936 47.3734 28.6389 47.7033 29.2104L50.3465 33.789H37.2361L35.1263 30.1333H37.8472C38.6463 30.1333 39.2943 29.4854 39.2943 28.6862C39.2943 27.9378 38.7234 27.3126 37.978 27.245L29.1422 26.4417C28.1227 26.4417 27.2964 27.268 27.2964 28.2875C27.2964 29.307 28.1227 30.1333 29.1422 30.1333H30.8628L33.8605 35.3262L30.947 40.3719C29.6635 39.8953 28.2822 39.6221 26.8348 39.6221C20.2917 39.6221 14.9668 44.9469 14.9668 51.49C14.9668 58.0332 20.2917 63.3583 26.8351 63.3583C33.1277 63.3583 38.2789 58.4298 38.6655 52.2328H42.8401V55.1711C42.8401 56.1915 43.6655 57.0169 44.6859 57.0169H48.61V53.3253H46.5317V50.8769L53.3471 38.9859L55.0819 41.9909C52.1847 44.1572 50.2972 47.6035 50.2972 51.4903C50.2972 58.0338 55.6221 63.3586 62.1655 63.3586C68.7089 63.3586 74.0335 58.0335 74.0335 51.49C74.0335 44.9466 68.7086 39.6221 62.1652 39.6221ZM49.9567 37.4806L44.6809 46.6853L39.3675 37.4806H49.9567ZM35.9922 39.0184L41.4892 48.5411H38.317C37.6602 45.9874 36.18 43.7653 34.1682 42.1776L35.9922 39.0184ZM32.2952 45.4218C33.2397 46.2724 33.9842 47.3365 34.4523 48.5411H30.4942L32.2952 45.4218ZM26.8351 59.6666C22.3268 59.6666 18.6585 55.9983 18.6585 51.49C18.6585 46.9818 22.3268 43.3135 26.8351 43.3135C27.6091 43.3135 28.3554 43.4286 29.0657 43.6306L25.6977 49.4638C25.3678 50.0352 25.3678 50.7381 25.6977 51.3096C26.0276 51.8811 26.6369 52.2325 27.2967 52.2325H34.9742C34.5967 56.3941 31.0926 59.6666 26.8351 59.6666ZM62.1652 59.6666C57.6569 59.6666 53.9886 55.9983 53.9886 51.49C53.9886 48.9676 55.138 46.7095 56.9396 45.2083L59.6433 49.8914C60.1534 50.7742 61.2822 51.0772 62.1649 50.5671H62.1652C63.0482 50.0574 63.3507 48.9283 62.8409 48.045L60.2461 43.5503C60.8628 43.4012 61.5034 43.3135 62.1652 43.3135C66.6735 43.3135 70.3418 46.9818 70.3418 51.49C70.3418 55.9983 66.6735 59.6666 62.1652 59.6666Z" />
</svg>
