<svg width="90" height="90" viewBox="0 0 90 90" fill="none" xmlns="http://www.w3.org/2000/svg">
<path d="M73.8741 33.3056C71.7273 33.3056 69.9813 31.559 69.9813 29.414C69.9813 25.232 66.5799 21.8307 62.398 21.8307V21.8481C62.3333 21.8413 62.2695 21.8307 62.2034 21.8307H57.468C53.5132 21.8452 49.9775 23.2403 47.3203 25.8791C46.4482 26.745 45.7069 27.7096 45.1 28.7471C44.4931 27.7096 43.7518 26.745 42.8797 25.8791C40.2208 23.24 36.5752 21.7477 32.7456 21.8307H27.9961C27.9302 21.8307 27.8667 21.8413 27.8024 21.8481V21.8307C23.6204 21.8307 20.2179 25.232 20.2179 29.414C20.2179 31.559 18.4722 33.3056 16.3263 33.3056H15.5664V36.9972H16.3263C20.5082 36.9972 23.9096 33.5959 23.9096 29.414C23.9096 28.0424 24.6252 26.8363 25.7014 26.1428L25.6293 26.564C25.0832 29.776 25.8836 33.1219 27.8239 35.7391C29.7141 38.2878 32.4574 39.9083 35.5363 40.3014C36.0058 40.3646 36.4952 40.406 36.9648 40.406H45.025H45.1756H53.235C53.7046 40.406 54.1939 40.3646 54.6508 40.3032C57.7433 39.9083 60.4866 38.2878 62.3759 35.7391C64.3171 33.1201 65.1174 29.7763 64.5714 26.5604L64.4999 26.1437C65.5752 26.8372 66.2902 28.043 66.2902 29.414C66.2902 33.5959 69.6924 36.9972 73.8747 36.9972H74.6331V33.3056H73.8741ZM57.4544 25.522H60.6467L60.9314 27.1803C61.1638 28.5516 61.0404 29.9562 60.5997 31.2568L55.0997 25.7565C55.8336 25.6059 56.5918 25.5223 57.3697 25.5223C57.3977 25.522 57.4267 25.522 57.4544 25.522ZM29.2687 27.1842L29.5525 25.5223H32.7592C33.5614 25.5114 34.3452 25.5953 35.1054 25.7518L29.6001 31.2577C29.1591 29.9568 29.0357 28.5531 29.2687 27.1842ZM36.0156 36.6405C35.6328 36.5917 35.261 36.5055 34.8957 36.4018L41.4267 29.8702C42.4098 31.2607 43.0297 32.8729 43.24 34.5941C43.2007 35.0294 43.1789 35.4689 43.1789 35.9122V36.7143H36.9645C36.6573 36.7143 36.3357 36.6836 36.0156 36.6405ZM54.1712 36.6422C53.8638 36.6836 53.5421 36.7143 53.2347 36.7143H47.0212V35.9122C47.0212 35.4689 46.9993 35.0297 46.96 34.5941C47.1703 32.8729 47.7902 31.2607 48.7734 29.8702L55.3035 36.4009C54.9346 36.5058 54.5587 36.5929 54.1712 36.6422Z" />
<path d="M62.5137 49.8696H62.4812H27.7495V51.7155L27.6836 53.5595C40.0061 54.001 40.2456 65.6422 40.2503 66.1307C40.253 67.149 41.0787 67.973 42.0962 67.973H48.1673C48.6576 67.973 49.1272 67.7748 49.4742 67.4287C49.8203 67.0808 50.014 66.6085 50.0132 66.1183C50.0132 66.0625 50.0448 60.3808 53.693 56.7305C55.7949 54.6269 58.7509 53.5616 62.4815 53.5616H62.5114H62.514V51.7158L62.5167 49.8699C62.5155 49.8696 62.5146 49.8696 62.5137 49.8696ZM51.0548 54.1472C47.7598 57.4621 46.7574 61.8333 46.4529 64.2813H43.8212C43.4039 60.9231 41.8478 56.5967 38.248 53.5613H51.6777C51.4653 53.7503 51.2565 53.9441 51.0548 54.1472Z" />
</svg>
