<svg width="89" height="90" viewBox="0 0 89 90" fill="none" xmlns="http://www.w3.org/2000/svg">
<path d="M28.7579 51.6121C25.7048 51.6121 23.2207 54.0958 23.2207 57.1493C23.2207 60.2027 25.7048 62.6871 28.7579 62.6871C31.8114 62.6871 34.2954 60.2027 34.2954 57.1493C34.2954 54.0958 31.8117 51.6121 28.7579 51.6121Z" />
<path d="M60.6415 51.6121C57.5881 51.6121 55.104 54.0958 55.104 57.1493C55.104 60.2027 57.5881 62.6871 60.6415 62.6871C63.6947 62.6871 66.1787 60.2027 66.1787 57.1493C66.1784 54.0958 63.6947 51.6121 60.6415 51.6121Z" />
<path d="M72.789 51.0626L66.0755 32.0408C65.2063 29.5774 63.4609 27.5999 61.268 26.3934L60.0846 22.8441C59.3304 20.5801 57.2193 19.0588 54.8318 19.0588H53.2069C51.0501 19.0588 49.0439 19.9203 47.5587 21.4832C46.0725 23.0479 45.3144 25.0955 45.4252 27.2496L45.7131 32.8645H43.6863L43.9742 27.2496C44.085 25.0955 43.3271 23.0479 41.8407 21.4832C40.3555 19.9203 38.349 19.0588 36.1925 19.0588H34.5675C32.1801 19.0588 30.0693 20.5801 29.3147 22.8441L28.1316 26.3934C25.9388 27.5996 24.1931 29.5774 23.3242 32.0408L16.6299 51.026C15.696 52.8671 15.1665 54.9466 15.1665 57.1486C15.1665 64.6435 21.2637 70.7419 28.758 70.7419C35.6269 70.7419 41.318 65.6193 42.2217 58.9944H47.1783C48.082 65.619 53.7731 70.7419 60.6419 70.7419C68.136 70.7419 74.2335 64.6438 74.2335 57.1486C74.2332 54.9613 73.7107 52.8949 72.789 51.0626ZM66.7367 45.0062C64.9021 44.0815 62.8324 43.5573 60.6416 43.5573C56.4807 43.5573 52.7527 45.438 50.2574 48.3919L49.5619 35.8748C49.4582 34.0145 50.1071 32.2446 51.388 30.8908C52.6688 29.537 54.4001 28.7907 56.2639 28.7907C59.1047 28.7907 61.649 30.5913 62.5947 33.27L66.7367 45.0062ZM45.9024 36.5562L46.5808 48.7667H42.8189L43.4972 36.5562H45.9024ZM42.6139 52.4584H46.7861L46.9441 55.3027H42.4559L42.6139 52.4584ZM50.2347 24.0263C51.0161 23.2027 52.0725 22.7502 53.2072 22.7502H54.8321C55.6281 22.7502 56.3309 23.2567 56.5826 24.0119L56.9541 25.1262C56.7255 25.1108 56.496 25.099 56.2645 25.099C53.5846 25.099 51.0885 26.1043 49.1561 27.9233L49.1118 27.0618C49.0539 25.9262 49.4523 24.8483 50.2347 24.0263ZM32.8174 24.0119C33.0687 23.2567 33.7719 22.7502 34.5678 22.7502H36.1928C37.3274 22.7502 38.3838 23.2027 39.1653 24.0263C39.9476 24.8483 40.346 25.9262 40.2881 27.0618L40.2438 27.9233C38.3112 26.1043 35.8153 25.099 33.1355 25.099C32.9039 25.099 32.6745 25.1111 32.4459 25.1262L32.8174 24.0119ZM26.8047 33.27C27.7501 30.5913 30.2944 28.7907 33.1355 28.7907C34.9993 28.7907 36.7306 29.537 38.0114 30.8908C39.2923 32.2446 39.9411 34.0145 39.8375 35.8748L39.142 48.3919C36.6467 45.438 32.9187 43.5573 28.7577 43.5573C26.567 43.5573 24.4973 44.0815 22.6627 45.0062L26.8047 33.27ZM28.758 67.0502C23.2988 67.0502 18.8582 62.6087 18.8582 57.1486C18.8582 51.6905 23.2988 47.2487 28.758 47.2487C34.2173 47.2487 38.6588 51.6902 38.6588 57.1486C38.6585 62.6087 34.217 67.0502 28.758 67.0502ZM60.6416 67.0502C55.1827 67.0502 50.7409 62.6087 50.7409 57.1486C50.7409 51.6905 55.1824 47.2487 60.6416 47.2487C66.1009 47.2487 70.5415 51.6902 70.5415 57.1486C70.5415 62.6087 66.1009 67.0502 60.6416 67.0502Z" />
</svg>
