<svg width="89" height="90" viewBox="0 0 89 90" fill="none" xmlns="http://www.w3.org/2000/svg">
<path d="M63.2999 38.5121L54.1339 36.679L39.5882 29.4055C39.0167 29.1208 38.3363 29.1477 37.792 29.4867C37.2486 29.8237 36.9169 30.4167 36.9169 31.0567C36.9169 33.0919 35.2613 34.7484 33.2252 34.7484H25.8419C25.8419 31.6949 23.3578 29.2109 20.3044 29.2109C17.2509 29.2109 14.7666 31.6946 14.7666 34.7484V55.0525C14.7666 58.106 17.2507 60.59 20.3041 60.59H26.8159C27.6703 60.59 28.5265 60.388 29.2926 60.0059C30.9175 59.1928 32.7365 58.8145 34.548 58.8901L64.5285 60.2528C67.0468 60.3771 69.4945 59.4758 71.2394 57.8104C72.9121 56.2114 73.8333 54.0339 73.8333 51.6798V51.3609C73.8333 45.1364 69.4033 39.7324 63.2999 38.5121ZM20.3041 32.9025C21.3215 32.9025 22.1499 33.7301 22.1499 34.7484C22.1499 36.7835 23.8056 38.44 25.8416 38.44H33.2249C36.3336 38.44 39.0005 36.5077 40.0864 33.7823L41.5019 34.4903L36.9169 42.132L44.3002 45.8237L48.8853 38.1819L52.7036 40.0913C52.8507 40.1651 53.0064 40.2174 53.167 40.2498L62.5755 42.1317C66.3424 42.886 69.2148 45.8585 69.9514 49.515H18.4583V34.7484C18.4583 33.7298 19.2867 32.9025 20.3041 32.9025ZM64.6959 56.5649L34.7155 55.2023C32.2748 55.096 29.8268 55.6095 27.6422 56.7038C27.3871 56.8316 27.1006 56.8984 26.8159 56.8984H20.3041C19.2867 56.8984 18.4583 56.0709 18.4583 55.0525V53.2067H69.8994C69.6614 53.9388 69.2529 54.601 68.6886 55.1409C67.6702 56.1143 66.2157 56.6243 64.6959 56.5649Z" />
</svg>
