<svg width="90" height="90" viewBox="0 0 90 90" fill="none" xmlns="http://www.w3.org/2000/svg">
<path d="M59.8974 48.5917H48.5917L48.5926 33.825H52.2834C53.3029 33.825 54.1292 32.9996 54.1292 31.9792V20.9042C54.1292 17.8507 51.6451 15.3667 48.5917 15.3667H20.9042C17.8507 15.3667 15.3667 17.8507 15.3667 20.9042V31.9792C15.3667 32.9996 16.193 33.825 17.2125 33.825H20.9042V72.5875C20.9042 73.6079 21.7305 74.4334 22.75 74.4334H31.9792C32.5964 74.4334 33.1726 74.125 33.5149 73.6115L35.6709 70.3776L37.8268 73.6115C38.1694 74.1253 38.7453 74.4334 39.3625 74.4334H72.5875C73.607 74.4334 74.4334 73.6079 74.4334 72.5875V63.1277C74.4334 55.1115 67.9127 48.5917 59.8974 48.5917ZM19.0584 30.1334V20.9042C19.0584 19.8859 19.8868 19.0584 20.9042 19.0584H48.5917C49.6091 19.0584 50.4375 19.8859 50.4375 20.9042V30.1334H19.0584ZM70.7417 70.7417H40.3504L37.2066 66.0261C36.5217 64.9987 34.82 64.9987 34.1351 66.0261L30.9913 70.7417H24.5959V63.3584H40.444L43.595 66.5093C43.9411 66.8554 44.4107 67.05 44.9 67.05H70.7417V70.7417ZM70.7417 63.3584H45.6644L42.5134 60.2075C42.1673 59.8613 41.6977 59.6667 41.2084 59.6667H24.5959V33.825H44.9009L44.9006 39.3625H37.5167V43.0542H44.9003L44.9 50.4375C44.9 50.9278 45.0947 51.3965 45.4408 51.7426C45.7869 52.0887 46.2565 52.2834 46.7459 52.2834H59.8974C65.8764 52.2834 70.7417 57.1484 70.7417 63.1277V63.3584Z" />
</svg>
