<svg width="89" height="90" viewBox="0 0 89 90" fill="none" xmlns="http://www.w3.org/2000/svg">
<path d="M16.8126 37.5167H72.1876C73.2071 37.5167 74.0335 36.6912 74.0335 35.6709C74.0335 24.4751 64.9251 15.3667 53.7293 15.3667H35.271C24.0752 15.3667 14.9668 24.4751 14.9668 35.6709C14.9668 36.6912 15.7931 37.5167 16.8126 37.5167ZM35.271 19.0584H53.7293C62.2653 19.0584 69.3188 25.5297 70.2399 33.825H18.7604C19.6815 25.5297 26.7349 19.0584 35.271 19.0584Z" />
<path d="M72.1876 52.2832H16.8126C15.7931 52.2832 14.9668 53.1087 14.9668 54.129C14.9668 65.3248 24.0752 74.4332 35.271 74.4332H53.7293C64.9251 74.4332 74.0335 65.3248 74.0335 54.129C74.0335 53.1087 73.2071 52.2832 72.1876 52.2832ZM53.7293 70.7415H35.271C26.7349 70.7415 19.6815 64.2702 18.7604 55.9749H50.4065L59.2665 63.3582L66.6498 55.9749H70.2399C69.3188 64.2702 62.2653 70.7415 53.7293 70.7415Z" />
<path d="M67.5911 43.8475C66.3699 45.605 65.61 46.5982 64.1814 46.5982C62.7529 46.5982 61.9921 45.6033 60.7709 43.8457C59.428 41.9151 57.757 39.5106 54.3294 39.5106C50.9027 39.5106 49.2325 41.9152 47.8906 43.8475C46.6702 45.605 45.9103 46.5982 44.4845 46.5982C43.0604 46.5982 42.3017 45.605 41.0831 43.8475C39.742 41.9152 38.0728 39.5106 34.6478 39.5106C31.2219 39.5106 29.5518 41.9152 28.2107 43.8475C26.9904 45.605 26.2314 46.5982 24.8055 46.5982C23.3805 46.5982 22.621 45.605 21.4015 43.8475C20.061 41.9152 18.3918 39.5103 14.9668 39.5103V43.2019C16.3909 43.2019 17.1505 44.1951 18.3699 45.9526C19.711 47.885 21.3803 50.2896 24.8061 50.2896C28.232 50.2896 29.9021 47.885 31.2432 45.9526C32.4635 44.1951 33.2225 43.2019 34.6484 43.2019C36.0725 43.2019 36.8312 44.1951 38.0498 45.9526C39.3909 47.885 41.0601 50.2896 44.4851 50.2896C47.9109 50.2896 49.581 47.885 50.923 45.9526C52.1434 44.1951 52.9032 43.2019 54.33 43.2019C55.7585 43.2019 56.5184 44.1951 57.7396 45.9526C59.0825 47.885 60.7535 50.2896 64.182 50.2896C67.6097 50.2896 69.2807 47.885 70.6235 45.9544C71.8447 44.1969 72.6055 43.2019 74.0341 43.2019V39.5103C70.6049 39.5103 68.9339 41.9152 67.5911 43.8475Z" />
</svg>
