<svg width="90" height="90" viewBox="0 0 90 90" fill="none" xmlns="http://www.w3.org/2000/svg">
<path d="M36.6489 60.8116C36.6489 64.2564 39.4416 67.0491 42.8864 67.0491H56.2632C59.708 67.0491 62.5006 64.2564 62.5006 60.8116V57.8208H36.6489V60.8116Z" />
<path d="M74.6331 19.4429V15.3667L15.5664 43.0542V47.1304L47.7288 32.0542V41.2084H42.1913C35.0667 41.2084 29.2705 47.0055 29.2705 54.1292V61.5125C29.2705 68.6363 35.0667 74.4334 42.1913 74.4334H56.958C64.0826 74.4334 69.8788 68.6363 69.8788 61.5125V54.1292C69.8788 47.0055 64.0826 41.2084 56.958 41.2084H51.4205V30.3239L74.6331 19.4429ZM66.1871 54.1292V61.5125C66.1871 66.6011 62.0466 70.7417 56.958 70.7417H42.1913C37.1027 70.7417 32.9621 66.6011 32.9621 61.5125V54.1292C32.9621 49.0406 37.1027 44.9 42.1913 44.9H56.958C62.0466 44.9 66.1871 49.0406 66.1871 54.1292Z" />
</svg>
