<svg width="90" height="89" viewBox="0 0 90 89" fill="none" xmlns="http://www.w3.org/2000/svg">
<path d="M68.2659 33.5466C68.6192 33.2457 68.9618 32.932 69.2843 32.6075C72.3522 29.5431 74.1764 25.4654 74.4236 21.1285C74.5229 19.4197 73.8847 17.743 72.6732 16.5319C71.4635 15.3243 69.8052 14.6807 68.0675 14.7761C63.2781 15.0537 58.7533 17.3033 55.6546 20.9412L51.9792 25.2486L47.5433 24.0274L48.3058 23.2649C49.0268 22.544 49.0268 21.3751 48.3058 20.6544C47.5849 19.9335 46.4163 19.9335 45.6954 20.6544L43.4494 22.9005L39.3555 21.7735L40.126 21.0029C40.8469 20.282 40.8469 19.1134 40.126 18.3925C39.4051 17.6716 38.2365 17.6716 37.5155 18.3925L35.2616 20.6465L25.4358 17.9415C24.7941 17.7614 24.111 17.9433 23.6405 18.4155L19.0097 23.0463C18.5915 23.4645 18.3986 24.0558 18.4922 24.64C18.5841 25.2221 18.9482 25.7271 19.4748 25.9955L41.6638 37.3381L30.4618 50.4663L20.942 47.8487C20.3003 47.6668 19.6172 47.8523 19.1467 48.3227L15.9072 51.562C15.4961 51.9731 15.3032 52.5516 15.3844 53.1266C15.4657 53.6999 15.8136 54.2028 16.3218 54.484L28.183 61.0221L34.7158 72.8779C34.9952 73.3862 35.4981 73.7341 36.0731 73.8153C36.1597 73.828 36.2462 73.8333 36.3327 73.8333C36.8194 73.8333 37.2899 73.6405 37.6378 73.2926L40.877 70.0534C41.3475 69.5847 41.5276 68.898 41.351 68.258L38.7338 58.751L51.8732 47.5372L63.2116 69.7182C63.4801 70.2445 63.9848 70.6086 64.5672 70.7007C64.6646 70.717 64.76 70.7241 64.8557 70.7241C65.3407 70.7241 65.8129 70.533 66.1608 70.1833L70.7916 65.5525C71.2621 65.0838 71.4423 64.3972 71.2656 63.7572L68.5607 53.9311L70.8076 51.6842C71.5285 50.9633 71.5285 49.7947 70.8076 49.0738C70.0867 48.3529 68.9177 48.3529 68.1971 49.0738L67.434 49.8369L66.307 45.743L68.5459 43.5041C69.2668 42.7832 69.2668 41.6145 68.5459 40.8936C67.825 40.1727 66.6564 40.1727 65.9355 40.8936L65.18 41.6491L63.9612 37.2212L68.2659 33.5466ZM23.4134 23.8629L25.4916 21.7847L49.3342 28.3485L44.1272 34.4506L23.4134 23.8629ZM35.4441 56.7049C34.8998 57.17 34.6727 57.909 34.8637 58.5995L37.5082 68.2019L36.7636 68.9447L31.1594 58.7725C30.9899 58.466 30.7394 58.2155 30.4329 58.046L20.2536 52.4361L20.9981 51.6916L30.6133 54.336C31.3073 54.5271 32.0445 54.2982 32.5079 53.7557L58.4656 23.3364C60.9154 20.4575 64.4937 18.6819 68.2754 18.4622C68.9479 18.399 69.5893 18.6677 70.0636 19.1417C70.5376 19.6158 70.7775 20.2469 70.7397 20.9173C70.5433 24.3476 69.1011 27.5726 66.6711 30.0006C66.4133 30.2602 66.1431 30.5053 65.8672 30.7416L35.4441 56.7049ZM67.4225 63.7008L65.3439 65.779L54.7603 45.0729L60.8608 39.8665L67.4225 63.7008Z" />
</svg>
