<svg width="89" height="90" viewBox="0 0 89 90" fill="none" xmlns="http://www.w3.org/2000/svg">
<path d="M65.004 19.0584V15.3667H61.3123V19.0584H46.5457V15.3667H42.854V19.0584H28.0873V15.3667H24.3957V19.0584C19.3071 19.0584 15.1665 23.1989 15.1665 28.2875V65.2042C15.1665 70.2928 19.3071 74.4334 24.3957 74.4334H65.004C70.0926 74.4334 74.2332 70.2928 74.2332 65.2042V28.2875C74.2332 23.1989 70.0926 19.0584 65.004 19.0584ZM70.5415 65.2042C70.5415 68.2577 68.0575 70.7417 65.004 70.7417H24.3957C21.3422 70.7417 18.8582 68.2577 18.8582 65.2042V28.2875C18.8582 25.2341 21.3422 22.75 24.3957 22.75V26.4417H28.0873V22.75H42.854V26.4417H46.5457V22.75H61.3123V26.4417H65.004V22.75C68.0575 22.75 70.5415 25.2341 70.5415 28.2875V65.2042Z" />
<path d="M28.0876 38.4396C29.6167 38.4396 30.8563 37.2 30.8563 35.6708C30.8563 34.1417 29.6167 32.9021 28.0876 32.9021C26.5585 32.9021 25.3188 34.1417 25.3188 35.6708C25.3188 37.2 26.5585 38.4396 28.0876 38.4396Z" />
<path d="M39.1628 38.4396C40.6919 38.4396 41.9315 37.2 41.9315 35.6708C41.9315 34.1417 40.6919 32.9021 39.1628 32.9021C37.6337 32.9021 36.394 34.1417 36.394 35.6708C36.394 37.2 37.6337 38.4396 39.1628 38.4396Z" />
<path d="M50.2375 38.4396C51.7666 38.4396 53.0062 37.2 53.0062 35.6708C53.0062 34.1417 51.7666 32.9021 50.2375 32.9021C48.7084 32.9021 47.4688 34.1417 47.4688 35.6708C47.4688 37.2 48.7084 38.4396 50.2375 38.4396Z" />
<path d="M61.3127 38.4396C62.8418 38.4396 64.0814 37.2 64.0814 35.6708C64.0814 34.1417 62.8418 32.9021 61.3127 32.9021C59.7836 32.9021 58.5439 34.1417 58.5439 35.6708C58.5439 37.2 59.7836 38.4396 61.3127 38.4396Z" />
<path d="M28.0876 49.5145C29.6167 49.5145 30.8563 48.2749 30.8563 46.7458C30.8563 45.2167 29.6167 43.9771 28.0876 43.9771C26.5585 43.9771 25.3188 45.2167 25.3188 46.7458C25.3188 48.2749 26.5585 49.5145 28.0876 49.5145Z" />
<path d="M39.1628 49.5145C40.6919 49.5145 41.9315 48.2749 41.9315 46.7458C41.9315 45.2167 40.6919 43.9771 39.1628 43.9771C37.6337 43.9771 36.394 45.2167 36.394 46.7458C36.394 48.2749 37.6337 49.5145 39.1628 49.5145Z" />
<path d="M50.2375 49.5145C51.7666 49.5145 53.0062 48.2749 53.0062 46.7458C53.0062 45.2167 51.7666 43.9771 50.2375 43.9771C48.7084 43.9771 47.4688 45.2167 47.4688 46.7458C47.4688 48.2749 48.7084 49.5145 50.2375 49.5145Z" />
<path d="M61.3127 49.5145C62.8418 49.5145 64.0814 48.2749 64.0814 46.7458C64.0814 45.2167 62.8418 43.9771 61.3127 43.9771C59.7836 43.9771 58.5439 45.2167 58.5439 46.7458C58.5439 48.2749 59.7836 49.5145 61.3127 49.5145Z" />
<path d="M28.0876 60.5895C29.6167 60.5895 30.8563 59.3499 30.8563 57.8208C30.8563 56.2916 29.6167 55.052 28.0876 55.052C26.5585 55.052 25.3188 56.2916 25.3188 57.8208C25.3188 59.3499 26.5585 60.5895 28.0876 60.5895Z" />
<path d="M39.1628 60.5895C40.6919 60.5895 41.9315 59.3499 41.9315 57.8208C41.9315 56.2916 40.6919 55.052 39.1628 55.052C37.6337 55.052 36.394 56.2916 36.394 57.8208C36.394 59.3499 37.6337 60.5895 39.1628 60.5895Z" />
<path d="M50.2375 60.5895C51.7666 60.5895 53.0062 59.3499 53.0062 57.8208C53.0062 56.2916 51.7666 55.052 50.2375 55.052C48.7084 55.052 47.4688 56.2916 47.4688 57.8208C47.4688 59.3499 48.7084 60.5895 50.2375 60.5895Z" />
</svg>
