<svg width="89" height="89" viewBox="0 0 89 89" fill="none" xmlns="http://www.w3.org/2000/svg">
<path d="M71.9874 27.8875H47.1803L45.6842 21.9028C45.4786 21.0809 44.7415 20.5042 43.8941 20.5042H29.1275C28.2802 20.5042 27.543 21.0809 27.3375 21.9028L25.8416 27.8875H16.6124C15.5921 27.8875 14.7666 28.7129 14.7666 29.7333V66.65C14.7666 67.6704 15.5921 68.4958 16.6124 68.4958H71.9874C73.0078 68.4958 73.8333 67.6704 73.8333 66.65V29.7333C73.8333 28.7129 73.0078 27.8875 71.9874 27.8875ZM70.1416 64.8041H18.4583V31.5792H27.2811C28.1278 31.5792 28.8661 31.003 29.0717 30.1816L30.5699 24.1958H42.4523L43.9508 30.1816C44.1564 31.003 44.8947 31.5792 45.7415 31.5792H70.1419V64.8041H70.1416Z" />
<path d="M23.9956 48.1916C23.9956 55.3153 29.7927 61.1124 36.9164 61.1124C44.0402 61.1124 49.8373 55.3153 49.8373 48.1916C49.8373 41.0678 44.0402 35.2708 36.9164 35.2708C29.7927 35.2708 23.9956 41.0678 23.9956 48.1916ZM46.1456 48.1916C46.1456 53.2802 42.005 57.4208 36.9164 57.4208C31.8278 57.4208 27.6873 53.2802 27.6873 48.1916C27.6873 43.103 31.8278 38.9624 36.9164 38.9624C42.005 38.9624 46.1456 43.103 46.1456 48.1916Z" />
<path d="M60.9124 40.8086C62.9512 40.8086 64.604 39.1558 64.604 37.117C64.604 35.0781 62.9512 33.4253 60.9124 33.4253C58.8735 33.4253 57.2207 35.0781 57.2207 37.117C57.2207 39.1558 58.8735 40.8086 60.9124 40.8086Z" />
<path d="M55.375 48.1909H66.45V51.8826H55.375V48.1909Z" />
<path d="M55.375 55.5745H66.45V59.2661H55.375V55.5745Z" />
</svg>
