<svg width="90" height="89" viewBox="0 0 90 89" fill="none" xmlns="http://www.w3.org/2000/svg">
<path d="M74.4334 59.0143H67.0397V33.4213C67.0397 26.2976 61.2435 20.5005 54.1189 20.5005H28.2875C21.1629 20.5005 15.3667 26.2976 15.3667 33.4213V60.851C15.3667 61.8714 16.193 62.6968 17.2125 62.6968H22.2893C23.0155 66.0108 25.9698 68.4992 29.4981 68.4992C33.0232 68.4992 35.9748 66.0152 36.7045 62.7057H74.4334V59.0143ZM28.2875 24.1922H54.1189C59.2075 24.1922 63.348 28.3327 63.348 33.4213V48.3953H19.0584V33.4213C19.0584 28.3327 23.1989 24.1922 28.2875 24.1922ZM29.4981 64.8076C27.4621 64.8076 25.8064 63.1511 25.8064 61.1159C25.8064 59.0808 27.4621 57.4242 29.4981 57.4242C31.5341 57.4242 33.1898 59.0808 33.1898 61.1159C33.1898 63.1511 31.5338 64.8076 29.4981 64.8076ZM29.4981 53.7326C26.1605 53.7326 23.3366 55.9594 22.4261 59.0052H19.0584V52.087H63.348V59.0143H36.5725C35.6647 55.9641 32.8386 53.7326 29.4981 53.7326Z" />
<path d="M24.5924 44.7035H37.5132C38.5327 44.7035 39.3591 43.8781 39.3591 42.8577V33.6285C39.3591 32.6082 38.5327 31.7827 37.5132 31.7827H24.5924C23.5729 31.7827 22.7466 32.6082 22.7466 33.6285V42.8577C22.7466 43.8778 23.5732 44.7035 24.5924 44.7035ZM26.4382 35.4744H35.6674V41.0119H26.4382V35.4744Z" />
<path d="M44.8966 44.7035H57.8174C58.8369 44.7035 59.6633 43.8781 59.6633 42.8577V33.6285C59.6633 32.6082 58.8369 31.7827 57.8174 31.7827H44.8966C43.8771 31.7827 43.0508 32.6082 43.0508 33.6285V42.8577C43.0508 43.8778 43.8774 44.7035 44.8966 44.7035ZM46.7424 35.4744H55.9716V41.0119H46.7424V35.4744Z" />
</svg>
