<svg width="89" height="89" viewBox="0 0 89 89" fill="none" xmlns="http://www.w3.org/2000/svg">
<path d="M24.196 33.4249C28.5861 33.4249 32.2438 30.3528 33.1785 26.2459C31.8451 28.1644 29.6316 29.4258 27.1183 29.4258C23.0409 29.4258 19.735 26.1201 19.735 22.0424C19.735 18.7448 21.9116 15.9852 24.8953 15.0374C24.6602 15.0191 24.4358 14.9666 24.196 14.9666C19.0988 14.9666 14.9668 19.0986 14.9668 24.1957C14.9668 29.2929 19.0988 33.4249 24.196 33.4249Z" />
<path d="M70.3418 66.6499V68.4795L61.1286 63.2149L46.1026 36.9201C45.4464 35.7701 43.5539 35.7701 42.8977 36.9201L27.8717 63.2149L18.6585 68.4795V66.6499H14.9668V74.0332H18.6585V72.7311L24.2642 69.5279L23.2674 71.2718C22.9411 71.8433 22.9429 72.5444 23.2728 73.1141C23.6044 73.6838 24.2119 74.0335 24.8699 74.0335H64.13C64.7881 74.0335 65.3956 73.6838 65.7272 73.1141C66.0571 72.5444 66.0589 71.8433 65.7325 71.2718L64.7358 69.5279L70.3415 72.7311V74.0332H74.0335V66.6499H70.3418ZM37.3971 70.3415L44.5001 57.9127L51.6032 70.3415H37.3971ZM55.8548 70.3415L46.1026 53.2766C45.4464 52.1266 43.5539 52.1266 42.8977 53.2766L33.1454 70.3415H28.0515L44.5001 41.5563L60.9487 70.3415H55.8548Z" />
<path d="M54.4416 31.1946L55.5822 30.5641L56.723 31.1946L56.5051 29.8588L57.428 28.9129L56.1527 28.7182L55.5822 27.5029L55.0119 28.7182L53.7363 28.9129L54.6592 29.8588L54.4416 31.1946Z" />
<path d="M62.9894 47.0381L64.13 46.4073L65.2709 47.0381L65.0529 45.7023L65.9758 44.7564L64.7006 44.5614L64.13 43.3464L63.5597 44.5614L62.2842 44.7564L63.2071 45.7023L62.9894 47.0381Z" />
</svg>
