<svg width="90" height="89" viewBox="0 0 90 89" fill="none" xmlns="http://www.w3.org/2000/svg">
<path d="M51.6151 48.5414C51.5879 48.5414 51.5619 48.5414 51.5348 48.5414C49.2285 42.1442 43.1473 37.7998 36.2391 37.7998C27.2622 37.7998 19.9592 45.0948 19.9592 54.0609C19.9592 54.3349 19.9672 54.6125 19.9825 54.8955C17.3222 56.2691 15.5664 59.0629 15.5664 62.1453C15.5664 66.6645 19.2347 70.3417 23.7439 70.3417H51.6154C57.6304 70.3417 62.5244 65.4477 62.5244 59.4327C62.5244 53.4265 57.6304 48.5414 51.6151 48.5414ZM51.6151 66.65H23.7439C21.2708 66.65 19.2581 64.6294 19.2581 62.1453C19.2581 60.166 20.5759 58.4049 22.4621 57.8642C23.3464 57.6119 23.9087 56.7448 23.7808 55.8343C23.6952 55.218 23.6512 54.6211 23.6512 54.0606C23.6512 47.1297 29.2985 41.4912 36.2394 41.4912C41.9922 41.4912 47.0035 45.3902 48.424 50.9726C48.6674 51.928 49.6163 52.5139 50.5888 52.3246C50.88 52.2632 51.2252 52.2327 51.6154 52.2327C55.5956 52.2327 58.8327 55.4631 58.8327 59.4321C58.8327 63.4126 55.5953 66.65 51.6151 66.65Z" />
<path d="M40.7369 46.6166C37.5168 45.6957 34.0449 45.7929 30.8786 46.8883C29.8296 47.2512 29.3476 48.4653 29.8444 49.458L29.8447 49.4588C30.2564 50.2813 31.2127 50.6798 32.0815 50.3776C34.5346 49.525 37.2301 49.4494 39.7271 50.1659C40.6107 50.4193 41.5434 49.9692 41.9093 49.126C42.3511 48.1077 41.8039 46.9216 40.7369 46.6166Z" />
<path d="M67.0869 25.8451C65.3761 21.546 61.2015 18.6582 56.4517 18.6582C50.1209 18.6582 44.9712 23.8082 44.9712 30.1387C44.9712 36.4801 50.1212 41.639 56.4517 41.639C58.4605 41.639 60.392 41.1251 62.1153 40.1393C63.4393 41.1053 65.0562 41.639 66.7325 41.639C71.0893 41.639 74.6333 38.095 74.6333 33.7382C74.6333 29.5008 71.2795 26.0324 67.0869 25.8451ZM66.7325 37.9476C65.5527 37.9476 64.4334 37.452 63.6611 36.5885C63.2978 36.1812 62.7931 35.9721 62.2839 35.9721C61.8929 35.9721 61.4998 36.0965 61.1664 36.349C59.7937 37.3944 58.1634 37.9479 56.4517 37.9479C52.157 37.9479 48.6629 34.4455 48.6629 30.1393C48.6629 25.8437 52.1572 22.3505 56.4517 22.3505C60.0288 22.3505 63.1256 24.7642 63.9809 28.2214C64.2243 29.2019 65.2113 29.7949 66.1944 29.5752C66.3271 29.5445 66.4927 29.53 66.7325 29.53C69.0533 29.53 70.9416 31.4172 70.9416 33.7391C70.9416 36.061 69.0536 37.9476 66.7325 37.9476Z" />
</svg>
