<svg width="89" height="89" viewBox="0 0 89 89" fill="none" xmlns="http://www.w3.org/2000/svg">
<path d="M52.6088 23.9341C45.6292 23.9341 39.9502 29.6122 39.9502 36.5918C39.9502 43.5714 45.6292 49.2512 52.6088 49.2512C59.5884 49.2512 65.2665 43.5714 65.2665 36.5918C65.2665 29.6122 59.5884 23.9341 52.6088 23.9341ZM52.6088 45.5596C47.6643 45.5596 43.6419 41.5362 43.6419 36.5918C43.6419 31.6473 47.6643 27.6257 52.6088 27.6257C57.5524 27.6257 61.5748 31.6473 61.5748 36.5918C61.5748 41.5362 57.5524 45.5596 52.6088 45.5596Z" />
<path d="M52.6079 43.3499C56.3402 43.3499 59.3657 40.3243 59.3657 36.592C59.3657 32.8598 56.3402 29.8342 52.6079 29.8342C48.8757 29.8342 45.8501 32.8598 45.8501 36.592C45.8501 40.3243 48.8757 43.3499 52.6079 43.3499Z" />
<path d="M50.7627 14.9663H54.4544V21.7241H50.7627V14.9663Z" />
<path d="M67.4756 34.7458H74.2334V38.4375H67.4756V34.7458Z" />
<path d="M61.8042 48.4114L64.414 45.8016L69.192 50.5796L66.5822 53.1894L61.8042 48.4114Z" />
<path d="M36.0054 22.6077L38.6152 19.9979L43.3932 24.7758L40.7834 27.3857L36.0054 22.6077Z" />
<path d="M61.8076 24.7783L66.5856 20.0003L69.1954 22.6101L64.4174 27.3881L61.8076 24.7783Z" />
<path d="M45.4488 52.5683C45.0244 52.5683 44.6033 52.5934 44.1871 52.6421C41.7619 47.2219 36.3865 43.6814 30.3425 43.6814C21.9739 43.6817 15.1665 50.49 15.1665 58.8574C15.1665 67.2248 21.9739 74.0334 30.3425 74.0334H45.4491C51.367 74.0334 56.1818 69.2189 56.1818 63.301C56.1818 57.3831 51.3667 52.5683 45.4488 52.5683ZM45.4488 70.3417H30.3422C24.0097 70.3417 18.8579 65.1899 18.8579 58.8574C18.8579 52.5249 24.0097 47.3731 30.3422 47.3731C35.3363 47.3731 39.7273 50.5671 41.2678 55.3225C41.5761 56.2726 42.5799 56.7989 43.5362 56.5266C44.1464 56.35 44.7899 56.2599 45.4488 56.2599C49.3315 56.2599 52.4896 59.4179 52.4896 63.3007C52.4898 67.1837 49.3318 70.3417 45.4488 70.3417Z" />
</svg>
