<svg width="89" height="89" viewBox="0 0 89 89" fill="none" xmlns="http://www.w3.org/2000/svg">
<path d="M63.2383 34.0708C62.8877 33.6647 62.3706 33.4249 61.8354 33.4249H55.4305L58.0877 22.797C58.3165 21.8868 57.8245 20.9512 56.9465 20.6213L41.8653 14.9666L40.5673 18.424L54.1071 23.5002L51.6261 33.4252H47.0685C47.0685 27.3153 42.1033 22.3502 35.9935 22.3502C29.8836 22.3502 24.9185 27.3153 24.9185 33.4252C24.9185 39.3688 29.6255 44.2418 35.5135 44.4816L39.7037 72.4644C39.8331 73.369 40.608 74.0335 41.5313 74.0335H56.2979C57.2022 74.0335 57.9775 73.369 58.1252 72.4644L63.6627 35.5477C63.7365 35.0123 63.5888 34.4769 63.2383 34.0708ZM38.1346 37.1166H50.7034L45.9648 56.0731C45.6296 55.9621 45.3127 55.838 44.9846 55.7066C43.9303 55.2849 42.7468 54.8176 40.7678 54.6892L39.1683 44.0386L38.1346 37.1166ZM54.7105 70.3415H43.1187L41.334 58.4576C42.2596 58.5976 42.9081 58.8516 43.6145 59.1348C44.059 59.3126 44.528 59.4984 45.067 59.6644L43.4326 66.2027L47.0126 67.0967L48.7406 60.1847C48.8006 60.1853 48.8529 60.1895 48.9143 60.1895C51.5767 60.1895 52.9793 59.6289 54.2138 59.1348C54.9199 58.8519 55.5682 58.5979 56.4931 58.4579L54.7105 70.3415ZM57.0584 54.6892C55.0809 54.8179 53.8978 55.2849 52.8437 55.7066C51.9297 56.0728 51.1199 56.3935 49.6677 56.4759L54.5076 37.1166H59.6943L57.0584 54.6892Z" />
</svg>
