<svg width="90" height="89" viewBox="0 0 90 89" fill="none" xmlns="http://www.w3.org/2000/svg">
<path d="M69.8189 29.0015V25.3098H60.8372C60.1269 25.3098 59.4808 25.717 59.1736 26.357L53.4692 38.2377H45.6482L38.5012 30.9633C43.1512 25.6518 43.2035 19.0892 43.0927 17.0777C43.0484 16.3024 42.5942 15.596 41.9075 15.2336C41.2126 14.8677 40.3942 14.891 39.8635 15.2209L27.2634 21.4132C26.8966 21.5933 26.601 21.8889 26.4208 22.2549L20.3039 34.7179C19.8975 35.3904 19.8739 36.207 20.2407 36.9025C20.6075 37.598 21.2962 38.0398 22.0839 38.085C22.3417 38.0995 22.6742 38.1122 23.07 38.1122C25.749 38.1122 31.2989 37.554 35.8833 33.5679L40.4716 38.2377H33.9908C32.7933 38.2377 32.7339 38.2415 28.5552 44.9412C28.0416 45.1063 27.6152 45.4911 27.407 46.0103C26.5003 48.269 26.0408 50.7096 26.0408 53.2657C26.0408 64.7176 35.3538 74.0333 46.8018 74.0333C58.2498 74.0333 67.5628 64.7483 67.5628 53.336C67.5628 50.6683 67.0986 48.1969 66.1839 45.9905C65.9704 45.4746 65.5401 45.0939 65.0251 44.9341C60.8694 38.241 60.8133 38.2374 59.6128 38.2374H57.564L61.9994 29.0012H69.8189V29.0015ZM38.3816 24.0195L31.5983 23.3948L39.3624 19.5747C39.2549 20.8249 38.9837 22.3863 38.3816 24.0195ZM28.3565 26.6869L28.8774 33.4323C27.3006 33.9964 25.7983 34.2531 24.5868 34.357L28.3565 26.6869ZM46.8015 70.3416C37.3892 70.3416 29.7321 62.6807 29.7321 53.2657C29.7321 51.6181 29.9646 50.0336 30.4235 48.5431H63.1851C63.6402 50.0085 63.8712 51.6145 63.8712 53.336C63.8712 62.7132 56.2138 70.3416 46.8015 70.3416ZM60.6199 44.8514H32.9707C33.9439 43.3139 34.5272 42.4255 34.8694 41.9294H58.7309C59.0711 42.4255 59.6518 43.3142 60.6199 44.8514Z" />
</svg>
