<svg width="89" height="89" viewBox="0 0 89 89" fill="none" xmlns="http://www.w3.org/2000/svg">
<path d="M62.9584 22.3501H62.6962L62.8226 20.5464C62.892 19.5532 62.5683 18.5943 61.9097 17.8462C61.2517 17.0999 60.3406 16.6584 59.3456 16.6026L30.0737 14.9768C29.0255 14.8955 27.9862 15.3155 27.2435 16.0674C26.5007 16.8193 26.1159 17.8557 26.1871 18.91L26.4186 22.3501H26.0418C24.0057 22.3501 22.3501 24.0066 22.3501 26.0417V31.5792C22.3501 33.6144 24.0057 35.2709 26.0418 35.2709H27.268L29.7379 72.3101C29.8019 73.28 30.6076 74.0334 31.5793 74.0334H57.4209C58.3908 74.0334 59.1956 73.2818 59.2623 72.3154L61.8196 35.2709H62.9584C64.9945 35.2709 66.6501 33.6144 66.6501 31.5792V26.0417C66.6501 24.0066 64.9945 22.3501 62.9584 22.3501ZM29.8687 18.661L59.1398 20.2886L58.9953 22.3501H30.1177L29.8687 18.661ZM55.6985 70.3417H33.3061L30.967 35.2709H58.1194L55.6985 70.3417ZM26.0418 31.5792V26.0417H62.9584L62.9602 31.5792H26.0418Z" />
<path d="M44.5 55.5748C48.5777 55.5748 51.8834 52.2691 51.8834 48.1914C51.8834 44.1137 48.5777 40.8081 44.5 40.8081C40.4223 40.8081 37.1167 44.1137 37.1167 48.1914C37.1167 52.2691 40.4223 55.5748 44.5 55.5748Z" />
</svg>
