<svg width="90" height="89" viewBox="0 0 90 89" fill="none" xmlns="http://www.w3.org/2000/svg">
<path d="M45.0997 14.9666C28.8154 14.9666 15.5664 28.2155 15.5664 44.4999C15.5664 60.7843 28.8154 74.0332 45.0997 74.0332C61.3841 74.0332 74.6331 60.7843 74.6331 44.4999C74.6331 28.2155 61.3841 14.9666 45.0997 14.9666ZM46.9456 70.2683V64.8005H43.2539V70.2683C30.4742 69.361 20.2386 59.1254 19.3313 46.3457H24.7991V42.6541H19.3313C20.2386 29.8744 30.4742 19.6387 43.2539 18.7315V24.1993H46.9456V18.7315C59.7252 19.6387 69.9609 29.8744 70.8682 42.6541H65.4004V46.3457H70.8682C69.9609 59.1254 59.7252 69.361 46.9456 70.2683Z" />
<path d="M57.4097 29.735L39.5544 38.0791C39.1622 38.2631 38.8459 38.5785 38.6631 38.9713L30.3362 56.8112C30.0081 57.5141 30.1552 58.3469 30.703 58.8968C31.0571 59.25 31.5293 59.4376 32.0099 59.4376C32.273 59.4376 32.5388 59.3817 32.7878 59.2645L50.643 50.9547C51.037 50.7728 51.3542 50.4553 51.537 50.0607L59.8639 32.1866C60.192 31.4837 60.045 30.6508 59.4953 30.1009C58.9481 29.5549 58.1126 29.4051 57.4097 29.735ZM35.8247 53.7796L40.8935 42.9205L46.6935 48.7217L35.8247 53.7796Z" />
</svg>
