<svg width="89" height="89" viewBox="0 0 89 89" fill="none" xmlns="http://www.w3.org/2000/svg">
<path d="M44.5 29.5333C48.5777 29.5333 51.8834 26.2276 51.8834 22.1499C51.8834 18.0723 48.5777 14.7666 44.5 14.7666C40.4224 14.7666 37.1167 18.0723 37.1167 22.1499C37.1167 26.2276 40.4224 29.5333 44.5 29.5333ZM44.5 18.4583C46.5355 18.4583 48.1917 20.1145 48.1917 22.1499C48.1917 24.1854 46.5355 25.8416 44.5 25.8416C42.4646 25.8416 40.8084 24.1854 40.8084 22.1499C40.8084 20.1145 42.4646 18.4583 44.5 18.4583Z" />
<path d="M65.8226 68.4904C64.0506 69.3773 62.5202 70.1417 59.263 70.1417C56.0539 70.1417 54.5208 69.3995 52.7816 68.5294C60.9038 65.2427 66.6501 57.2784 66.6501 47.9917C66.6501 46.9713 65.8247 46.1458 64.8043 46.1458H56.682V49.8375H62.8666C61.9989 58.5442 55.0536 65.4881 46.346 66.3567V35.0708H57.421V31.3792H31.5793V35.0708H42.6543V66.3567C33.9467 65.4881 27.0016 58.5439 26.1336 49.8375H32.3182V46.1458H24.196C23.1756 46.1458 22.3501 46.9713 22.3501 47.9917C22.3501 57.276 28.0938 65.2388 36.2125 68.5271C34.4715 69.398 32.9402 70.1417 29.7317 70.1417C26.4762 70.1417 24.9476 69.3773 23.1759 68.4904C21.2633 67.535 19.0947 66.45 14.9668 66.45V70.1417C18.2223 70.1417 19.7527 70.906 21.5247 71.7929C23.437 72.75 25.6056 73.8333 29.7317 73.8333C33.8578 73.8333 36.0244 72.75 37.9369 71.7929C39.7089 70.906 41.2376 70.1417 44.4927 70.1417C47.75 70.1417 49.2804 70.906 51.0524 71.7929C52.9667 72.75 55.1351 73.8333 59.2633 73.8333C63.3914 73.8333 65.5598 72.75 67.4741 71.7929C69.2461 70.906 70.7765 70.1417 74.0338 70.1417V66.45C69.9056 66.45 67.737 67.5333 65.8226 68.4904Z" />
</svg>
