<svg width="89" height="89" viewBox="0 0 89 89" fill="none" xmlns="http://www.w3.org/2000/svg">
<path d="M68.6957 24.1958H20.704C17.6506 24.1958 15.1665 26.6798 15.1665 29.7333V59.2666C15.1665 62.3201 17.6506 64.8041 20.704 64.8041H68.6957C71.7491 64.8041 74.2332 62.3201 74.2332 59.2666V29.7333C74.2332 26.6798 71.7491 24.1958 68.6957 24.1958ZM20.704 27.8875H68.6957C69.7131 27.8875 70.5415 28.715 70.5415 29.7333V31.5791H18.8582V29.7333C18.8582 28.715 19.6866 27.8875 20.704 27.8875ZM70.5415 35.2708V37.1166H18.8582V35.2708H70.5415ZM68.6957 61.1125H20.704C19.6866 61.1125 18.8582 60.2849 18.8582 59.2666V40.8083H70.5415V59.2666C70.5415 60.2849 69.7131 61.1125 68.6957 61.1125Z" />
<path d="M55.7743 51.8832C55.7743 49.8386 56.8948 48.0731 58.5431 47.1136C57.7256 46.6378 56.7882 46.3457 55.7743 46.3457C52.7161 46.3457 50.2368 48.825 50.2368 51.8832C50.2368 54.9414 52.7161 57.4207 55.7743 57.4207C56.7882 57.4207 57.7256 57.1283 58.5431 56.6528C56.8948 55.6933 55.7743 53.9275 55.7743 51.8832Z" />
<path d="M61.3122 46.3457C60.2983 46.3457 59.3609 46.6381 58.5435 47.1136C60.1917 48.0728 61.3122 49.8386 61.3122 51.8832C61.3122 53.9275 60.1917 55.6933 58.5435 56.6528C59.3609 57.1283 60.2983 57.4207 61.3122 57.4207C64.3704 57.4207 66.8497 54.9414 66.8497 51.8832C66.8497 48.825 64.3704 46.3457 61.3122 46.3457Z" />
<path d="M22.5498 51.8833H35.4706V55.575H22.5498V51.8833Z" />
</svg>
