<svg width="89" height="90" viewBox="0 0 89 90" fill="none" xmlns="http://www.w3.org/2000/svg">
<path d="M46.1458 34.0252H64.6041C65.0944 34.0252 65.563 33.8306 65.9092 33.4845L73.2925 26.1011C74.0134 25.3802 74.0134 24.2122 73.2925 23.491L65.9092 16.1077C65.563 15.7615 65.0944 15.5669 64.6041 15.5669H42.4541V35.8711H22.1499C21.6174 35.8711 21.1071 36.0825 20.7306 36.4591L15.3546 41.835C14.5708 42.6188 14.5708 43.89 15.3546 44.6738L20.7306 50.0497C21.1071 50.4263 21.6174 50.6377 22.1499 50.6377H42.4541V70.9419H14.7666V74.6336H42.4541H46.1458H73.8333V70.9419H46.1458V34.0252ZM46.1458 19.2586H63.8398L69.3773 24.7961L63.8398 30.3336H46.1458V19.2586Z" />
</svg>
