<svg width="90" height="90" viewBox="0 0 90 90" fill="none" xmlns="http://www.w3.org/2000/svg">
<path d="M44.9001 15.5669C35.7403 15.5669 28.2876 23.0187 28.2876 32.1794V34.0252C28.2876 35.0456 29.1139 35.8711 30.1334 35.8711H37.5168C38.5363 35.8711 39.3626 35.0456 39.3626 34.0252V32.1794C39.3626 30.1443 41.0182 28.4877 43.0543 28.4877C45.0903 28.4877 46.7459 30.1443 46.7459 32.1794V34.0252C46.7459 38.0973 43.4338 41.4086 39.3626 41.4086C33.2554 41.4086 28.2876 46.3764 28.2876 52.4836V72.7877C28.2876 73.8081 29.1139 74.6336 30.1334 74.6336H59.6668C60.6863 74.6336 61.5126 73.8081 61.5126 72.7877V32.1794C61.5126 23.0187 54.0599 15.5669 44.9001 15.5669ZM57.8209 70.9419H31.9793V52.4836C31.9793 48.4115 35.2914 45.1002 39.3626 45.1002C45.4698 45.1002 50.4376 40.1324 50.4376 34.0252V32.1794C50.4376 28.1073 47.1254 24.7961 43.0543 24.7961C38.9831 24.7961 35.6709 28.1073 35.6709 32.1794H31.9793C31.9793 25.0557 37.7755 19.2586 44.9001 19.2586C52.0247 19.2586 57.8209 25.0557 57.8209 32.1794V70.9419Z" />
<path d="M35.6709 63.5586H54.1292V67.2503H35.6709V63.5586Z" />
<path d="M44.9003 59.867C47.9586 59.867 50.4378 57.3878 50.4378 54.3295C50.4378 51.2712 47.9586 48.792 44.9003 48.792C41.842 48.792 39.3628 51.2712 39.3628 54.3295C39.3628 57.3878 41.842 59.867 44.9003 59.867Z" />
</svg>
