<svg width="89" height="90" viewBox="0 0 89 90" fill="none" xmlns="http://www.w3.org/2000/svg">
<path d="M72.1876 35.8711H67.1173C65.9526 32.3551 63.9842 29.1552 61.3657 26.5554C58.6986 23.8882 55.444 21.8983 51.8832 20.7417V17.4127C51.8832 16.3924 51.0568 15.5669 50.0373 15.5669H38.9623C37.9428 15.5669 37.1165 16.3924 37.1165 17.4127V20.7423C33.5554 21.8988 30.3017 23.8879 27.6396 26.55C25.0173 29.1546 23.0483 32.3551 21.8835 35.8711H16.8126C15.7931 35.8711 14.9668 36.6965 14.9668 37.7169V41.4086C14.9668 45.102 17.6945 48.1605 21.2391 48.6992C22.2187 53.0663 24.4083 57.0417 27.6342 60.2671C28.6032 61.2367 29.654 62.1153 30.7662 62.9026L26.7465 70.9419H24.196V74.6336H27.8876C28.587 74.6336 29.2261 74.2387 29.5388 73.6132L33.9485 64.7937C34.9851 65.3043 36.0551 65.7366 37.1516 66.0902C37.4993 69.8412 40.6605 72.7874 44.5001 72.7874C48.3398 72.7874 51.5013 69.8412 51.8486 66.0902C52.9443 65.7369 54.014 65.3043 55.0515 64.7934L59.4614 73.6132C59.7742 74.2387 60.4133 74.6336 61.1126 74.6336H64.8043V70.9419H62.2538L58.234 62.9023C59.3448 62.1159 60.3959 61.2372 61.366 60.2671C64.5922 57.0403 66.7816 53.0657 67.7612 48.6992C71.3058 48.1605 74.0335 45.102 74.0335 41.4086V37.7169C74.0335 36.6965 73.2071 35.8711 72.1876 35.8711ZM40.8085 19.2586H48.1918V21.1044C48.1918 23.1395 46.5362 24.7961 44.5001 24.7961C42.4641 24.7961 40.8085 23.1395 40.8085 21.1044V19.2586ZM18.6585 41.4086V39.5627H26.0418V41.4086C26.0418 43.4437 24.3862 45.1002 22.3501 45.1002C20.3141 45.1002 18.6585 43.4437 18.6585 41.4086ZM48.1918 65.4044C48.1918 67.4395 46.5362 69.0961 44.5001 69.0961C42.4641 69.0961 40.8085 67.4395 40.8085 65.4044V63.5586H48.1918V65.4044ZM51.8835 62.1578V61.7127C51.8835 60.6924 51.0571 59.8669 50.0376 59.8669H38.9626C37.9431 59.8669 37.1168 60.6924 37.1168 61.7127V62.1578C36.6026 61.9564 36.0955 61.7369 35.5988 61.493L42.9112 46.8681C43.4148 47.0187 43.9476 47.1023 44.5001 47.1023C45.0527 47.1023 45.5852 47.019 46.0887 46.8684L53.4012 61.493C52.9041 61.7369 52.3973 61.9561 51.8835 62.1578ZM58.7559 57.6569C58.068 58.3442 57.3297 58.9738 56.5592 59.5527L49.1038 44.6419C49.6933 43.7618 50.0379 42.7036 50.0379 41.5648C50.0379 38.5066 47.5586 36.0273 44.5004 36.0273C41.4423 36.0273 38.9629 38.5066 38.9629 41.5648C38.9629 42.7036 39.3076 43.7615 39.8971 44.6416L32.4414 59.553C31.6703 58.9735 30.9325 58.3442 30.2456 57.6572C27.6227 55.0344 25.8123 51.8309 24.9417 48.3138C27.7361 47.2609 29.7335 44.5674 29.7335 41.4086V37.7169C29.7335 36.6965 28.9071 35.8711 27.8876 35.8711H25.8147C26.8215 33.3604 28.3238 31.0737 30.2453 29.1655C32.4083 27.0016 35.0294 25.3743 37.8944 24.3832C39.1047 26.8117 41.6073 28.4877 44.5001 28.4877C47.3929 28.4877 49.8956 26.8117 51.1059 24.3832C53.9712 25.3743 56.5934 27.0025 58.7603 29.1708C60.6782 31.0749 62.18 33.3607 63.1865 35.8711H61.1126C60.0931 35.8711 59.2668 36.6965 59.2668 37.7169V41.4086C59.2668 44.5674 61.2641 47.2609 64.0586 48.3135C63.1882 51.8306 61.3778 55.0341 58.7559 57.6569ZM70.3418 41.4086C70.3418 43.4437 68.6862 45.1002 66.6501 45.1002C64.6141 45.1002 62.9585 43.4437 62.9585 41.4086V39.5627H70.3418V41.4086Z" />
</svg>
