<svg width="90" height="90" viewBox="0 0 90 90" fill="none" xmlns="http://www.w3.org/2000/svg">
<path d="M74.6331 54.9858L45.0997 62.899L15.5664 54.9858V58.8075L37.9683 64.8098L15.5664 70.8119V74.6335L45.0997 66.7203L74.6331 74.6335V70.8119L52.2312 64.8098L74.6331 58.8075V54.9858Z" />
<path d="M43.4344 56.1066C43.9822 56.1536 44.5374 56.1752 45.1001 56.1752C45.6627 56.1752 46.2176 56.1536 46.7619 56.1084C53.2439 55.5804 58.6913 51.3893 60.9769 45.1687C63.3779 38.6326 61.8475 31.5485 56.9787 26.6814L46.4048 16.1076C45.6839 15.3867 44.5159 15.3867 43.7947 16.1076L33.2209 26.6814C28.352 31.5482 26.8219 38.6324 29.2226 45.1687C31.5085 51.3893 36.9559 55.5804 43.4344 56.1066ZM35.8313 29.2916L45.1001 20.0228L54.3688 29.2916C58.2064 33.1309 59.4125 38.7263 57.5126 43.8961C55.7011 48.8243 51.5714 52.013 46.4592 52.4294C45.5652 52.5015 44.6384 52.5033 43.7374 52.4277C38.629 52.013 34.4991 48.8243 32.6875 43.8961C30.7876 38.7263 31.9934 33.1312 35.8313 29.2916Z" />
<path d="M44.3614 48.7669C44.6047 48.7867 44.8511 48.7968 45.0997 48.7968C45.3484 48.7968 45.5944 48.7867 45.8381 48.7669C52.105 48.2578 54.7046 40.391 50.2586 35.945L45.0997 30.7861L39.9408 35.9447C35.4949 40.391 38.0944 48.2575 44.3614 48.7669Z" />
</svg>
