<svg width="89" height="90" viewBox="0 0 89 90" fill="none" xmlns="http://www.w3.org/2000/svg">
<path d="M66.8498 30.3336H63.1582V34.0252H66.8498C68.8859 34.0252 70.5415 35.6818 70.5415 37.7169V67.2502C70.5415 69.2854 68.8859 70.9419 66.8498 70.9419H22.5498C20.5138 70.9419 18.8582 69.2854 18.8582 67.2502V37.7169C18.8582 35.6818 20.5138 34.0252 22.5498 34.0252H29.9332V39.5627H33.6248V30.3336C33.6248 24.2264 38.5926 19.2586 44.6998 19.2586C50.807 19.2586 55.7748 24.2264 55.7748 30.3336H37.3165V34.0252H55.7748V39.5627H59.4665V30.3336C59.4665 22.1912 52.8422 15.5669 44.6998 15.5669C36.5575 15.5669 29.9332 22.1912 29.9332 30.3336H22.5498C18.4787 30.3336 15.1665 33.6448 15.1665 37.7169V67.2502C15.1665 71.3223 18.4787 74.6336 22.5498 74.6336H66.8498C70.921 74.6336 74.2332 71.3223 74.2332 67.2502V37.7169C74.2332 33.6448 70.921 30.3336 66.8498 30.3336Z" />
<path d="M48.392 61.7127V56.1752H53.9295V48.7919H48.392V43.2544H41.0087V48.7919H35.4712V56.1752H41.0087V61.7127H48.392Z" />
</svg>
