<svg width="89" height="90" viewBox="0 0 89 90" fill="none" xmlns="http://www.w3.org/2000/svg">
<path d="M64.6598 42.2217C63.5541 42.2217 62.6577 43.118 62.6577 44.2237C62.6577 45.3295 63.5541 46.2258 64.6598 46.2258C65.7655 46.2258 66.6618 45.3295 66.6618 44.2237C66.6618 43.118 65.7655 42.2217 64.6598 42.2217Z" />
<path d="M67.8684 34.8114C64.5518 32.9334 60.84 31.8315 57.001 31.4325C55.5441 26.5341 51.0063 22.95 45.6413 22.95C44.6218 22.95 43.7955 23.7754 43.7955 24.7958V32.7376C37.957 34.4925 32.5359 37.7727 28.4945 42.3584L17.9178 31.7831C17.3221 31.19 16.4027 31.071 15.6762 31.4966C14.9514 31.9239 14.6065 32.7872 14.838 33.5946C16.9579 41.0122 16.9579 49.185 14.838 56.6044C14.6065 57.4118 14.9517 58.2754 15.6762 58.7024C15.9683 58.8737 16.2908 58.9567 16.6118 58.9567C17.0894 58.9567 17.5628 58.7709 17.9178 58.4159L28.4922 47.8415C32.5329 52.4275 37.9573 55.7003 43.7955 57.4555V65.4038C43.7955 66.4242 44.6218 67.2496 45.6413 67.2496C51.6227 67.2496 56.1729 63.7878 57.25 58.7414C61.0001 58.3211 64.6241 57.2249 67.8684 55.3876C71.6035 53.2736 73.8332 49.4269 73.8332 45.1005C73.8332 40.7727 71.6035 36.926 67.8684 34.8114ZM47.4871 26.8525C49.9174 27.416 51.9307 29.071 52.9924 31.2686C51.1561 31.3082 49.312 31.4987 47.4871 31.8383V26.8525ZM19.6859 51.4278C20.2609 47.2423 20.2609 42.9555 19.6859 38.7718L26.0146 45.0988L19.6859 51.4278ZM30.9889 45.0988C38.0952 36.698 49.2328 33.7893 58.421 35.3808C57.1194 38.4171 56.4278 41.7287 56.4278 45.0988C56.4278 48.4685 57.1191 51.7816 58.421 54.8182C49.232 56.41 38.0932 53.501 30.9889 45.0988ZM47.4871 63.3923V58.3516C49.4352 58.7139 51.4035 58.9124 53.3628 58.9325C52.4124 61.4806 50.0394 62.9301 47.4871 63.3923ZM66.0497 52.1755C64.8129 52.8755 63.4717 53.4585 62.0553 53.9227C60.7883 51.1962 60.1194 48.1755 60.1194 45.0985C60.1194 42.0214 60.7883 39.0022 62.0553 36.276C63.4715 36.7402 64.8126 37.3232 66.0497 38.0232C68.6111 39.4741 70.1416 42.1186 70.1416 45.0999C70.1416 48.0802 68.6111 50.7246 66.0497 52.1755Z" />
</svg>
