<svg width="89" height="90" viewBox="0 0 89 90" fill="none" xmlns="http://www.w3.org/2000/svg">
<path d="M34.4951 52.4822L39.4875 47.4898L42.0973 50.0996L37.1049 55.092L34.4951 52.4822Z" />
<path d="M73.4896 36.392L53.2061 16.1077C52.86 15.7615 52.3904 15.5669 51.901 15.5669C51.4116 15.5669 50.9421 15.7615 50.5959 16.1077L45.0531 21.6505C44.8801 21.8235 44.743 22.0291 44.6503 22.2544L39.7923 34.0884L18.2165 55.6652C13.8866 59.9951 13.8866 67.0394 18.2218 71.3728C20.3181 73.4747 23.1078 74.6318 26.0756 74.6336H26.0818C29.0469 74.6336 31.8355 73.4782 33.9329 71.3816L55.5097 49.8049L67.3437 44.9452C67.5699 44.8533 67.7746 44.7163 67.9477 44.5432L73.4896 39.0022C73.8357 38.6561 74.0303 38.1874 74.0303 37.6971C74.0303 37.2069 73.8357 36.7382 73.4896 36.392ZM47.0153 26.216L63.3809 42.5825L54.9019 46.0645L43.5339 34.6965L47.0153 26.216ZM26.0809 70.9419C26.0809 70.9419 26.0791 70.9419 26.0774 70.9419C24.0963 70.9401 22.2342 70.1687 20.8263 68.7591C18.4327 66.3648 18.0278 62.7319 19.5986 59.9109L29.6896 70.0019C28.5986 70.612 27.3665 70.9419 26.0809 70.9419ZM32.5012 67.5931L22.005 57.0967L41.3597 37.742L51.8561 48.2384L32.5012 67.5931ZM66.6449 40.6259L48.9722 22.9523L51.901 20.0229L69.5743 37.6971L66.6449 40.6259Z" />
</svg>
