<svg width="90" height="90" viewBox="0 0 90 90" fill="none" xmlns="http://www.w3.org/2000/svg">
<path d="M62.8205 29.8517C62.459 27.6438 60.4782 23.3576 55.5638 22.9394C54.9989 22.8801 54.4318 23.109 54.0461 23.5307C53.938 23.6497 53.2531 24.2427 52.5609 24.2427C52.5565 24.2427 52.5508 24.2427 52.5464 24.2427H52.1031C51.4481 24.2427 50.7883 23.7055 50.6034 23.5127C50.2212 23.0963 49.6625 22.8727 49.1037 22.9196C48.8905 22.9359 48.6829 22.9687 48.4749 23.0006C48.4599 22.8334 48.4463 22.6648 48.4286 22.5015C48.0718 20.2897 46.0954 16.0018 41.1728 15.5945C40.6141 15.5334 40.0517 15.764 39.6651 16.1804C39.5562 16.2995 38.855 16.8996 38.161 16.8996C38.1592 16.8996 38.1575 16.8996 38.1557 16.8996H37.7213C37.0624 16.896 36.4056 16.3588 36.2216 16.1677C35.8385 15.7478 35.2986 15.5334 34.7183 15.5712C29.7913 15.9442 27.7854 20.2575 27.3997 22.5791C26.4065 31.2164 29.2824 45.6033 29.3923 46.137C29.7573 48.4261 30.2889 50.4412 30.7585 52.2185C31.319 54.3416 31.8031 56.1748 31.7975 57.7197L31.7857 61.0525C31.7765 63.4804 32.7239 64.9096 33.5187 65.6813C35.2038 67.3142 37.3976 67.271 37.5822 67.2781H37.9617C37.9859 67.2799 38.0302 67.2799 38.0922 67.2799C38.6545 67.2799 40.6489 67.17 42.2018 65.683C43.0012 64.9187 43.9563 63.502 43.9655 61.0977L43.9773 57.7631C43.9794 57.1204 44.0638 56.4261 44.1979 55.6854C44.4971 57.0897 44.8332 58.3895 45.1454 59.5726C45.7041 61.6922 46.1873 63.5236 46.1781 65.0699V68.4045C46.1681 70.8289 47.1117 72.2563 47.9058 73.0294C49.4596 74.5398 51.4628 74.6337 51.8999 74.6337C51.9351 74.6337 51.9602 74.6319 51.9738 74.6319L52.3414 74.6302C52.5857 74.6464 54.863 74.6842 56.5907 73.0333C57.3919 72.2654 58.35 70.8469 58.3598 68.4299V65.1189C58.3689 63.5274 58.8562 61.642 59.4206 59.4612C59.8713 57.72 60.3822 55.7465 60.7407 53.5888C60.8648 52.9787 63.7587 38.5918 62.8205 29.8517ZM41.4643 51.189C40.8361 53.6095 40.2936 55.7005 40.2865 57.7498L40.2824 58.9205C39.64 58.3786 38.811 58.0507 37.9047 58.0507C36.9779 58.0507 36.133 58.3948 35.485 58.9589L35.4894 57.7318C35.4965 55.7022 34.9549 53.6512 34.3279 51.2755C33.8808 49.5829 33.3743 47.6615 33.0237 45.4808C32.9948 45.3384 30.1406 31.0632 31.0544 23.0945C31.0769 22.9592 31.6023 20.0071 34.2898 19.3618C35.0269 19.9152 36.223 20.5839 37.7053 20.5909H37.7133H38.1477C39.6058 20.6683 40.8353 19.9347 41.576 19.3869C44.1651 20.023 44.7266 22.7593 44.7718 22.9935C45.6406 31.0611 42.7738 45.3561 42.7331 45.5617C42.3881 47.6272 41.897 49.5197 41.4643 51.189ZM57.1123 52.9175C56.7688 54.9778 56.3004 56.7873 55.8479 58.5357C55.2215 60.9562 54.6808 63.0454 54.6693 65.1074V66.2586C54.0293 65.7262 53.2071 65.4051 52.3095 65.4051C51.3733 65.4051 50.521 65.7566 49.8704 66.331V65.0806C49.8822 63.0563 49.3414 61.0052 48.7159 58.6314C48.27 56.937 47.7644 55.0191 47.4174 52.8419C47.4112 52.8157 46.8754 50.1012 46.332 46.3992C46.3418 46.3425 46.3536 46.2894 46.363 46.2327C46.4682 45.7158 48.5703 35.228 48.6161 26.7297C48.6371 26.7244 48.6563 26.7156 48.6772 26.7105C49.4162 27.264 50.6185 27.9344 52.1037 27.9344H52.5246C53.99 28.0047 55.2218 27.2873 55.9646 26.7339C58.5529 27.3792 59.1188 30.1152 59.1648 30.3458C60.0278 38.4131 57.1527 52.7102 57.1123 52.9175Z" />
</svg>
