<svg width="90" height="89" viewBox="0 0 90 89" fill="none" xmlns="http://www.w3.org/2000/svg">
<path d="M74.008 39.2465L62.6265 29.2084L63.1297 28.7055C65.047 26.7855 65.047 23.663 63.1288 21.743C61.2668 19.8788 58.029 19.8788 56.1669 21.743L55.2278 22.6827L51.9038 19.751C51.172 19.1074 50.066 19.1399 49.3772 19.8304L39.2237 29.9857C38.5341 30.6745 38.4998 31.7814 39.1442 32.5114L42.076 35.836L17.0043 60.9077C15.087 62.8277 15.087 65.9503 17.0052 67.8702C17.965 68.8312 19.2252 69.3106 20.4863 69.3106C21.7473 69.3106 23.0072 68.8292 23.9673 67.8702L48.6017 43.235L58.6386 54.6159C58.9983 55.0253 59.5066 55.2415 60.024 55.2415C60.3161 55.2415 60.6117 55.173 60.884 55.0288C63.734 53.5253 66.3533 51.5909 68.6672 49.276C70.98 46.963 72.9153 44.3454 74.4197 41.4931C74.8175 40.7394 74.6471 39.8109 74.008 39.2465ZM58.7771 24.3534C59.2585 23.8738 60.0382 23.8738 60.5175 24.3534C60.998 24.8331 60.998 25.6154 60.5184 26.095L59.8521 26.7613L58.0016 25.1293L58.7771 24.3534ZM50.7615 23.6665L62.8424 34.3215C61.6909 36.1606 60.3441 37.8729 58.8043 39.4122C57.2647 40.9518 55.5524 42.2991 53.713 43.45L43.0595 31.3697L50.7615 23.6665ZM21.3566 65.2598C20.8752 65.7394 20.0955 65.7394 19.6162 65.2598C19.1357 64.7801 19.1357 63.9978 19.6153 63.5182L44.5225 38.6101L46.1549 40.4609L21.3566 65.2598ZM66.0565 46.6653C64.3503 48.3708 62.4602 49.8437 60.4212 51.0569L56.1932 46.2627C58.073 45.0359 59.8232 43.6154 61.4144 42.0229C63.0072 40.4308 64.4274 38.6809 65.6536 36.8014L70.4475 41.0297C69.2337 43.0687 67.7608 44.9597 66.0565 46.6653Z" />
</svg>
