<svg width="89" height="90" viewBox="0 0 89 90" fill="none" xmlns="http://www.w3.org/2000/svg">
<path d="M74.0428 25.2107C73.6598 23.7831 72.7431 22.5879 71.4625 21.8489L70.9374 21.5456L73.3237 17.4127L70.1258 15.5669L67.7395 19.6995L67.347 19.473C64.7017 17.9499 61.3092 18.8584 59.7844 21.5007L57.4079 25.6141C55.8819 28.2585 56.7915 31.651 59.4339 33.1794H59.4347L59.8261 33.4053L59.0502 34.7488L58.658 34.5223C56.0127 32.9992 52.6202 33.9095 51.0954 36.55L48.7189 40.6634C47.1938 43.3079 48.1034 46.7003 50.7457 48.2287H50.7466L51.1374 48.4543L44.7 59.6049L38.2629 48.4552L38.6536 48.2296H38.6545C41.2971 46.7009 42.2065 43.3084 40.6805 40.6643L38.3057 36.5509C36.7806 33.9083 33.3846 32.9963 30.7405 34.5232L30.3494 34.7488L29.5739 33.4056L29.9646 33.18H29.9655C32.6081 31.6513 33.5175 28.2588 31.9915 25.6147L29.6167 21.5013C28.0916 18.8569 24.6956 17.9467 22.0523 19.4736L21.6607 19.6998L19.2741 15.5669L16.0763 17.4127L18.4629 21.5459L17.9383 21.8489C16.6566 22.5879 15.7402 23.7831 15.3571 25.2107C14.975 26.6401 15.1714 28.1327 15.9106 29.4142L18.2854 33.5276C19.3093 35.3014 21.1749 36.2946 23.091 36.2946C24.0293 36.2946 24.98 36.0565 25.8497 35.5556L26.376 35.2517L27.1516 36.5949L26.6256 36.8985C23.9829 38.4272 23.0736 41.8197 24.5996 44.4638L26.9744 48.5772C27.9983 50.351 29.8639 51.3442 31.78 51.3442C32.7183 51.3442 33.669 51.1061 34.5387 50.6052L35.0647 50.3013L42.5677 63.2972L37.0886 72.7877L40.2865 74.6336L44.7 66.9895L49.1131 74.6336L52.311 72.7877L46.832 63.2972L54.3349 50.3013L54.8609 50.6052C55.7307 51.1064 56.6817 51.3442 57.6196 51.3442C59.5358 51.3442 61.4014 50.351 62.4253 48.5772L64.8001 44.4638C66.3261 41.8194 65.4164 38.4269 62.7732 36.8985L62.2478 36.5952L63.0236 35.2517L63.5499 35.5556C64.4197 36.0568 65.3695 36.2966 66.3077 36.2966C68.2239 36.2966 70.0886 35.3017 71.1125 33.5279L73.4891 29.4145C74.2283 28.1327 74.425 26.6401 74.0428 25.2107ZM21.4832 31.6818L19.1085 27.5684C18.8616 27.141 18.7957 26.6437 18.9236 26.1658C19.0515 25.69 19.3562 25.2916 19.7833 25.0465L23.8967 22.6708C24.187 22.5031 24.5042 22.4239 24.817 22.4239C25.4561 22.4239 26.0777 22.7556 26.4194 23.3469L28.7942 27.4603C29.3025 28.3418 28.9998 29.4721 28.1182 29.9821L24.0048 32.3578C23.1226 32.8699 21.9915 32.5633 21.4832 31.6818ZM30.1716 46.7317L27.7969 42.6182C27.2877 41.7367 27.5913 40.6047 28.4729 40.0964L32.5854 37.7207C32.8757 37.553 33.1929 37.4738 33.5065 37.4738C34.1448 37.4738 34.7673 37.8055 35.1081 38.3968L37.4829 42.5102C37.9921 43.3917 37.6885 44.5237 36.8078 45.032L32.6944 47.4077C31.8119 47.9195 30.6808 47.6129 30.1716 46.7317ZM61.6022 42.618L59.2274 46.7314C58.7183 47.6129 57.588 47.9174 56.7056 47.4074L52.5922 45.0317C51.7106 44.5234 51.4079 43.3914 51.9153 42.5099L54.2918 38.3965C54.8001 37.5149 55.9303 37.2104 56.8128 37.7204L60.9262 40.0961C61.8078 40.6047 62.1114 41.7367 61.6022 42.618ZM70.2924 27.5684L67.9158 31.6818C67.4067 32.5633 66.2773 32.866 65.3949 32.3578L61.2806 29.9821C60.3999 29.4738 60.0963 28.3418 60.6046 27.4603L62.9811 23.3469C63.4894 22.4653 64.6196 22.1608 65.5021 22.6708L69.6173 25.0465C70.0434 25.2916 70.3482 25.69 70.4761 26.1658C70.6043 26.6437 70.5384 27.1413 70.2924 27.5684Z" />
</svg>
