<svg width="89" height="89" viewBox="0 0 89 89" fill="none" xmlns="http://www.w3.org/2000/svg">
<path d="M73.6013 43.5878C74.0665 42.4755 73.8196 41.2012 72.974 40.345L60.1199 27.3178C57.7062 24.8754 54.3535 23.4729 50.9215 23.4729H46.8187V27.1646H50.9215C53.373 27.1646 55.7685 28.1669 57.4935 29.9118L69.1527 41.7278H19.4472L31.1082 29.9118C32.8314 28.1669 35.2272 27.1646 37.6784 27.1646H41.7812V23.4729H37.6784C34.2464 23.4729 30.8935 24.8754 28.48 27.3196L15.6259 40.345C14.7804 41.2012 14.5335 42.4755 14.9986 43.5878C15.2863 44.2762 15.8096 44.8125 16.4519 45.1226C15.7517 46.3639 15.459 47.8093 15.6416 49.2478L16.7213 57.7056C17.3179 62.3922 21.3306 65.9271 26.0532 65.9271H32.3621C37.0848 65.9271 41.0975 62.3922 41.6941 57.7073L42.301 52.9557C42.8589 52.4873 43.534 52.2204 44.3187 52.2543C45.0585 52.2617 45.7458 52.5189 46.3016 52.9802L46.9052 57.7053C47.5018 62.3919 51.5145 65.9268 56.2372 65.9268H62.5461C67.2688 65.9268 71.2815 62.3919 71.878 57.7071L72.9578 49.2458C73.1403 47.8084 72.8476 46.3636 72.1477 45.1223C72.79 44.8125 73.3134 44.2762 73.6013 43.5878ZM38.718 51.8615L38.0314 57.2404C37.669 60.0886 35.2319 62.2354 32.3621 62.2354H26.0532C23.1835 62.2354 20.7464 60.0886 20.384 57.2387L19.3043 48.7809C19.1944 47.9173 19.4502 47.0827 20.0252 46.4303C20.5984 45.7779 21.3935 45.4191 22.2603 45.4191H33.0488C34.6891 45.4191 36.252 46.1259 37.337 47.3568C38.4224 48.5898 38.9271 50.2322 38.718 51.8615ZM44.2898 48.5629C43.5644 48.5629 42.8509 48.6796 42.1728 48.8999C41.8648 47.6448 41.3013 46.4599 40.5036 45.4191H44.2337H44.3677H48.096C47.2966 46.4622 46.7325 47.6495 46.4247 48.907C45.7611 48.689 45.0624 48.5694 44.3509 48.5626C44.3314 48.5629 44.3099 48.5629 44.2898 48.5629ZM69.2951 48.7791L68.2153 57.2404C67.8529 60.0886 65.4158 62.2354 62.5461 62.2354H56.2372C53.3674 62.2354 50.9303 60.0886 50.568 57.2387L49.8813 51.8615C49.6722 50.2319 50.1769 48.5916 51.262 47.3568C52.3471 46.1256 53.91 45.4191 55.5502 45.4191H66.3388C67.2076 45.4191 68.0006 45.7779 68.5738 46.4286C69.1492 47.0813 69.4052 47.9176 69.2951 48.7791Z" />
</svg>
