<svg width="90" height="89" viewBox="0 0 90 89" fill="none" xmlns="http://www.w3.org/2000/svg">
<path d="M55.975 44.6999C55.975 33.5041 46.8666 24.3958 35.6709 24.3958C24.4751 24.3958 15.3667 33.5041 15.3667 44.6999C15.3667 55.8957 24.4751 65.0041 35.6709 65.0041C46.8666 65.0041 55.975 55.8957 55.975 44.6999ZM25.3085 57.6704L27.2949 55.6839C30.937 58.7291 35.4827 60.3895 40.2851 60.3895C40.5885 60.3895 40.89 60.3789 41.1909 60.3656C39.4626 60.9763 37.6053 61.3124 35.6706 61.3124C31.7539 61.3124 28.152 59.9468 25.3085 57.6704ZM47.1242 53.5153L38.2899 44.6896L44.0323 38.9474C46.387 41.8821 47.6688 45.4994 47.6688 49.3145C47.6688 50.748 47.4848 52.1506 47.1242 53.5153ZM44.5326 56.1423C43.157 56.51 41.7367 56.6978 40.2854 56.6978C36.4709 56.6978 32.8537 55.4161 29.919 53.0605L35.6809 47.2988L44.5326 56.1423ZM35.6785 42.0809L26.838 33.249C28.2037 32.8872 29.6139 32.702 31.0563 32.702C34.8711 32.702 38.4877 33.9834 41.4222 36.3376L35.6785 42.0809ZM24.2246 35.8538L33.0693 44.6899L27.3088 50.4501C24.9544 47.5153 23.6727 43.8987 23.6727 40.0853C23.6729 38.6406 23.8587 37.2277 24.2246 35.8538ZM51.3365 50.2203C51.3498 49.9193 51.3604 49.6178 51.3604 49.3145C51.3604 44.5121 49.7004 39.9663 46.6558 36.3243L48.6419 34.3381C50.9177 37.1813 52.2834 40.7832 52.2834 44.6999C52.2834 46.6349 51.9476 48.492 51.3365 50.2203ZM46.0314 31.7283L44.0453 33.7144C40.4039 30.6707 35.8581 29.0106 31.056 29.0106C30.7527 29.0106 30.4514 29.0213 30.1502 29.0343C31.8785 28.4235 33.7355 28.0877 35.6706 28.0877C39.587 28.0874 43.1886 29.4527 46.0314 31.7283ZM20.0049 39.1795C19.9916 39.4805 19.9813 39.782 19.9813 40.0853C19.9813 44.886 21.6414 49.4317 24.6854 53.0738L22.6986 55.0602C20.4234 52.2173 19.0584 48.616 19.0584 44.6999C19.0584 42.7649 19.3942 40.9078 20.0049 39.1795Z" />
<path d="M64.1764 70.5416L57.8235 64.202C63.1971 58.1267 65.8288 50.1949 65.0784 41.9315C63.7999 27.8535 52.2978 16.4422 38.2104 15.2723C30.0634 14.596 22.2654 17.1894 16.2692 22.4486C15.4523 23.1651 15.38 24.4106 16.1499 25.1778C16.8251 25.8506 17.9184 25.9185 18.6328 25.2877C23.8874 20.6459 30.7391 18.3556 37.8983 18.9513C50.2231 19.977 60.2839 29.9616 61.403 42.2782C62.1088 50.0481 59.3994 57.4837 53.9629 62.9288L46.0049 70.5416H15.3667V74.2333H46.7459H63.4124H74.4334V70.5416H64.1764Z" />
</svg>
