<svg width="89" height="89" viewBox="0 0 89 89" fill="none" xmlns="http://www.w3.org/2000/svg">
<path d="M66.6501 35.4708C66.6501 34.4505 65.8246 33.625 64.8043 33.625H24.1959C23.1756 33.625 22.3501 34.4505 22.3501 35.4708C22.3501 43.0461 26.1741 49.7425 31.991 53.7384L29.1835 63.1766C26.2925 63.3618 24.0034 65.7585 24.0034 68.6961C24.0034 71.7543 26.4827 74.2336 29.5409 74.2336C32.599 74.2336 35.0784 71.7543 35.0784 68.6961C35.0784 66.8296 34.1522 65.1826 32.7373 64.1793L33.0409 63.1583H56.4702L59.765 74.2333H63.617L57.4313 53.4377C63.0095 49.4117 66.6501 42.8607 66.6501 35.4708ZM26.1339 37.3167H62.8666C61.9383 46.6306 54.0556 53.9292 44.5004 53.9292C34.9452 53.9292 27.0621 46.6303 26.1339 37.3167ZM55.3728 59.4664H34.1395L35.2878 55.6061C38.0952 56.8955 41.2136 57.6205 44.5004 57.6205C47.9629 57.6205 51.2411 56.8208 54.1628 55.3982L55.3728 59.4664Z" />
<path d="M43.6512 23.473C43.6512 25.1295 43.2906 25.8794 42.8364 26.8277C42.4593 27.6147 42.0183 28.5471 41.7986 29.9334H45.5668C45.715 29.38 45.9241 28.9257 46.1642 28.4246C46.6887 27.3303 47.3432 25.9694 47.3432 23.473C47.3432 20.9765 46.6887 19.6156 46.1642 18.5214C45.71 17.5734 45.3494 16.8233 45.3494 15.1667H41.6577C41.6577 17.6632 42.3122 19.0241 42.8367 20.1183C43.2909 21.0666 43.6512 21.8165 43.6512 23.473Z" />
<path d="M36.0463 25.3188C36.0463 26.514 35.7976 27.0329 35.4533 27.7506C35.1807 28.3179 34.8797 29.0043 34.6878 29.9334H38.5171C38.5959 29.7414 38.683 29.5515 38.7808 29.3475C39.2081 28.4588 39.738 27.354 39.738 25.3188C39.738 23.2837 39.2081 22.1788 38.7808 21.2902C38.4364 20.5728 38.1878 20.0536 38.1878 18.8584H34.4961C34.4961 20.8935 35.0259 21.9984 35.4533 22.887C35.7973 23.6044 36.0463 24.1236 36.0463 25.3188Z" />
<path d="M50.7025 26.2418C50.7025 27.2061 50.5097 27.6063 50.2194 28.212C49.9994 28.6695 49.7584 29.2179 49.5868 29.9335H53.4893C53.5094 29.8913 53.5259 29.8532 53.5469 29.8092C53.9237 29.0251 54.3942 28.0463 54.3942 26.2418C54.3942 24.4374 53.9237 23.4586 53.5469 22.6745C53.2566 22.0688 53.0637 21.6686 53.0637 20.7043H49.3721C49.3721 22.5088 49.8425 23.4876 50.2194 24.2717C50.5097 24.8771 50.7025 25.2773 50.7025 26.2418Z" />
</svg>
