<svg width="90" height="89" viewBox="0 0 90 89" fill="none" xmlns="http://www.w3.org/2000/svg">
<path d="M72.023 32.6552L74.6331 30.0451L72.9627 28.3746L73.1453 28.1921C73.8662 27.4712 73.8662 26.3032 73.1453 25.582L64.2188 16.6538C63.8727 16.3076 63.4031 16.113 62.9137 16.113C62.4244 16.113 61.9548 16.3076 61.6086 16.6538L61.4252 16.8372L59.7548 15.1667L57.1447 17.7769L58.8151 19.4473L56.9622 21.3002L55.2918 19.6298L52.6816 22.24L54.7162 24.2745L52.3355 29.0356C52.1048 29.4972 52.0862 30.0199 52.2534 30.4848L46.0378 36.7007C42.0012 35.0253 37.6146 35.6906 34.78 38.5244C34.1149 39.1895 33.547 39.9683 33.0818 40.8622C32.3789 42.2574 30.9025 43.1192 29.207 43.1192C29.1601 43.1192 29.1143 43.1192 29.0656 43.1192C25.3163 43.1192 21.8896 44.4818 19.4102 46.9623C16.6406 49.7329 15.2912 53.5686 15.6131 57.7668C15.9259 61.8604 17.8033 65.8188 20.8984 68.9139C24.4161 72.4328 28.9377 74.2334 33.2377 74.2334C36.8358 74.2334 40.2785 72.9718 42.8491 70.4012C45.3446 67.9065 46.7103 64.449 46.6931 60.6528C46.6716 58.9458 47.5366 57.4425 48.9743 56.7178C49.8405 56.2653 50.6172 55.6995 51.2853 55.0323C54.1211 52.1965 54.7856 47.8094 53.111 43.7742L59.3343 37.5507C59.5292 37.6183 59.7324 37.6593 59.9388 37.6593C60.2182 37.6593 60.5011 37.5961 60.7634 37.4647L65.5251 35.0837L67.5602 37.1189L70.1704 34.5087L68.4994 32.8377L70.3526 30.9848L72.023 32.6552ZM34.1057 53.3433C34.7366 53.3433 35.3296 53.5884 35.775 54.0356C36.6961 54.9567 36.6961 56.4546 35.7758 57.3776C34.8547 58.2969 33.355 58.2969 32.4356 57.3776C31.5145 56.4564 31.5145 54.9567 32.4356 54.0356C32.881 53.5884 33.474 53.3433 34.1057 53.3433ZM39.2091 52.4561C38.9767 52.0911 38.7052 51.7441 38.3869 51.4254C38.0706 51.1091 37.7191 50.841 37.3467 50.6124L54.7365 33.2217L56.5895 35.0749L39.2091 52.4561ZM48.676 52.4204C48.2749 52.8223 47.8009 53.1667 47.2906 53.4316C44.6057 54.7836 42.9616 57.5686 43.0015 60.6853C43.0142 63.5134 42.0588 65.9724 40.2389 67.791C36.0372 71.991 28.5313 71.3259 23.5083 66.304C21.036 63.8327 19.5399 60.6998 19.2939 57.486C19.0558 54.3785 20.0239 51.5681 22.0204 49.5728C23.8284 47.7648 26.2629 46.8111 29.0514 46.8111H29.1137C32.2005 46.8274 35.0281 45.2069 36.3674 42.5444C36.6468 42.009 36.9902 41.535 37.3895 41.1366C38.8172 39.7104 40.9353 39.1977 43.101 39.6381L32.9164 49.8232C31.7667 50.04 30.6769 50.574 29.8243 51.4257C27.4657 53.7872 27.4657 57.6265 29.8252 59.988C31.0059 61.1688 32.5561 61.7582 34.1054 61.7582C35.6556 61.7582 37.2058 61.1688 38.3866 59.988H38.3875C39.2788 59.0955 39.8322 57.9919 40.0499 56.8368L50.1739 46.7125C50.6128 48.8779 50.1013 50.9957 48.676 52.4204ZM60.3018 33.5675L56.2324 29.4972L58.4784 25.0052L62.9137 20.569L69.23 26.8871L64.7956 31.3197L60.3018 33.5675Z" />
</svg>
