<svg width="89" height="89" viewBox="0 0 89 89" fill="none" xmlns="http://www.w3.org/2000/svg">
<path d="M74.2083 57.1988C74.1002 56.5482 73.6522 56.0036 73.0341 55.773L66.0175 53.1501C62.3536 51.7874 59.8914 48.2325 59.8914 44.3049H59.8852V39.5804C59.8852 31.2074 53.0734 24.3953 44.7004 24.3953C36.3283 24.3953 29.5164 31.2071 29.5164 39.5804V44.3049H29.5093C29.5093 48.2328 27.048 51.7874 23.3814 53.1519L16.3667 55.773C15.7483 56.0036 15.3005 56.5482 15.1924 57.1988C15.0844 57.8515 15.3321 58.511 15.8422 58.9292C16.4633 59.4374 17.0968 59.9295 17.7456 60.4073C24.2547 65.1932 33.0459 66.298 41.8669 63.4484C43.6965 62.8571 45.7101 62.8571 47.5344 63.4484C50.7529 64.4903 53.967 65.0039 57.0683 65.0039C62.467 65.0039 67.5234 63.4466 71.6584 60.4055C72.3055 59.9298 72.9401 59.4374 73.5601 58.9274C74.0695 58.5092 74.3164 57.8497 74.2083 57.1988ZM44.7001 28.0872C51.037 28.0872 56.1933 33.2426 56.1933 39.5804V44.3049H47.9851H47.9789H33.2075V39.5804C33.2078 33.2426 38.3631 28.0872 44.7001 28.0872ZM48.6711 59.9369C46.115 59.1093 43.2993 59.104 40.7308 59.9351C33.4556 62.2856 26.2677 61.5916 20.8212 58.0497L24.6715 56.6111C28.5867 55.153 31.5087 51.8988 32.6593 47.9965H43.5016L39.2707 52.2003L41.8717 54.8196L47.9697 48.7611L54.0273 54.861L56.6466 52.2579L52.4142 47.9965H56.7405C57.8911 51.8988 60.8135 55.1525 64.7272 56.6093L68.5793 58.0497C63.1306 61.5916 55.9428 62.2895 48.6711 59.9369Z" />
</svg>
