<svg width="89" height="89" viewBox="0 0 89 89" fill="none" xmlns="http://www.w3.org/2000/svg">
<path d="M71.3672 52.5086V47.7714C71.3672 32.8461 59.2252 20.7041 44.2999 20.7041C29.3747 20.7041 17.2326 32.8461 17.2326 47.7714V52.5088C15.727 53.7741 14.7666 55.6683 14.7666 57.7844C14.7666 61.5824 17.8582 64.6739 21.657 64.6739H23.787V65.0041C23.787 67.0428 25.4397 68.6958 27.4786 68.6958H30.1839C32.2226 68.6958 33.8756 67.0428 33.8756 65.0041V50.5629C33.8756 48.5242 32.2226 46.8712 30.1839 46.8712H27.4786C25.4397 46.8712 23.787 48.5242 23.787 50.5629V50.8934H21.657C21.4095 50.8934 21.1653 50.9078 20.9243 50.9335V47.7714C20.9243 34.8813 31.4107 24.3958 44.2999 24.3958C57.1892 24.3958 67.6756 34.8813 67.6756 47.7714V50.9329C67.4349 50.9073 67.1909 50.8931 66.9437 50.8931H64.8135V50.5626C64.8135 48.5239 63.1608 46.8709 61.1218 46.8709H58.4166C56.3779 46.8709 54.7249 48.5239 54.7249 50.5626V65.0038C54.7249 67.0425 56.3779 68.6955 58.4166 68.6955H61.1218C63.1608 68.6955 64.8135 67.0425 64.8135 65.0038V64.6736H66.9437C70.7426 64.6736 73.8333 61.5821 73.8333 57.7841C73.8333 55.668 72.8731 53.7735 71.3672 52.5086ZM23.7867 54.5847V60.982H21.6567C19.893 60.982 18.458 59.5472 18.458 57.7841C18.458 56.0195 19.8927 54.5844 21.6567 54.5844H23.7867V54.5847ZM66.9437 60.9823H64.8135V54.5847H66.9437C68.7066 54.5847 70.1416 56.0195 70.1416 57.7844C70.1416 59.5472 68.7069 60.9823 66.9437 60.9823Z" />
</svg>
