<svg width="90" height="89" viewBox="0 0 90 89" fill="none" xmlns="http://www.w3.org/2000/svg">
<path d="M44.9 15.1667C28.6156 15.1667 15.3667 28.5994 15.3667 45.1091V49.1487C15.3667 50.1691 16.193 50.9945 17.2125 50.9945H26.4119V58.7131C26.4119 67.2715 33.2849 74.2331 41.7329 74.2331C49.5123 74.2331 56.0409 68.2889 56.9461 60.5536L65.5468 54.0568H72.5878C73.6073 54.0568 74.4337 53.2314 74.4337 52.211V45.1088C74.4334 28.5994 61.1844 15.1667 44.9 15.1667ZM41.7329 70.5418C35.3203 70.5418 30.1035 65.2349 30.1035 58.7134V50.9948H44.6797L53.2488 60.2869C52.4874 66.0958 47.5802 70.5418 41.7329 70.5418ZM47.7958 48.9278C49.9629 45.5693 52.0831 43.7414 53.9671 43.6313C55.7004 43.5628 57.5037 44.7975 59.5559 47.4995C60.6463 48.9355 61.7411 50.6017 62.4724 51.7541L55.3581 57.1271L47.7958 48.9278ZM70.7417 50.3655H65.9611C65.232 49.1956 63.879 47.0884 62.4957 45.2677C59.6404 41.5093 56.7825 39.7789 53.7515 39.9464C50.4798 40.1375 47.4307 42.5474 44.4502 47.3026H19.0584V45.1088C19.0584 30.6342 30.6508 18.8581 44.9 18.8581C59.1493 18.8581 70.7417 30.6342 70.7417 45.1088V50.3655Z" />
</svg>
