<svg width="89" height="89" viewBox="0 0 89 89" fill="none" xmlns="http://www.w3.org/2000/svg">
<path d="M72.1876 44.7001H57.421V20.7042C57.421 19.6839 56.5946 18.8584 55.5751 18.8584H53.0243H50.7429H49.3327H47.0512H45.641H43.3596H41.9493H39.6679H38.2577H35.9762H33.4251C32.4056 18.8584 31.5793 19.6839 31.5793 20.7042V52.0834H16.8126C15.7931 52.0834 14.9668 52.9089 14.9668 53.9292V72.3876C14.9668 73.4079 15.7931 74.2334 16.8126 74.2334H22.3501H27.8876H33.4251H40.8085H48.1918H55.5751H61.1126H66.6501H72.1876C73.2071 74.2334 74.0335 73.4079 74.0335 72.3876V46.5459C74.0335 45.5255 73.2071 44.7001 72.1876 44.7001ZM22.3501 63.1584V70.5417H18.6585V55.7751H31.5793V70.5417H27.8876V63.1584H22.3501ZM53.7293 70.5417H48.1918V63.1584H40.8085V70.5417H35.271V22.5501H53.7293V70.5417ZM70.3418 70.5417H66.6501V63.1584H61.1126V70.5417H57.421V48.3917H70.3418V70.5417Z" />
<path d="M38.0396 35.4709H43.5771V42.8543H38.0396V35.4709Z" />
<path d="M45.4229 35.4709H50.9604V42.8543H45.4229V35.4709Z" />
<path d="M38.0396 26.2417H43.5771V33.625H38.0396V26.2417Z" />
<path d="M45.4229 26.2417H50.9604V33.625H45.4229V26.2417Z" />
<path d="M38.0396 44.7H43.5771V52.0833H38.0396V44.7Z" />
<path d="M45.4229 44.7H50.9604V52.0833H45.4229V44.7Z" />
<path d="M38.0396 53.9292H43.5771V61.3125H38.0396V53.9292Z" />
<path d="M45.4229 53.9292H50.9604V61.3125H45.4229V53.9292Z" />
<path d="M38.2577 18.8584L38.0397 17.5226L38.9627 16.577L37.6871 16.382L37.1168 15.1667L36.5465 16.382L35.271 16.577L36.1939 17.5226L35.976 18.8584L37.1168 18.2279L38.2577 18.8584Z" />
<path d="M39.6674 18.8584L40.8082 18.2279L41.9491 18.8584L41.7312 17.5226L42.6541 16.577L41.3785 16.382L40.8082 15.1667L40.2379 16.382L38.9624 16.577L39.8853 17.5226L39.6674 18.8584Z" />
<path d="M43.3593 18.8584L44.5001 18.2279L45.641 18.8584L45.423 17.5226L46.346 16.577L45.0704 16.382L44.5001 15.1667L43.9298 16.382L42.6543 16.577L43.5772 17.5226L43.3593 18.8584Z" />
<path d="M47.0511 18.8584L48.192 18.2279L49.3329 18.8584L49.1149 17.5226L50.0378 16.577L48.7623 16.382L48.192 15.1667L47.6217 16.382L46.3462 16.577L47.2691 17.5226L47.0511 18.8584Z" />
<path d="M50.7426 18.8584L51.8834 18.2279L53.0243 18.8584L52.8063 17.5226L53.7293 16.577L52.4537 16.382L51.8834 15.1667L51.3131 16.382L50.0376 16.577L50.9605 17.5226L50.7426 18.8584Z" />
</svg>
