<svg width="90" height="89" viewBox="0 0 90 89" fill="none" xmlns="http://www.w3.org/2000/svg">
<path d="M59.8663 34.6218C59.8663 32.2609 58.7833 30.0716 57.0344 28.6224C57.0929 28.144 57.1256 27.6691 57.1256 27.2004C57.1256 20.5654 51.7349 15.1667 45.1088 15.1667C38.4727 15.1667 33.074 20.5654 33.074 27.2007C33.074 27.2855 33.0796 27.372 33.0811 27.4576C31.3345 29.2246 30.333 31.6142 30.333 34.1785C30.333 35.3773 30.5539 36.5356 30.97 37.6171C30.8094 38.0294 30.8005 38.4919 30.9559 38.9175L43.3684 73.0184C43.6333 73.7485 44.3265 74.2334 45.1026 74.2334C45.8788 74.2334 46.5716 73.7485 46.8368 73.0184L59.2491 38.9175C59.3982 38.5066 59.3908 38.0628 59.2464 37.6617C59.6513 36.7057 59.8663 35.6818 59.8663 34.6218ZM34.0247 34.1785C34.0247 32.1363 35.0539 30.2707 36.7979 29.1765C37.7326 28.5725 38.8295 28.2536 39.9686 28.2536C43.2358 28.2536 45.8935 30.9124 45.8935 34.1785C45.8935 34.786 45.8088 35.3664 45.6457 35.8965C45.5846 36.0914 45.5111 36.266 45.4381 36.4408H34.47C34.1768 35.7379 34.0247 34.9736 34.0247 34.1785ZM49.242 31.6703C49.9786 30.9627 50.9765 30.5247 52.0763 30.5247C52.5613 30.5247 53.0424 30.6112 53.4922 30.7825C55.0964 31.3684 56.1744 32.9113 56.1744 34.6218C56.1744 35.3457 55.9886 35.9529 55.7479 36.4405H49.3176C49.4925 35.7128 49.5849 34.955 49.5849 34.1782C49.5855 33.3097 49.4591 32.4715 49.242 31.6703ZM45.1088 18.8584C49.6153 18.8584 53.2887 22.4674 53.4213 26.952C52.9792 26.8744 52.5273 26.833 52.0766 26.833C50.3906 26.833 48.8315 27.3761 47.5554 28.2902C45.7943 26.0265 43.0521 24.5619 39.9688 24.5619C38.9715 24.5619 37.9942 24.7184 37.0672 25.0111C38.0323 21.4715 41.2674 18.8584 45.1088 18.8584ZM45.1023 66.9907L35.3262 40.1325H54.8779L45.1023 66.9907Z" />
</svg>
