<svg width="89" height="89" viewBox="0 0 89 89" fill="none" xmlns="http://www.w3.org/2000/svg">
<path d="M65.9268 42.4541C69.4888 42.4541 72.3872 39.5557 72.3872 35.9937V30.4562C72.3872 26.8942 69.4888 23.9958 65.9268 23.9958H65.0039V16.6124C65.0039 15.5921 64.1784 14.7666 63.158 14.7666H55.7747C54.7543 14.7666 53.9289 15.5921 53.9289 16.6124V23.9958H35.4705V16.6124C35.4705 15.5921 34.6451 14.7666 33.6247 14.7666H26.2414C25.221 14.7666 24.3955 15.5921 24.3955 16.6124V23.9958H23.4726C19.9106 23.9958 17.0122 26.8942 17.0122 30.4562V35.9937C17.0122 39.5557 19.9106 42.4541 23.4726 42.4541H24.3955V49.8374H23.4726C19.9106 49.8374 17.0122 52.7358 17.0122 56.2979V61.8354C17.0122 65.3974 19.9106 68.2958 23.4726 68.2958H24.4694C24.9198 71.421 27.6082 73.8333 30.856 73.8333H58.5435C61.7912 73.8333 64.4797 71.421 64.93 68.2958H65.9268C69.4888 68.2958 72.3872 65.3974 72.3872 61.8354V56.2979C72.3872 52.7358 69.4888 49.8374 65.9268 49.8374H65.0039V42.4541H65.9268ZM57.6205 18.4583H61.3122V23.9958H57.6205V18.4583ZM31.7789 18.4583V23.9958H28.0872V18.4583H31.7789ZM20.7039 35.9937V30.4562C20.7039 28.9293 21.9458 27.6874 23.4726 27.6874H65.9268C67.4537 27.6874 68.6955 28.9293 68.6955 30.4562V35.9937C68.6955 37.5206 67.4537 38.7624 65.9268 38.7624H23.4726C21.9458 38.7624 20.7039 37.5206 20.7039 35.9937ZM55.6081 42.4541C54.7251 47.6836 50.1767 51.6833 44.6997 51.6833C39.2227 51.6833 34.6743 47.6836 33.7913 42.4541H55.6081ZM20.7039 61.8354V56.2979C20.7039 54.771 21.9458 53.5291 23.4726 53.5291H24.3955V64.6041H23.4726C21.9458 64.6041 20.7039 63.3622 20.7039 61.8354ZM65.9268 53.5291C67.4537 53.5291 68.6955 54.771 68.6955 56.2979V61.8354C68.6955 63.3622 67.4537 64.6041 65.9268 64.6041H65.0039V53.5291H65.9268ZM61.3122 67.3728C61.3122 68.8997 60.0703 70.1416 58.5435 70.1416H30.856C29.3291 70.1416 28.0872 68.8997 28.0872 67.3728V42.4541H30.0526C30.6504 47.2234 33.5287 51.2922 37.5612 53.5291H34.1782C33.3627 53.5291 32.7015 54.1904 32.7015 55.0058V66.8191C32.7015 67.6345 33.3627 68.2958 34.1782 68.2958H55.2207C56.0361 68.2958 56.6973 67.6345 56.6973 66.8191V55.0058C56.6973 54.1904 56.0361 53.5291 55.2207 53.5291H51.8388C55.8713 51.2922 58.7493 47.2234 59.3474 42.4541H61.3128V67.3728H61.3122Z" />
</svg>
