<svg width="89" height="89" viewBox="0 0 89 89" fill="none" xmlns="http://www.w3.org/2000/svg">
<path d="M72.3873 33.625H67.5197L45.8824 15.594C45.1975 15.0243 44.2025 15.0243 43.5173 15.594L21.88 33.625H17.0123C15.992 33.625 15.1665 34.4505 15.1665 35.4708V72.3875C15.1665 73.4079 15.992 74.2333 17.0123 74.2333H72.3873C73.4077 74.2333 74.2332 73.4079 74.2332 72.3875V35.4708C74.2332 34.4505 73.4077 33.625 72.3873 33.625ZM44.6998 19.4153L61.7503 33.625H27.6494L44.6998 19.4153ZM70.5415 70.5417H18.8582V37.3167H70.5415V70.5417Z" />
<path d="M27.4115 63.2931C27.0816 63.8645 27.0816 64.5674 27.4115 65.1389C27.7414 65.7104 28.3506 66.0618 29.0104 66.0618H60.3896C61.0458 66.0618 61.6533 65.7139 61.9832 65.146C62.3148 64.578 62.3202 63.8787 61.9959 63.3072L50.5172 43.0031C50.1944 42.4316 49.5907 42.0731 48.9327 42.0657C48.3217 42.1215 47.6637 42.4009 47.3267 42.9653L40.1146 55.0317L37.5875 51.066C37.2396 50.5217 36.6465 50.1989 35.9903 50.2116C35.345 50.226 34.7538 50.5757 34.431 51.1345L27.4115 63.2931ZM48.8657 47.5837L57.226 62.3701H44.7901L42.3332 58.5146L48.8657 47.5837ZM36.107 55.6141L40.4115 62.3701H32.208L36.107 55.6141Z" />
<path d="M30.8557 49.18C32.8946 49.18 34.5474 47.5272 34.5474 45.4883C34.5474 43.4494 32.8946 41.7966 30.8557 41.7966C28.8169 41.7966 27.1641 43.4494 27.1641 45.4883C27.1641 47.5272 28.8169 49.18 30.8557 49.18Z" />
</svg>
