<svg width="89" height="89" viewBox="0 0 89 89" fill="none" xmlns="http://www.w3.org/2000/svg">
<path d="M60.1503 33.9827C63.2086 33.9827 65.6878 31.5035 65.6878 28.4452C65.6878 25.3869 63.2086 22.9077 60.1503 22.9077C57.092 22.9077 54.6128 25.3869 54.6128 28.4452C54.6128 31.5035 57.092 33.9827 60.1503 33.9827Z" />
<path d="M69.8244 18.7685C64.4889 13.433 55.8058 13.433 50.4703 18.7685C45.6747 23.5632 45.2034 31.0537 49.0267 36.3966L14.7666 70.673L17.3768 73.2832L22.2099 68.4477L27.5956 73.8334L30.2057 71.2232L24.8195 65.8369L27.2317 63.4235L34.2932 70.484L36.9033 67.8738L29.8413 60.8124L32.2539 58.3987L35.9677 62.1125L38.5779 59.5023L34.8631 55.7876L51.5513 39.0915C54.0495 41.1113 57.0982 42.1237 60.1472 42.1237C63.6514 42.1237 67.1567 40.7897 69.8244 38.122C72.4092 35.5378 73.8333 32.1022 73.8333 28.4465C73.8333 24.7891 72.4092 21.3532 69.8244 18.7685ZM67.2143 35.5124C63.317 39.4096 56.9774 39.4096 53.0802 35.5124C49.1839 31.6152 49.1839 25.2755 53.0802 21.3783C55.0288 19.4297 57.5876 18.4563 60.1472 18.4563C62.7069 18.4563 65.2656 19.4297 67.2143 21.3783C69.1023 23.2655 70.1416 25.7767 70.1416 28.4462C70.1416 31.1143 69.1023 33.6252 67.2143 35.5124Z" />
</svg>
