<svg width="90" height="89" viewBox="0 0 90 89" fill="none" xmlns="http://www.w3.org/2000/svg">
<path d="M44.9 14.7668C28.6156 14.7668 15.3667 28.0158 15.3667 44.3002C15.3667 60.5846 28.6156 73.8335 44.9 73.8335C61.1844 73.8335 74.4334 60.5846 74.4334 44.3002C74.4334 28.0158 61.1844 14.7668 44.9 14.7668ZM60.641 49.5993C61.2033 47.934 61.5125 46.1531 61.5125 44.3002C61.5125 42.4473 61.203 40.6667 60.641 39.001L67.6289 32.0131C69.6135 35.6697 70.7417 39.8554 70.7417 44.3002C70.7417 48.7449 69.6132 52.9307 67.6289 56.5872L60.641 49.5993ZM31.9792 44.3002C31.9792 37.1764 37.7754 31.3793 44.9 31.3793C52.0247 31.3793 57.8209 37.1764 57.8209 44.3002C57.8209 51.4239 52.0247 57.221 44.9 57.221C37.7754 57.221 31.9792 51.4239 31.9792 44.3002ZM57.1871 21.5716L50.1992 28.5595C48.5335 27.9972 46.7527 27.6877 44.9 27.6877C43.0474 27.6877 41.2665 27.9972 39.6009 28.5595L32.613 21.5713C36.2695 19.587 40.4553 18.4585 44.9 18.4585C49.3448 18.4585 53.5306 19.587 57.1871 21.5716ZM22.1715 32.0131L29.1594 39.001C28.597 40.6667 28.2875 42.4476 28.2875 44.3002C28.2875 46.1528 28.597 47.934 29.1594 49.5993L22.1715 56.5872C20.1868 52.9307 19.0584 48.7449 19.0584 44.3002C19.0584 39.8554 20.1868 35.6694 22.1715 32.0131ZM32.613 67.029L39.6009 60.0412C41.2663 60.6035 43.0471 60.913 44.9 60.913C46.753 60.913 48.5338 60.6035 50.1992 60.0412L57.1871 67.029C53.5309 69.0134 49.3448 70.1418 44.9 70.1418C40.4553 70.1418 36.2695 69.0134 32.613 67.029Z" />
</svg>
