<svg width="89" height="89" viewBox="0 0 89 89" fill="none" xmlns="http://www.w3.org/2000/svg">
<path d="M44.4811 14.7668C29.2251 14.7668 16.8125 26.525 16.8125 40.978V68.1481C16.8125 68.7446 17.101 69.3052 17.5866 69.6513C24.9844 74.9239 34.5523 75.198 41.3975 70.3362C41.886 69.9883 42.1754 69.426 42.1737 68.8256L42.1695 67.1743H46.7702V68.8309C46.7702 69.4274 47.0597 69.988 47.5455 70.3341C50.7614 72.6241 54.5971 73.8335 58.6385 73.8335C63.1016 73.8335 67.6397 72.3483 71.4152 69.6498C71.9001 69.3037 72.1875 68.7449 72.1875 68.1483V40.9783C72.1875 26.525 59.767 14.7668 44.4811 14.7668ZM42.1607 63.4833L42.1542 60.8406H46.7705V63.4833H42.1607ZM42.1367 53.8935C42.135 53.1165 41.6456 52.4227 40.9129 52.1614C36.9858 50.7571 34.3479 47.0043 34.3479 42.8241C34.3479 37.3389 38.811 32.8758 44.2962 32.8758C49.7823 32.8758 54.2454 37.3389 54.2454 42.8241C54.2454 46.9375 51.7705 50.5663 47.9409 52.0713C47.2351 52.3489 46.7702 53.0302 46.7702 53.7892V57.1493H42.1447L42.1367 53.8935ZM68.4958 67.1711C62.917 70.7582 55.6742 71.0899 50.4619 67.8436V67.1749H52.3807V63.4833H50.4619V60.8406H52.3807V57.149H50.4619V54.9842C55.0422 52.6788 57.9371 48.0353 57.9371 42.8241C57.9371 35.3037 51.8175 29.1841 44.2962 29.1841C36.775 29.1841 30.6562 35.3037 30.6562 42.8241C30.6562 48.1147 33.7386 52.9077 38.4477 55.1321L38.4528 57.1493H36.2215V60.8409H38.4619L38.4684 63.4836H36.2215V67.1752H38.4776L38.4793 67.8439C33.223 71.0993 26.213 70.8415 20.5042 67.1696V40.9783C20.5042 28.5601 31.2602 18.4585 44.5 18.4585C57.7318 18.4585 68.4958 28.5601 68.4958 40.978V67.1711Z" />
</svg>
