<svg width="90" height="89" viewBox="0 0 90 89" fill="none" xmlns="http://www.w3.org/2000/svg">
<path d="M38.9657 27.0352H51.2341C52.2536 27.0352 53.0799 26.2098 53.0799 25.1894V22.747C53.0799 18.3468 49.4999 14.7671 45.1 14.7671C40.7001 14.7671 37.1201 18.3471 37.1201 22.747V25.1894C37.1198 26.2095 37.9465 27.0352 38.9657 27.0352ZM40.8115 22.7467C40.8115 20.3817 42.7347 18.4585 45.0997 18.4585C47.4648 18.4585 49.388 20.3817 49.388 22.7467V23.3433H40.8115V22.7467Z" />
<path d="M71.9739 20.36L56.1423 28.1323C54.7657 28.808 54.7657 30.7705 56.1423 31.4462L71.9736 39.2182C73.2001 39.8204 74.6328 38.9276 74.6328 37.5614V22.0168C74.6331 20.6506 73.2001 19.7578 71.9739 20.36Z" />
<path d="M34.0572 28.1323L18.2256 20.36C16.9994 19.7578 15.5664 20.6506 15.5664 22.0168V37.5611C15.5664 38.9273 16.9991 39.8201 18.2256 39.2179L34.0569 31.4459C35.4338 30.7705 35.4338 28.808 34.0572 28.1323Z" />
<path d="M56.3983 64.6542L53.0669 36.3308C52.9579 35.4026 52.1703 34.7012 51.2338 34.7012H38.9653C38.0288 34.7012 37.2412 35.4023 37.1322 36.3308L33.7997 64.6548C31.5091 66.3284 29.5602 68.5089 28.1437 71.1043C27.8319 71.6757 27.8446 72.3698 28.1771 72.9303C28.5097 73.4891 29.1127 73.8334 29.7642 73.8334H60.434C61.0855 73.8334 61.6886 73.4891 62.0211 72.9303C62.3537 72.3698 62.3664 71.6757 62.0545 71.1043C60.6384 68.5086 58.6895 66.3281 56.3983 64.6542ZM40.6068 38.3931H49.5926L52.4172 62.4093C50.963 61.8048 49.4325 61.3757 47.854 61.1444V59.5496C47.854 58.0301 46.6183 56.7954 45.0997 56.7954C43.5802 56.7954 42.3445 58.0301 42.3445 59.5496V61.1444C40.766 61.3754 39.2356 61.8048 37.7813 62.4093L40.6068 38.3931ZM33.2622 70.1418C36.2119 66.6825 40.5158 64.6314 45.0997 64.6314C49.6836 64.6314 53.9872 66.6828 56.9364 70.1418H33.2622Z" />
</svg>
