<svg width="89" height="89" viewBox="0 0 89 89" fill="none" xmlns="http://www.w3.org/2000/svg">
<path d="M58.9494 29.0627C54.9666 29.0627 51.7256 32.3037 51.7256 36.2875C51.7256 40.2695 54.9666 43.5104 58.9494 43.5104C62.9323 43.5104 66.1733 40.2695 66.1733 36.2875C66.173 32.3037 62.932 29.0627 58.9494 29.0627ZM58.9494 39.8188C57.0017 39.8188 55.4173 38.2343 55.4173 36.2875C55.4173 34.3389 57.0017 32.7544 58.9494 32.7544C60.8972 32.7544 62.4816 34.3389 62.4816 36.2875C62.4813 38.2343 60.8969 39.8188 58.9494 39.8188Z" />
<path d="M69.7613 25.6994C63.8003 19.7366 54.0989 19.7366 48.1376 25.6994C42.1766 31.6604 42.1766 41.3618 48.1376 47.3231L55.2773 54.5009H44.6686C41.1193 54.5009 38.2316 57.3869 38.2316 60.9362C38.2316 62.4504 37.0003 63.6816 35.487 63.6816H27.8219L30.4681 61.0354C33.9699 57.5337 33.9699 51.8615 30.4681 48.36C26.9664 44.8585 21.2942 44.8582 17.7927 48.36C14.2912 51.8618 14.291 57.5339 17.7927 61.0354L24.1306 67.3733L24.1397 67.3641V67.3733H35.4879C39.0372 67.3733 41.9241 64.4855 41.9241 60.9362C41.9241 59.4238 43.1553 58.1925 44.6695 58.1925H58.9504L69.7622 47.3231C75.7235 41.3618 75.7235 31.6604 69.7613 25.6994ZM20.5449 54.5481C20.5449 52.5679 22.1501 50.9628 24.1303 50.9628C26.1105 50.9628 27.7156 52.5679 27.7156 54.5481C27.7156 56.5283 26.1102 58.1335 24.1303 58.1335C22.1501 58.1335 20.5449 56.5283 20.5449 54.5481ZM67.1515 44.7129L58.9498 52.9146L50.7481 44.7129C46.2262 40.1902 46.2262 32.8323 50.7481 28.3095C53.0094 26.0491 55.979 24.917 58.9498 24.917C61.9205 24.917 64.8901 26.0491 67.1515 28.3095C71.6739 32.832 71.6739 40.1902 67.1515 44.7129Z" />
</svg>
