<svg width="89" height="89" viewBox="0 0 89 89" fill="none" xmlns="http://www.w3.org/2000/svg">
<path d="M44.3001 33.2251L49.7062 27.819C52.6932 24.832 52.6932 19.9939 49.7062 17.0069C46.7192 14.0199 41.8811 14.0199 38.8941 17.0069C35.9071 19.9939 35.9071 24.832 38.8941 27.819L44.3001 33.2251ZM44.3001 19.2275C45.9891 19.2275 47.3583 20.5966 47.3583 22.2856C47.3583 23.9747 45.9891 25.3438 44.3001 25.3438C42.6111 25.3438 41.242 23.9747 41.242 22.2856C41.242 20.5966 42.6111 19.2275 44.3001 19.2275Z" />
<path d="M72.9659 41.0047L59.1224 32.3526C58.551 31.9958 57.8336 31.9796 57.2494 32.3021C57.2199 32.3184 57.1983 32.3435 57.17 32.3612L57.1647 32.3526L44.2999 40.3931L31.4349 32.3526C30.8635 31.9958 30.1461 31.9796 29.5619 32.3021C29.533 32.3184 29.507 32.3381 29.4792 32.3556L29.4775 32.3526L15.6337 41.005C15.0947 41.342 14.7666 41.9332 14.7666 42.5697V71.9875C14.7666 72.6582 15.1307 73.2764 15.7185 73.6027C15.9961 73.756 16.3044 73.8334 16.6124 73.8334C16.9532 73.8334 17.292 73.7397 17.5912 73.5522L30.4145 65.5026L43.3212 73.5522L43.323 73.5492C43.3507 73.5667 43.3767 73.5867 43.4057 73.6027C43.6833 73.756 43.9916 73.8334 44.2996 73.8334C44.6405 73.8334 44.9792 73.7397 45.2784 73.5522L58.0979 65.51L71.0084 73.5522C71.3076 73.7397 71.6466 73.8334 71.9871 73.8334C72.2955 73.8334 72.6035 73.756 72.8811 73.6027C73.4688 73.2764 73.833 72.6582 73.833 71.9875V42.5697C73.8333 41.9332 73.5055 41.342 72.9659 41.0047ZM18.4583 68.6565V43.5936L28.6104 37.2478V62.3127L18.4583 68.6565ZM32.302 62.3112V37.2484L42.4541 43.5924V68.6573L32.302 62.3112ZM46.1458 68.6565V43.5936L56.2979 37.2478V62.3127L46.1458 68.6565ZM70.1416 68.6565L59.9895 62.3112V37.2484L70.1416 43.5936V68.6565Z" />
</svg>
