<svg width="90" height="89" viewBox="0 0 90 89" fill="none" xmlns="http://www.w3.org/2000/svg">
<path d="M73.4762 16.8402C72.8849 16.5174 72.164 16.541 71.597 16.9016L54.1292 28.0159L36.6614 16.9013C36.0575 16.5156 35.2843 16.5156 34.6803 16.9013L16.222 28.647C15.6895 28.9858 15.3667 29.5735 15.3667 30.2043V70.142C15.3667 70.8162 15.7335 71.4361 16.3239 71.7607C16.9151 72.0835 17.6352 72.0599 18.2031 71.6993L35.6709 60.5847L53.1386 71.6993C53.4405 71.8921 53.7848 71.9878 54.1292 71.9878C54.4736 71.9878 54.8179 71.8924 55.1197 71.6993L73.5781 59.9536C74.1109 59.6148 74.4334 59.0271 74.4334 58.3963V18.4589C74.4334 17.7847 74.0666 17.1645 73.4762 16.8402ZM37.5167 21.8216L52.2834 31.2176V66.7793L37.5167 57.3833V21.8216ZM19.0584 31.2173L33.825 21.8216V57.3836L19.0584 66.7805V31.2173ZM70.7417 57.3836L55.975 66.7793V31.2173L70.7417 21.8204V57.3836Z" />
</svg>
