<svg width="89" height="89" viewBox="0 0 89 89" fill="none" xmlns="http://www.w3.org/2000/svg">
<path d="M64.376 32.5619C64.8347 32.0102 64.9339 31.2441 64.6303 30.597C64.3267 29.9482 63.6749 29.5335 62.9584 29.5335H54.4635L64.8043 17.1319L61.9688 14.7668L49.656 29.5335H26.0418C25.3253 29.5335 24.6735 29.9482 24.3699 30.597C24.0663 31.2441 24.1652 32.0102 24.6242 32.5619L42.6543 54.198V63.84L35.8117 70.6826C35.2836 71.2107 35.1259 72.0039 35.4115 72.6944C35.6971 73.3849 36.3705 73.8335 37.1168 73.8335H51.8834C52.6297 73.8335 53.3031 73.3846 53.5887 72.6944C53.8743 72.0042 53.7166 71.211 53.1885 70.6826L46.3459 63.84V54.198L64.376 32.5619ZM44.5001 46.8451C46.0234 46.8451 47.1271 46.659 48.0299 46.4097L44.5001 50.6451L40.9703 46.4095C41.8731 46.659 42.9768 46.8451 44.5001 46.8451ZM59.0172 33.2252L52.2213 41.3802C50.4968 41.5441 49.4056 41.9718 48.4298 42.3619C47.3681 42.7872 46.4523 43.1531 44.5001 43.1531C43.9909 43.1531 43.5547 43.1271 43.1655 43.0828L44.3043 41.7169C44.5441 41.7659 44.7925 41.7916 45.0468 41.7916C47.0857 41.7916 48.7384 40.1389 48.7384 38.1C48.7384 37.6121 48.6416 37.1475 48.4697 36.7213L51.3852 33.2249H59.0172V33.2252ZM46.5778 33.2252L45.558 34.4482C45.3905 34.4248 45.2207 34.4086 45.0468 34.4086C43.0078 34.4086 41.3551 36.0613 41.3551 38.1002C41.3551 38.5063 41.423 38.8962 41.5444 39.2615L39.34 41.905C38.6457 41.6761 37.8294 41.48 36.7789 41.3799L29.983 33.2252H46.5778ZM47.4274 70.1418H41.5728L44.5001 67.2145L47.4274 70.1418Z" />
</svg>
