<svg width="90" height="89" viewBox="0 0 90 89" fill="none" xmlns="http://www.w3.org/2000/svg">
<path d="M73.8496 34.8371L70.9701 27.7122C69.235 23.4485 65.9494 20.1626 61.7037 18.4458L54.5602 15.548C50.481 13.8868 45.7737 14.9201 42.525 18.1505C38.5749 22.1195 38.095 28.1921 41.1777 32.3823C40.9748 32.6962 40.7164 33.0282 40.3472 33.3791C40.0619 33.6688 39.7961 33.8959 39.5395 34.0817C38.7557 34.6369 38.0619 34.7896 37.186 34.9815C35.8204 35.2804 34.1187 35.654 32.1887 37.5837C31.9429 37.8294 31.7235 38.071 31.5253 38.3088C30.1438 39.9564 29.8263 41.4101 29.5673 42.6085C29.3092 43.7715 29.1243 44.6206 27.9432 45.7837L27.9477 45.7881C26.7923 46.9334 25.9491 47.1245 24.7891 47.3787C23.4208 47.6803 21.7194 48.0539 19.7867 49.986C17.8529 51.9195 17.4793 53.6212 17.178 54.9895C16.9208 56.1596 16.7353 57.0042 15.5664 58.1729L18.1769 60.7833C20.1089 58.851 20.4834 57.1501 20.7847 55.7819C21.0413 54.6112 21.2271 53.7668 22.3969 52.5964C23.5658 51.4275 24.4116 51.2408 25.5803 50.9845C26.9429 50.6844 28.6361 50.3105 30.5587 48.3994L30.564 48.4047C30.8068 48.1596 31.0242 47.9186 31.2208 47.6815C32.6036 46.0353 32.9252 44.5766 33.1887 43.3764C33.445 42.2075 33.6317 41.3616 34.7994 40.1942C35.0212 39.9724 35.2235 39.8144 35.4264 39.6567C36.2914 38.9975 37.0312 38.8111 37.9663 38.6032C39.3322 38.3079 41.0303 37.9204 42.9686 36.0004C43.2639 35.7051 43.5041 35.4284 43.7439 35.1514L47.6201 39.0276C47.4382 39.3008 47.2004 39.5923 46.8933 39.9009L46.8918 39.8994C45.7255 41.0657 44.8812 41.2515 43.7126 41.5072C42.3466 41.8061 40.6449 42.1797 38.7152 44.1094C38.4722 44.3525 38.2542 44.5917 38.0578 44.8271C36.6771 46.4733 36.3588 47.9263 36.0835 49.1242C35.8295 50.286 35.6364 51.1295 34.5244 52.2627C34.5138 52.2733 34.5094 52.2822 34.4988 52.2925C33.3301 53.4614 32.484 53.6481 31.3154 53.9041C29.9471 54.2057 28.2454 54.579 26.313 56.5113C24.3794 58.4452 24.0061 60.1466 23.7046 61.5149C23.4471 62.685 23.2616 63.5296 22.0927 64.6983L24.7034 67.309C26.6358 65.3767 27.01 63.6755 27.3112 62.3073C27.5682 61.1366 27.7536 60.2919 28.9237 59.1221C30.0927 57.9532 30.9382 57.7665 32.1071 57.5102C33.4754 57.2086 35.1771 56.8353 37.1095 54.903C39.0419 52.9709 39.4155 51.2692 39.7155 49.9018C39.911 49.009 40.0743 48.3028 40.657 47.4995C40.8351 47.2577 41.0404 47.0099 41.3077 46.7426C41.5262 46.5205 41.7264 46.3628 41.927 46.2042C41.9961 46.1496 42.072 46.0698 42.1393 46.0223C42.3153 45.8965 42.4843 45.8135 42.6544 45.724C42.7359 45.6809 42.8201 45.6192 42.9016 45.5825C43.4022 45.3584 43.9033 45.2473 44.4825 45.1189C45.5743 44.8858 46.8632 44.5943 48.3 43.5365C48.6907 43.2518 49.0903 42.9225 49.5029 42.5102L49.4964 42.5037C49.7864 42.2134 50.0418 41.9402 50.2601 41.667L54.155 45.5435C53.9707 45.8194 53.7317 46.1141 53.4193 46.4266L53.4187 46.426C52.2524 47.5923 51.4078 47.7775 50.2388 48.0338C48.8732 48.3327 47.1718 48.7063 45.2418 50.636C45.2385 50.6392 45.2362 50.6422 45.2329 50.6454C45.2288 50.6496 45.225 50.6525 45.2208 50.6567C43.2829 52.5946 42.9134 54.2928 42.6184 55.659C42.3599 56.822 42.1754 57.6708 40.994 58.8338L41.0005 58.8403C39.8452 59.9856 39.002 60.1767 37.8419 60.431C36.4736 60.7325 34.7719 61.1061 32.8396 63.0385C30.9057 64.9718 30.5324 66.6735 30.2309 68.042C29.9734 69.2119 29.7879 70.0565 28.6193 71.2254L31.2297 73.8356C33.1621 71.9032 33.5363 70.2024 33.8375 68.8341C34.0944 67.6634 34.2799 66.8191 35.45 65.6487C36.6187 64.4797 37.4648 64.2931 38.6334 64.037C39.9961 63.7367 41.6895 63.3628 43.6119 61.4517L43.6151 61.4549C43.8638 61.2063 44.0847 60.962 44.2849 60.7216C45.6588 59.0804 45.9789 57.6259 46.2415 56.4286C46.4978 55.2597 46.6845 54.4139 47.852 53.2464C48.1387 52.9597 48.4048 52.7346 48.6623 52.5512C49.4518 51.9995 50.1467 51.8468 51.017 51.6534C52.0445 51.431 53.2604 51.1555 54.6248 50.2157C54.6325 50.2107 54.6405 50.2036 54.6482 50.1983C55.0903 49.8917 55.5475 49.5178 56.0194 49.0506C56.333 48.737 56.6101 48.4233 56.8499 48.1091C61.0401 51.3212 67.2238 50.8965 71.2477 46.8725C74.4774 43.6419 75.5111 38.9166 73.8496 34.8371ZM68.6443 44.2512C65.7465 47.149 61.2057 47.3336 58.4919 44.6756L55.4462 41.6298L51.9577 38.1413V38.141L49.2923 35.4759L45.4414 31.6251V31.6248L44.7766 30.9603C43.7616 29.9452 43.1526 28.6714 42.9491 27.3241C42.58 25.0536 43.3183 22.5805 45.1458 20.7713C47.3239 18.5746 50.4804 17.8735 53.1753 18.9624L60.3002 21.8602C61.9615 22.525 63.4385 23.5031 64.6564 24.74C65.8933 25.9582 66.8717 27.4349 67.5362 29.0961L70.4343 36.2211C71.5238 38.9166 70.8227 42.0731 68.6443 44.2512Z" />
<path d="M49.2374 25.7085C50.2569 25.7085 51.0833 24.8821 51.0833 23.8627C51.0833 22.8433 50.2569 22.0168 49.2374 22.0168C48.218 22.0168 47.3916 22.8433 47.3916 23.8627C47.3916 24.8821 48.218 25.7085 49.2374 25.7085Z" />
<path d="M54.775 25.7085C55.7945 25.7085 56.6209 24.8821 56.6209 23.8627C56.6209 22.8433 55.7945 22.0168 54.775 22.0168C53.7556 22.0168 52.9292 22.8433 52.9292 23.8627C52.9292 24.8821 53.7556 25.7085 54.775 25.7085Z" />
<path d="M51.0836 30.7576C52.103 30.7576 52.9294 29.9312 52.9294 28.9118C52.9294 27.8923 52.103 27.0659 51.0836 27.0659C50.0642 27.0659 49.2378 27.8923 49.2378 28.9118C49.2378 29.9312 50.0642 30.7576 51.0836 30.7576Z" />
</svg>
