<svg width="89" height="89" viewBox="0 0 89 89" fill="none" xmlns="http://www.w3.org/2000/svg">
<path d="M71.9874 29.5333H62.7583V33.2249H70.1416V53.5291C70.1416 62.6898 62.6889 70.1416 53.5291 70.1416H35.0708C25.911 70.1416 18.4583 62.6898 18.4583 53.5291V33.2249H29.5333V38.7624H33.2249V29.5333C33.2249 23.4261 38.1927 18.4583 44.2999 18.4583C50.4071 18.4583 55.3749 23.4261 55.3749 29.5333H36.9166V33.2249H55.3749V38.7624H59.0666V29.5333C59.0666 21.3909 52.4423 14.7666 44.2999 14.7666C36.1576 14.7666 29.5333 21.3909 29.5333 29.5333H16.6124C15.5929 29.5333 14.7666 30.3587 14.7666 31.3791V53.5291C14.7666 64.7249 23.875 73.8333 35.0708 73.8333H53.5291C64.7249 73.8333 73.8333 64.7249 73.8333 53.5291V31.3791C73.8333 30.3587 73.0069 29.5333 71.9874 29.5333Z" />
<path d="M22.1499 53.1598C22.1499 61.3151 28.7612 67.9264 36.9166 67.9264H51.6832C59.8386 67.9264 66.4499 61.3151 66.4499 53.1598V47.9915H22.1499V53.1598Z" />
</svg>
