<svg width="89" height="89" viewBox="0 0 89 89" fill="none" xmlns="http://www.w3.org/2000/svg">
<path d="M65.0043 33.2253H17.0123C15.9928 33.2253 15.1665 34.0508 15.1665 35.0712V60.9128C15.1665 61.9332 15.9928 62.7587 17.0123 62.7587H65.0043C66.0238 62.7587 66.8501 61.9332 66.8501 60.9128V35.0712C66.8501 34.0511 66.0235 33.2253 65.0043 33.2253ZM63.1585 59.067H18.8582V36.917H63.1585V59.067Z" />
<path d="M72.3872 25.8416H23.9614V29.5332H70.5414V53.7473H74.2331V27.6874C74.2331 26.667 73.4067 25.8416 72.3872 25.8416Z" />
<path d="M59.467 53.5297V42.4547C59.467 41.4343 58.6407 40.6089 57.6212 40.6089H49.4771V44.3006H55.7753V51.6839H49.4771V55.3755H57.6212C58.6407 55.3755 59.467 54.5501 59.467 53.5297Z" />
<path d="M24.3956 55.3755H32.5397V51.6839H26.2415V44.3006H32.5397V40.6089H24.3956C23.3761 40.6089 22.5498 41.4343 22.5498 42.4547V53.5297C22.5498 54.5501 23.3761 55.3755 24.3956 55.3755Z" />
<path d="M40.1935 49.7282H41.8223C42.1522 49.7282 42.4197 49.9949 42.4197 50.3248C42.4197 50.6546 42.1522 50.9213 41.8223 50.9213H37.7511V54.613H39.1625V55.3755H42.8542V54.4822C44.7216 54.0185 46.1114 52.3333 46.1114 50.3245C46.1114 47.9594 44.187 46.0362 41.8223 46.0362H40.1935C39.8645 46.0362 39.5969 45.7678 39.5969 45.4379C39.5969 45.108 39.8645 44.8413 40.1935 44.8413H44.2656V41.1496H42.8542V40.6089H39.1625V41.2802C37.2951 41.7436 35.9053 43.429 35.9053 45.4379C35.9053 47.8029 37.8288 49.7282 40.1935 49.7282Z" />
</svg>
