<svg width="89" height="90" viewBox="0 0 89 90" fill="none" xmlns="http://www.w3.org/2000/svg">
<path d="M29.5342 44.9003C37.6896 44.9003 44.3009 38.289 44.3009 30.1336C44.3009 21.9782 37.6896 15.3669 29.5342 15.3669C21.3788 15.3669 14.7676 21.9782 14.7676 30.1336C14.7676 38.289 21.3788 44.9003 29.5342 44.9003Z" />
<path d="M73.5848 71.6631L53.2806 36.5923C52.9499 36.0208 52.3595 35.7577 51.6781 35.6711C51.0175 35.6729 50.4082 36.0279 50.081 36.6011L36.9762 59.5335L31.1277 49.5075C30.4661 48.372 28.6005 48.372 27.939 49.5075L15.0181 71.6575C14.6847 72.229 14.6829 72.9336 15.0119 73.5069C15.3409 74.0801 15.952 74.4336 16.6126 74.4336H71.9876C72.6474 74.4336 73.2576 74.0822 73.5866 73.509C73.9165 72.9375 73.9156 72.2346 73.5848 71.6631ZM51.6944 41.2196L54.894 46.7461H48.5361L51.6944 41.2196ZM29.5335 54.1005L32.7804 59.667H26.2869L29.5335 54.1005ZM19.8267 70.742L24.1333 63.3586H34.9336L39.2402 70.742H19.8267ZM43.5142 70.742L39.1241 63.2163L46.4265 50.4378H57.0314L68.7865 70.742H43.5142Z" />
</svg>
