<svg width="90" height="90" viewBox="0 0 90 90" fill="none" xmlns="http://www.w3.org/2000/svg">
<path d="M61.6658 48.1326C60.8545 47.7759 59.9092 48.0426 59.4044 48.7691C56.4293 53.0502 51.5589 55.6064 46.3764 55.6064C37.623 55.6064 30.5019 48.4862 30.5019 39.7328C30.5019 32.8379 34.9615 26.7886 41.5994 24.6796C42.4411 24.4129 42.9756 23.5854 42.8738 22.7077C42.7719 21.83 42.0625 21.1466 41.1821 21.0801C40.9945 21.0656 40.8117 21.0388 40.6277 21.0134C40.2113 20.9575 39.7949 20.9053 39.3622 20.9053C26.1307 20.9047 15.3667 31.6696 15.3667 44.9005C15.3667 58.1315 26.1307 68.8964 39.3625 68.8964C50.6141 68.8964 60.2193 61.2209 62.7201 50.2307C62.9168 49.3692 62.4741 48.4894 61.6658 48.1326ZM39.3625 65.2047C28.1667 65.2047 19.0584 56.0963 19.0584 44.9005C19.0584 35.9885 24.8295 28.3997 32.8309 25.6743C29.0637 29.2614 26.8103 34.2833 26.8103 39.7325C26.8103 50.521 35.5879 59.2977 46.3764 59.2977C49.6912 59.2977 52.9027 58.4504 55.7364 56.8984C52.0238 62.0124 46.0347 65.2047 39.3625 65.2047Z" />
<path d="M74.3374 30.6255C74.1174 29.9693 73.5497 29.4917 72.8655 29.3872L66.1871 28.365L63.183 21.966C62.8791 21.3189 62.2276 20.9043 61.512 20.9043C60.7964 20.9043 60.1458 21.3172 59.841 21.966L56.836 28.365L50.1573 29.3872C49.4742 29.4917 48.9054 29.9693 48.6865 30.6255C48.4665 31.2817 48.6325 32.0044 49.1157 32.5003L54.0025 37.5079L52.8454 44.6027C52.7308 45.3003 53.0256 46.0014 53.6032 46.409C54.1827 46.8163 54.9408 46.8597 55.5598 46.5153L61.512 43.2256L67.4632 46.5153C67.7426 46.6704 68.0501 46.746 68.3563 46.746C68.7293 46.746 69.1017 46.6323 69.4189 46.409C69.9975 46.0017 70.2922 45.3003 70.1779 44.6027L69.0214 37.5079L73.9083 32.5003C74.3915 32.0044 74.5574 31.2817 74.3374 30.6255ZM65.7284 35.5971C65.3194 36.0153 65.1336 36.6048 65.2281 37.1834L65.9231 41.4465L62.4054 39.5014C61.8501 39.1949 61.1759 39.1949 60.6189 39.5014L57.1012 41.4465L57.7961 37.1834C57.8909 36.6048 57.7051 36.0153 57.2958 35.5971L54.2666 32.4932L58.3684 31.8659C58.9768 31.774 59.4987 31.3827 59.7601 30.8257L61.5123 27.0945L63.2636 30.8257C63.525 31.3827 64.0468 31.7737 64.6561 31.8659L68.758 32.4932L65.7284 35.5971Z" />
<path d="M42.2772 37.8963L41.2039 40.1816L38.8188 40.5466C38.5749 40.5838 38.3717 40.7545 38.2934 40.989C38.2149 41.2232 38.2742 41.4813 38.4467 41.6585L40.1918 43.4468L39.7787 45.9808C39.7379 46.23 39.843 46.4805 40.0495 46.6258C40.2565 46.7714 40.527 46.7867 40.7482 46.6639L42.874 45.489L44.9996 46.6639C45.0994 46.7191 45.209 46.7463 45.3185 46.7463C45.4517 46.7463 45.5846 46.7058 45.698 46.6258C45.9048 46.4802 46.0099 46.2297 45.9691 45.9808L45.5563 43.4468L47.3014 41.6585C47.4739 41.4816 47.5332 41.2232 47.4547 40.989C47.3761 40.7548 47.1732 40.5841 46.929 40.5466L44.5439 40.1816L43.4709 37.8963C43.3625 37.6653 43.1298 37.5171 42.874 37.5171C42.6183 37.5171 42.3859 37.6648 42.2772 37.8963Z" />
</svg>
