<svg width="89" height="90" viewBox="0 0 89 90" fill="none" xmlns="http://www.w3.org/2000/svg">
<path d="M73.8005 71.6825C72.1765 68.785 69.9987 66.2932 67.4514 64.3183C66.88 53.9867 60.8623 44.953 51.999 40.2859L72.351 38.4114C73.0377 38.3482 73.6316 37.9067 73.8912 37.2688C74.1508 36.6308 74.0335 35.9008 73.5855 35.3763C69.5185 30.6055 63.3652 28.1019 57.1263 28.6752C56.0179 28.7773 54.9314 28.9791 53.8741 29.2646L62.867 18.4466C63.3076 17.915 63.4157 17.1849 63.1481 16.5488C62.8806 15.9144 62.2813 15.4817 61.5935 15.4259C55.3519 14.943 49.222 17.5095 45.217 22.3273C43.1361 24.8317 41.761 27.7892 41.142 30.9008C39.124 28.4607 36.5159 26.5133 33.5023 25.296C27.694 22.951 21.0794 23.5801 15.8118 26.9776C15.2324 27.3524 14.9096 28.0175 14.9746 28.7044C15.0395 29.3893 15.4819 29.9823 16.1207 30.2419L30.8558 36.1902C29.3546 36.6858 27.9022 37.3574 26.5413 38.2248C21.2598 41.5922 17.9308 47.3411 17.6376 53.6034C17.6057 54.2921 17.9592 54.9403 18.5561 55.2862C18.9347 55.5062 19.37 55.5794 19.7858 55.5097C20.0268 55.4696 20.2604 55.381 20.4734 55.2448L36.6907 44.9061C37.4258 45.8559 38.5738 46.4699 39.8679 46.4699C41.1907 46.4699 42.3605 45.8281 43.0932 44.8417C43.8212 45.5732 44.8286 46.0263 45.942 46.0263C46.0711 46.0263 46.1981 46.0189 46.3239 46.0071C48.595 49.8467 49.8065 54.236 49.8065 58.8376C49.8065 59.0404 49.8065 59.2436 49.7882 59.4465C42.1101 60.3325 35.2631 64.8544 31.4426 71.6831C31.1287 72.2551 31.1287 72.9566 31.4609 73.5103C31.7932 74.0827 32.4022 74.4332 33.0484 74.4332H72.1759C72.8404 74.4332 73.4494 74.0827 73.7816 73.5103C74.1142 72.9563 74.1142 72.2545 73.8005 71.6825ZM63.4647 61.8269C61.8572 61.023 60.1567 60.4025 58.398 59.9731C59.5994 58.6745 60.6978 57.2811 61.6904 55.8083C62.5197 57.7091 63.1225 59.7268 63.4647 61.8269ZM59.6635 52.0777C58.3251 54.363 56.7232 56.4675 54.8667 58.3243C54.5238 58.6671 54.1662 58.992 53.8088 59.3172C53.7052 59.3124 53.6024 59.3021 53.4984 59.2989V58.8376C53.4984 56.7236 53.2722 54.6491 52.8375 52.6382C53.2143 52.2941 53.5956 51.933 53.9881 51.5405C54.9748 50.5537 55.8903 49.5038 56.7427 48.4129C57.8277 49.5408 58.805 50.7673 59.6635 52.0777ZM49.7503 43.2862C51.2604 44.0343 52.6827 44.9194 53.9949 45.9347C53.274 46.8748 52.4943 47.7776 51.6606 48.6344C51.0578 47.0281 50.3109 45.4802 49.427 44.0044C49.5572 43.7779 49.6659 43.5378 49.7503 43.2862ZM57.4653 32.3518C57.9429 32.3066 58.4196 32.285 58.8948 32.285C62.1174 32.285 65.2491 33.2871 67.8599 35.1184L47.7533 36.9696C50.3153 34.358 53.7489 32.6923 57.4653 32.3518ZM48.056 24.6861C50.4432 21.8149 53.7598 19.9259 57.3626 19.2933L44.4547 34.8208C44.4208 31.1622 45.6706 27.5573 48.056 24.6861ZM32.1201 28.72C35.5826 30.117 38.3924 32.6997 40.0947 35.9368L21.3706 28.3795C24.844 27.2295 28.6606 27.3213 32.1201 28.72ZM28.5265 41.3367C30.3145 40.1949 32.2923 39.4492 34.3322 39.1078C35.4134 38.9268 36.512 38.8668 37.6086 38.915L37.8162 38.9988C37.0941 39.4291 36.5173 40.0765 36.1804 40.8541L22.0073 49.891C23.0897 46.3966 25.3791 43.3435 28.5265 41.3367ZM36.5002 70.7413C39.7117 66.6993 44.3257 64.0047 49.4382 63.1925C50.4716 63.0449 51.5421 62.9527 52.6127 62.9527C52.8156 62.9527 53.0005 62.9527 53.2034 62.971C57.0424 63.0632 60.6969 64.2445 63.7973 66.2746C64.4066 66.6438 64.9786 67.0685 65.5324 67.5298C66.6951 68.471 67.7657 69.5416 68.7252 70.7413H36.5002Z" />
</svg>
