<svg width="90" height="90" viewBox="0 0 90 90" fill="none" xmlns="http://www.w3.org/2000/svg">
<path d="M45.0997 52.2767C48.8814 52.2767 52.6623 50.8364 55.5412 47.9578C58.3306 45.1689 59.8663 41.461 59.8663 37.5171C59.8663 33.5712 58.3306 29.8633 55.5412 27.0747C49.7845 21.3172 40.4166 21.3172 34.6585 27.0747C31.8687 29.8633 30.333 33.5712 30.333 37.5171C30.333 41.461 31.8687 45.1689 34.6582 47.9578C37.5371 50.8364 41.3179 52.2767 45.0997 52.2767ZM34.1883 39.363H36.4417C36.8309 42.0313 38.0462 44.4964 39.9869 46.4362C40.6626 47.1122 41.405 47.6952 42.1971 48.1925C40.3912 47.705 38.6836 46.7625 37.2686 45.3473C35.6189 43.6988 34.5651 41.6181 34.1883 39.363ZM46.9455 44.417V39.363H50.0205C49.6694 41.0419 48.8433 42.5848 47.6026 43.826C47.3926 44.0357 47.1723 44.2309 46.9455 44.417ZM46.9455 35.6713V30.6146C47.1723 30.8007 47.3926 30.9962 47.6026 31.2062C48.8433 32.4474 49.6694 33.9914 50.0208 35.671H46.9455V35.6713ZM43.2538 30.6149V35.6713H40.1788C40.53 33.9917 41.356 32.4477 42.597 31.2064C42.8067 30.9962 43.027 30.801 43.2538 30.6149ZM43.2538 39.363V44.417C43.027 44.2312 42.8067 44.0357 42.5967 43.826C41.356 42.5848 40.53 41.0419 40.1788 39.363H43.2538ZM52.931 45.3476C51.5152 46.7634 49.807 47.7055 48.0004 48.1931C48.7955 47.6946 49.5373 47.1119 50.2128 46.4362C52.1534 44.4964 53.3684 42.0313 53.758 39.363H56.0113C55.6342 41.6181 54.5805 43.6988 52.931 45.3476ZM56.011 35.6713H53.7577C53.3684 33.0027 52.1531 30.536 50.2125 28.5963C49.5323 27.9158 48.7851 27.3308 47.9886 26.8329C49.8392 27.3302 51.5391 28.2945 52.9307 29.6852C54.5805 31.3337 55.6345 33.4147 56.011 35.6713ZM37.2683 29.6849C38.6605 28.2933 40.3613 27.3287 42.2131 26.832C41.413 27.3314 40.6661 27.9161 39.9866 28.5963C38.0459 30.5363 36.8306 33.0027 36.4414 35.6713H34.188C34.5648 33.4147 35.6189 31.3337 37.2683 29.6849Z" />
<path d="M67.2498 15.3669H22.9498C21.9303 15.3669 21.104 16.1924 21.104 17.2128V72.5878C21.104 73.6082 21.9303 74.4336 22.9498 74.4336H67.2498C68.2693 74.4336 69.0957 73.6082 69.0957 72.5878V17.2128C69.0957 16.1924 68.2693 15.3669 67.2498 15.3669ZM65.404 70.7419H24.7957V19.0586H65.404V70.7419Z" />
<path d="M32.1792 55.9683H58.0209V59.6599H32.1792V55.9683Z" />
<path d="M35.8706 63.3516H54.3289V67.0432H35.8706V63.3516Z" />
</svg>
