<svg width="89" height="90" viewBox="0 0 89 90" fill="none" xmlns="http://www.w3.org/2000/svg">
<path d="M70.5414 15.3669H18.858C17.8385 15.3669 17.0122 16.1924 17.0122 17.2128V72.5878C17.0122 73.6082 17.8385 74.4336 18.858 74.4336H70.5414C71.5609 74.4336 72.3872 73.6082 72.3872 72.5878V17.2128C72.3872 16.1924 71.5609 15.3669 70.5414 15.3669ZM68.6955 19.0586V61.5128H20.7039V19.0586H68.6955ZM20.7039 70.7419V65.2044H68.6955V70.7419H20.7039Z" />
<path d="M44.6997 41.2078C48.7774 41.2078 52.0831 37.9022 52.0831 33.8245C52.0831 29.7468 48.7774 26.4412 44.6997 26.4412C40.622 26.4412 37.3164 29.7468 37.3164 33.8245C37.3164 37.9022 40.622 41.2078 44.6997 41.2078Z" />
<path d="M44.7001 48.5918C50.1761 48.5918 54.882 52.671 55.6454 58.0788H59.3693L59.301 57.5632C58.2815 50.344 52.0048 44.9001 44.7001 44.9001C37.3953 44.9001 31.1186 50.344 30.0994 57.5632L30.0205 58.0788H33.755C34.5181 52.671 39.224 48.5918 44.7001 48.5918Z" />
</svg>
