<svg width="89" height="90" viewBox="0 0 89 90" fill="none" xmlns="http://www.w3.org/2000/svg">
<path d="M48.7417 70.7418L61.8238 57.6606C71.4865 47.9987 71.4865 32.2749 61.8238 22.6131C52.162 12.9512 36.4382 12.9512 26.7763 22.6131C17.1145 32.2749 17.1145 47.9987 26.7763 57.6606L39.8581 70.7418H14.7666V74.4334H73.8333V70.7418H48.7417ZM29.3865 25.2232C37.6106 17 50.9895 17 59.2137 25.2232C67.4361 33.4465 67.4361 46.8272 59.2137 55.0504L44.2999 69.963L29.3865 55.0504C21.1638 46.8272 21.1638 33.4465 29.3865 25.2232Z" />
<path d="M44.3001 50.8302C50.4167 50.8302 55.3751 45.8717 55.3751 39.7552C55.3751 33.6386 50.4167 28.6802 44.3001 28.6802C38.1835 28.6802 33.2251 33.6386 33.2251 39.7552C33.2251 45.8717 38.1835 50.8302 44.3001 50.8302Z" />
</svg>
