<svg width="90" height="90" viewBox="0 0 90 90" fill="none" xmlns="http://www.w3.org/2000/svg">
<path d="M32.2816 16.6754C32.0409 15.8859 31.3415 15.3614 30.4789 15.3667C29.6525 15.383 28.9387 15.9471 28.7296 16.7474L17.2725 60.6653C17.1283 61.2169 17.2491 61.8064 17.5979 62.2589C17.9476 62.7113 18.4875 62.9762 19.0589 62.9762H26.7603V72.5876C26.7603 73.608 27.5867 74.4334 28.6062 74.4334H34.3347C35.3542 74.4334 36.1806 73.608 36.1806 72.5876V62.9762H43.882C44.467 62.9762 45.0167 62.6986 45.3654 62.2299C45.7133 61.7595 45.8179 61.152 45.6475 60.5932L32.2816 16.6754ZM32.4889 70.7417H30.452V62.9762H32.4889V70.7417ZM21.4482 59.2846L24.47 47.7013H30.5161V44.0096H25.4331L30.6528 24.0011L39.0663 51.6473H32.4245V55.3389H40.1897L41.3906 59.2849H21.4482V59.2846Z" />
<path d="M72.5078 56.9072L63.7508 28.1328C63.5137 27.354 62.7963 26.8242 61.9853 26.8242C61.9735 26.8242 61.9611 26.8242 61.9484 26.8242C61.1221 26.8405 60.4083 27.4045 60.1992 28.2049L52.6924 56.9792C52.5483 57.5309 52.669 58.1204 53.0178 58.5729C53.3675 59.0253 53.9074 59.2902 54.4789 59.2902H60.7653V64.9503H64.457V59.2902H70.742C71.327 59.2902 71.8766 59.0126 72.2254 58.5439C72.5733 58.0734 72.6779 57.4659 72.5078 56.9072ZM56.8675 55.5983L62.1221 35.4583L68.2508 55.5983H56.8675Z" />
</svg>
