<svg width="89" height="90" viewBox="0 0 89 90" fill="none" xmlns="http://www.w3.org/2000/svg">
<path d="M73.8946 70.0417L57.5533 30.2553C58.2659 29.9236 58.9357 29.4747 59.5155 28.9047H59.5163C61.4821 26.9688 62.0843 24.1711 61.089 21.6023C60.0887 19.0193 57.7399 17.3501 54.9611 17.2438C44.2789 16.8058 33.8185 20.8634 26.2533 28.3099C18.6797 35.7653 14.577 46.0781 14.996 56.607C15.1032 59.309 16.7553 61.6147 19.307 62.6241C20.1685 62.9649 21.0575 63.1306 21.9325 63.1306C23.7134 63.1306 25.4405 62.4401 26.7733 61.128C27.4697 60.4431 28.001 59.6392 28.3469 58.7786L71.6297 72.5024C71.8137 72.56 72.001 72.589 72.1876 72.589C72.695 72.589 73.1909 72.3799 73.5459 71.9942C74.0308 71.4658 74.1678 70.705 73.8946 70.0417ZM24.1839 58.4963C23.0699 59.5922 21.6342 59.5778 20.6652 59.1903C19.4748 58.7198 18.7338 57.6994 18.6842 56.4593C18.3064 46.9688 22.0099 37.6673 28.8436 30.942C35.3664 24.5211 44.2757 20.9068 53.4679 20.9068C53.9177 20.9068 54.3693 20.916 54.82 20.9319C56.1233 20.9824 57.1806 21.7305 57.6463 22.9346C58.1088 24.128 57.8391 25.3752 56.9272 26.273C56.2937 26.8968 55.4824 27.2337 54.6865 27.2013C46.7757 26.8661 39.0167 29.8259 33.405 35.3471C27.7854 40.8776 24.7642 48.5276 25.115 56.3383C25.149 57.0937 24.8094 57.8814 24.1839 58.4963ZM28.7825 55.0441C28.8011 48.6732 31.3915 42.5087 35.9933 37.9792C40.7089 33.3383 47.1637 30.7786 53.8185 30.8773L68.9788 67.7886L28.7825 55.0441Z" />
<path d="M52.9109 35.5746H52.91C50.6188 33.3215 46.8911 33.3215 44.6002 35.5746C43.4809 36.6777 42.8643 38.1452 42.8643 39.7078C42.8651 41.2689 43.4815 42.7344 44.6002 43.8357C45.7458 44.9641 47.2508 45.5264 48.7562 45.5264C50.2606 45.5264 51.7656 44.9641 52.9103 43.8357C54.0296 42.7344 54.6463 41.2689 54.6472 39.7078C54.6469 38.1449 54.0305 36.6777 52.9109 35.5746ZM50.3208 41.2039C49.4573 42.0548 48.0533 42.0548 47.1897 41.2039C46.7816 40.802 46.5562 40.2701 46.5562 39.706C46.5562 39.1419 46.7816 38.6083 47.1897 38.2063C47.6215 37.7828 48.1882 37.5699 48.7562 37.5699C49.3232 37.5699 49.8899 37.7825 50.3217 38.2063C50.7299 38.61 50.9552 39.1419 50.9552 39.706C50.9552 40.2701 50.7299 40.802 50.3208 41.2039Z" />
<path d="M48.8651 48.014C46.573 45.7609 42.8453 45.7609 40.5553 48.014C39.436 49.1171 38.8193 50.5846 38.8193 52.1455C38.8193 53.7063 39.4357 55.1738 40.5562 56.2769C41.7018 57.4036 43.2059 57.9659 44.7104 57.9659C46.2157 57.9659 47.7207 57.4036 48.8663 56.2769C49.9856 55.1738 50.6023 53.7063 50.6023 52.1455C50.6023 50.5846 49.9859 49.1171 48.8663 48.014H48.8651ZM46.2765 53.6455C45.413 54.4963 44.0072 54.4963 43.1454 53.6455C42.7363 53.2435 42.511 52.7098 42.511 52.1458C42.511 51.5817 42.7363 51.048 43.1445 50.6461C43.5763 50.2225 44.143 50.0096 44.7109 50.0096C45.278 50.0096 45.8447 50.2223 46.2765 50.6461C46.6847 51.048 46.91 51.5817 46.91 52.1458C46.91 52.7098 46.685 53.2435 46.2765 53.6455Z" />
<path d="M54.8567 59.9164C55.6083 60.6553 56.5945 61.0251 57.5812 61.0251C58.5682 61.0251 59.5561 60.6556 60.3077 59.9146C61.0448 59.1881 61.4506 58.2203 61.4497 57.189C61.4489 56.1597 61.0434 55.1937 60.3059 54.469C58.8044 52.9908 56.36 52.9908 54.8567 54.469C54.1196 55.1937 53.7138 56.1597 53.7129 57.189C53.712 58.2203 54.1178 59.1881 54.8567 59.9164Z" />
</svg>
