<svg width="90" height="90" viewBox="0 0 90 90" fill="none" xmlns="http://www.w3.org/2000/svg">
<path d="M70.9414 67.4V25.0486C70.9414 19.7092 66.5991 15.3669 61.2607 15.3669C56.5539 15.3669 52.626 18.7441 51.7613 23.2021L49.0132 23.2027V26.8944L57.699 26.8926V23.201L55.5664 23.2013C56.3472 20.8005 58.6033 19.0586 61.2607 19.0586C64.5631 19.0586 67.2497 21.7461 67.2497 25.0486V38.3985H37.4955V25.0486C37.4955 19.7092 33.1523 15.3669 27.8139 15.3669C23.1072 15.3669 19.1792 18.7441 18.3145 23.2021L15.5664 23.2027V26.8944L24.253 26.8926V23.201L22.1196 23.2013C22.9004 20.8005 25.1565 19.0586 27.8139 19.0586C31.1172 19.0586 33.8038 21.7461 33.8038 25.0486V70.3492C32.8697 70.5922 31.7693 70.7419 30.3313 70.7419C27.0758 70.7419 25.5472 69.9776 23.7755 69.0907C21.8629 68.1353 19.6943 67.0503 15.5664 67.0503V70.7419C18.8219 70.7419 20.3523 71.5063 22.1243 72.3932C24.0366 73.3503 26.2052 74.4336 30.3313 74.4336C34.4574 74.4336 36.624 73.3503 38.5365 72.3932C40.3085 71.5063 41.8372 70.7419 45.0924 70.7419C48.3496 70.7419 49.88 71.5063 51.652 72.3932C53.5664 73.3503 55.7347 74.4336 59.8629 74.4336C63.991 74.4336 66.1594 73.3503 68.0737 72.3932C69.8457 71.5063 71.3761 70.7419 74.6334 70.7419V67.0503C73.1845 67.0503 71.981 67.1855 70.9414 67.4ZM67.2497 42.0902V55.4942H37.4955V42.0902H67.2497ZM59.8629 70.7419C56.6056 70.7419 55.0752 69.9776 53.3032 69.0907C51.3889 68.1336 49.2205 67.0503 45.0924 67.0503C41.3969 67.0503 39.2728 67.9206 37.4955 68.7889V59.1856H67.2497V68.6835C66.9662 68.8196 66.6913 68.9564 66.4222 69.0907C64.6505 69.9776 63.1201 70.7419 59.8629 70.7419Z" />
</svg>
