<svg width="90" height="89" viewBox="0 0 90 89" fill="none" xmlns="http://www.w3.org/2000/svg">
<path d="M65.4603 23.1378C59.939 17.7391 52.6384 14.7666 44.9 14.7666C37.1635 14.7666 29.8611 17.7391 24.3454 23.1304C18.5554 28.7347 15.3667 36.2533 15.3667 44.2999C15.3667 52.3466 18.5554 59.8652 24.338 65.462C29.8611 70.8607 37.1635 73.8333 44.9 73.8333C52.6384 73.8333 59.939 70.8607 65.4529 65.4694C71.2446 59.8652 74.4334 52.3466 74.4334 44.2999C74.4334 36.2533 71.2447 28.7347 65.4603 23.1378ZM46.1186 19.8534C51.2848 26.3068 54.1292 34.9895 54.1292 44.3017C54.1292 53.6209 51.2848 62.2949 46.115 68.7355C45.7193 69.2334 45.3147 69.6968 44.9083 70.1413C44.9056 70.1413 44.903 70.1416 44.9 70.1416C44.8974 70.1416 44.8947 70.1413 44.8921 70.1413C44.4854 69.6965 44.0802 69.232 43.6815 68.7302C38.5152 62.2949 35.6709 53.6209 35.6709 44.3017C35.6709 34.9895 38.5152 26.3068 43.685 19.8499C44.0867 19.3463 44.4815 18.8936 44.8779 18.4589C44.8853 18.4589 44.8926 18.4583 44.9 18.4583C44.9074 18.4583 44.9148 18.4589 44.9222 18.4589C45.3188 18.8939 45.7143 19.3475 46.1186 19.8534ZM19.0584 44.2999C19.0584 37.2627 21.8469 30.6868 26.9193 25.7766C30.4892 22.2867 34.9127 19.9603 39.7113 18.9828C34.7143 25.9083 31.9792 34.8236 31.9792 44.3014C31.9792 53.7946 34.7181 62.7104 39.719 69.6183C34.9172 68.6416 30.4892 66.3129 26.9122 62.8159C21.8469 57.913 19.0584 51.3371 19.0584 44.2999ZM62.8787 62.8232C59.3085 66.315 54.8823 68.6422 50.0811 69.6186C55.0831 62.7072 57.8209 53.7931 57.8209 44.3017C57.8209 34.8224 55.0852 25.9063 50.0899 18.9834C54.8882 19.9612 59.3126 22.289 62.8861 25.784C67.9514 30.6851 70.7417 37.261 70.7417 44.2999C70.7417 51.3389 67.9514 57.9148 62.8787 62.8232Z" />
</svg>
