<svg width="89" height="90" viewBox="0 0 89 90" fill="none" xmlns="http://www.w3.org/2000/svg">
<path d="M62.6524 34.2517C62.9734 33.5627 63.158 32.7975 63.158 31.9883C63.158 29.4322 61.3653 27.2872 58.9725 26.7447C58.1595 22.5861 54.5047 19.4118 50.0346 19.556C49.4929 17.1605 47.3497 15.3669 44.7953 15.3669C42.2392 15.3669 40.0942 17.164 39.5553 19.5616C35.0957 19.3776 31.2525 22.5267 30.428 26.745C28.0352 27.2875 26.2425 29.4325 26.2425 31.9886C26.2425 32.7975 26.4271 33.5624 26.7478 34.2512C26.7455 34.2535 26.7425 34.2553 26.7401 34.2579C26.3905 34.6309 26.2121 35.1321 26.2463 35.6425L28.7142 72.7106C28.7782 73.6805 29.5839 74.4339 30.5556 74.4339H58.7578C59.7277 74.4339 60.5325 73.6823 60.5992 72.7142L63.1544 35.646C63.1896 35.136 63.0112 34.6348 62.6624 34.2597C62.6586 34.2568 62.6553 34.2547 62.6524 34.2517ZM31.6087 30.3049C31.6719 30.3067 31.7322 30.3194 31.8547 30.3374C32.3837 30.4112 32.9209 30.2544 33.3237 29.903C33.7283 29.5533 33.9602 29.045 33.9602 28.5096C33.9602 28.47 33.9584 28.4266 33.9557 28.3817C33.9971 25.5409 36.3154 23.2444 39.1598 23.2444C39.6896 23.2444 40.2413 23.3471 40.847 23.5562C41.5104 23.7851 42.2395 23.623 42.7398 23.1363C43.2401 22.6496 43.4229 21.9213 43.213 21.2562C43.148 21.0524 43.1164 20.885 43.1164 20.7444C43.1164 19.8144 43.8698 19.0589 44.7953 19.0589C45.7218 19.0589 46.4752 19.8141 46.4752 20.7444C46.4752 20.874 46.448 21.0238 46.3904 21.2166C46.1949 21.8711 46.3751 22.5793 46.86 23.0589C47.3458 23.5365 48.0544 23.7095 48.7067 23.5096C49.288 23.3294 49.7756 23.2447 50.2407 23.2447C53.0851 23.2447 55.4031 25.5412 55.4448 28.382C55.4421 28.4272 55.4403 28.4703 55.4403 28.5099C55.4403 29.0453 55.7017 29.55 56.1063 29.9015C56.51 30.2529 57.0762 30.4044 57.6069 30.3288C58.6415 30.1685 59.4663 31.0013 59.4663 31.9889C59.4663 32.9189 58.7129 33.6744 57.7874 33.6744H31.6131C30.6876 33.6744 29.9342 32.9192 29.9342 31.9889C29.9339 31.0601 30.6876 30.3049 31.6087 30.3049ZM39.7472 57.0875C41.0148 58.0689 42.7658 58.6761 44.7003 58.6761C46.6344 58.6761 48.3851 58.0692 49.6527 57.0881L48.744 70.7422H40.6563L39.7472 57.0875ZM50.1353 49.8365C48.8512 48.6138 46.8943 47.8318 44.7003 47.8318C42.5056 47.8318 40.5487 48.6141 39.2646 49.8371L38.4345 37.3654H50.9652L50.1353 49.8365ZM30.0603 37.3654H34.7354L36.9575 70.7419H32.2821L30.0603 37.3654ZM57.034 70.7419H52.443L54.6642 37.3654H59.3349L57.034 70.7419Z" />
</svg>
