<svg width="89" height="89" viewBox="0 0 89 89" fill="none" xmlns="http://www.w3.org/2000/svg">
<path d="M73.5514 71.2068L59.6527 49.0568C59.2921 48.4818 58.663 48.1735 57.9672 48.1953C57.2903 48.2405 56.692 48.6531 56.4099 49.2697L52.4176 58.0045L37.4114 41.4159C37.0284 40.9942 36.4758 40.7724 35.9008 40.8137C35.3311 40.8569 34.814 41.1616 34.5003 41.6392L15.0704 71.1725C14.6973 71.7405 14.6657 72.4667 14.9874 73.0636C15.3102 73.6601 15.9336 74.0334 16.6123 74.0334H71.9873C72.6586 74.0334 73.2779 73.6693 73.6025 73.0816C73.9279 72.4939 73.9081 71.7744 73.5514 71.2068ZM35.8128 46.3607L47.6453 70.3415H20.0364L35.8128 46.3607ZM51.7623 70.3415L43.5579 53.7133L58.5998 70.3415H51.7623ZM63.578 70.3415L55.1149 60.9859L58.3447 53.9183L68.65 70.3415H63.578Z" />
<path d="M23.9967 33.4249C29.0939 33.4249 33.2259 29.2928 33.2259 24.1957C33.2259 19.0986 29.0939 14.9666 23.9967 14.9666C18.8996 14.9666 14.7676 19.0986 14.7676 24.1957C14.7676 29.2928 18.8996 33.4249 23.9967 33.4249Z" />
</svg>
