<svg width="90" height="89" viewBox="0 0 90 89" fill="none" xmlns="http://www.w3.org/2000/svg">
<path d="M33.9043 53.729C29.8332 53.729 26.521 57.0403 26.521 61.1123C26.521 65.1844 29.8332 68.4957 33.9043 68.4957C37.9755 68.4957 41.2877 65.1844 41.2877 61.1123C41.2877 57.0403 37.9752 53.729 33.9043 53.729ZM33.9043 64.804C31.8683 64.804 30.2127 63.1475 30.2127 61.1123C30.2127 59.0772 31.8683 57.4207 33.9043 57.4207C35.9404 57.4207 37.596 59.0772 37.596 61.1123C37.596 63.1475 35.9401 64.804 33.9043 64.804Z" />
<path d="M52.2835 68.4959C54.3223 68.4959 55.9751 66.8431 55.9751 64.8042C55.9751 62.7654 54.3223 61.1125 52.2835 61.1125C50.2446 61.1125 48.5918 62.7654 48.5918 64.8042C48.5918 66.8431 50.2446 68.4959 52.2835 68.4959Z" />
<path d="M61.513 68.4959C63.5518 68.4959 65.2046 66.8431 65.2046 64.8042C65.2046 62.7654 63.5518 61.1125 61.513 61.1125C59.4741 61.1125 57.8213 62.7654 57.8213 64.8042C57.8213 66.8431 59.4741 68.4959 61.513 68.4959Z" />
<path d="M67.05 33.4249H27.3363L46.0817 17.8038L43.7184 14.9666L21.416 33.5519C17.9804 34.1821 15.3667 37.1925 15.3667 40.8082V66.6499C15.3667 70.7219 18.6789 74.0332 22.75 74.0332H67.05C71.1212 74.0332 74.4334 70.7219 74.4334 66.6499V40.8082C74.4334 36.7362 71.1212 33.4249 67.05 33.4249ZM70.7417 66.6499C70.7417 68.685 69.0861 70.3416 67.05 70.3416H22.75C20.714 70.3416 19.0584 68.685 19.0584 66.6499V40.8082C19.0584 38.7731 20.714 37.1166 22.75 37.1166H67.05C69.0861 37.1166 70.7417 38.7731 70.7417 40.8082V66.6499Z" />
<path d="M65.2042 40.8081H24.5958C23.5763 40.8081 22.75 41.6336 22.75 42.6539V50.0373C22.75 51.0576 23.5763 51.8831 24.5958 51.8831H65.2042C66.2237 51.8831 67.05 51.0576 67.05 50.0373V42.6539C67.05 41.6336 66.2237 40.8081 65.2042 40.8081ZM63.3583 48.1914H26.4417V44.4998H63.3583V48.1914Z" />
</svg>
