<svg width="89" height="89" viewBox="0 0 89 89" fill="none" xmlns="http://www.w3.org/2000/svg">
<path d="M64.8045 29.7332V24.1957C64.8045 19.1071 60.6639 14.9666 55.5754 14.9666C50.4868 14.9666 46.3462 19.1071 46.3462 24.1957V29.7332C46.3462 34.1898 49.5222 37.9187 53.7295 38.7763V68.4957C53.7295 71.5492 56.2136 74.0332 59.267 74.0332C62.3205 74.0332 64.8045 71.5492 64.8045 68.4957V62.9582H61.1128V68.4957C61.1128 69.514 60.2844 70.3416 59.267 70.3416C58.2496 70.3416 57.4212 69.514 57.4212 68.4957V38.7763C61.6285 37.9187 64.8045 34.1898 64.8045 29.7332ZM50.0379 29.7332V24.1957C50.0379 21.1423 52.5219 18.6582 55.5754 18.6582C58.6288 18.6582 61.1128 21.1423 61.1128 24.1957V29.7332C61.1128 32.7867 58.6288 35.2707 55.5754 35.2707C52.5219 35.2707 50.0379 32.7867 50.0379 29.7332Z" />
<path d="M38.963 31.5791C38.963 33.6142 37.3073 35.2707 35.2713 35.2707V14.9666H31.5796V35.2707C29.5436 35.2707 27.888 33.6142 27.888 31.5791V14.9666H24.1963V31.5791C24.1963 35.6511 27.5085 38.9624 31.5796 38.9624V68.4957C31.5796 71.5492 34.0637 74.0332 37.1171 74.0332C40.1706 74.0332 42.6546 71.5492 42.6546 68.4957V62.9582H38.963V68.4957C38.963 69.514 38.1345 70.3416 37.1171 70.3416C36.0997 70.3416 35.2713 69.514 35.2713 68.4957V38.9624C39.3425 38.9624 42.6546 35.6511 42.6546 31.5791V14.9666H38.963V31.5791Z" />
</svg>
