<svg width="90" height="89" viewBox="0 0 90 89" fill="none" xmlns="http://www.w3.org/2000/svg">
<path d="M63.5572 44.5064H61.3788L57.9822 27.5232C57.8159 26.6555 57.0593 26.0466 56.1733 26.0466H43.2515V29.7385H50.6399V45.9095L49.4987 48.1918H45.0977V42.6605C45.0977 41.6266 44.2669 40.8147 43.2518 40.8147H34.0218C32.7536 40.8147 31.5188 40.9677 30.3343 41.2542V24.1942C30.3343 23.1738 29.5076 22.3484 28.4884 22.3484H17.4122C16.3927 22.3484 15.5664 23.1741 15.5664 24.1942V42.654C15.5664 43.1656 15.7743 43.628 16.1101 43.9621L20.5747 48.4266C19.3275 50.5005 18.5475 52.8894 18.3862 55.4529C18.3679 55.9697 18.5525 56.4683 18.8848 56.8374C19.2356 57.2066 19.7339 57.4281 20.2324 57.4281H23.1893C23.0354 58.0244 22.9503 58.6407 22.9503 59.2674C22.9503 63.3398 26.2628 66.6513 30.3343 66.6513C34.4057 66.6513 37.7182 63.3398 37.7182 59.2674C37.7182 58.6407 37.6331 58.0241 37.4793 57.4281H56.1736H56.4169C56.263 58.0244 56.178 58.6407 56.178 59.2674C56.178 63.3398 59.4904 66.6513 63.5619 66.6513C67.6334 66.6513 70.9458 63.3398 70.9458 59.2674C70.9458 58.6407 70.8608 58.0241 70.7069 57.4281H72.7875C73.8029 57.4281 74.6334 56.5973 74.6334 55.5822C74.6331 49.4721 69.6673 44.5064 63.5572 44.5064ZM22.8582 45.4895L21.8685 44.4999H23.9302C23.5578 44.8132 23.2002 45.1434 22.8582 45.4895ZM19.2584 26.0401H26.6423V40.8079H19.2584V26.0401ZM34.0262 59.2677C34.0262 61.3029 32.3706 62.9597 30.3343 62.9597C28.2982 62.9597 26.6423 61.3029 26.6423 59.2677C26.6423 58.6147 26.8216 57.9833 27.1449 57.4284H33.5236C33.8469 57.983 34.0262 58.6144 34.0262 59.2677ZM41.4057 53.7364H22.3735C23.5918 48.4198 28.3913 44.5067 34.0215 44.5067H41.4054V53.7364H41.4057ZM67.2536 59.2677C67.2536 61.3029 65.5976 62.9597 63.5616 62.9597C61.5256 62.9597 59.8697 61.3029 59.8697 59.2677C59.8697 58.6212 60.0471 57.996 60.3791 57.4284H66.7509C67.0743 57.983 67.2536 58.6144 67.2536 59.2677ZM58.9054 53.7364H53.6074H45.0974V51.8838H50.6396C51.339 51.8838 51.9781 51.4889 52.2908 50.8634L54.1366 47.1715C54.2645 46.9154 54.3313 46.6325 54.3313 46.3457V29.7385H54.6591L58.1109 46.9243L58.3694 48.198H61.1198H63.5566C66.9901 48.198 69.8882 50.5424 70.7187 53.7358H58.9054V53.7364Z" />
<path d="M34.0265 38.9622H43.2562C44.2757 38.9622 45.1021 38.1364 45.1021 37.1163C45.1021 36.096 44.2754 35.2705 43.2562 35.2705H34.0265C33.007 35.2705 32.1807 36.0963 32.1807 37.1163C32.1804 38.1364 33.007 38.9622 34.0265 38.9622Z" />
<path d="M63.5616 33.4245H67.2536V26.0405H63.5616C61.5226 26.0405 59.8696 27.6935 59.8696 29.7325C59.8696 31.7715 61.5226 33.4245 63.5616 33.4245Z" />
</svg>
