<svg width="89" height="89" viewBox="0 0 89 89" fill="none" xmlns="http://www.w3.org/2000/svg">
<path d="M44.7 48.6169C41.7029 48.6169 38.9008 49.7135 36.7443 51.6816C35.8813 52.469 35.9242 53.8396 36.8571 54.5425C37.578 55.0856 38.5704 55.0109 39.2384 54.4043C40.721 53.0588 42.6439 52.3086 44.7 52.3086C46.7537 52.3086 48.6743 53.0558 50.1557 54.3984C50.8249 55.0047 51.8175 55.0791 52.5381 54.5348C53.4702 53.8311 53.5119 52.4607 52.6486 51.6742C50.4935 49.7109 47.6935 48.6169 44.7 48.6169Z" />
<path d="M73.9836 33.6737C67.9476 23.2729 56.7267 16.8125 44.6998 16.8125C32.673 16.8125 21.4521 23.2729 15.4161 33.6737C15.2522 33.9548 15.1665 34.2939 15.1665 34.6199C15.1665 35.0363 15.3071 35.4401 15.5658 35.7664L28.8706 52.5449C29.9745 53.9365 30.2911 55.8346 29.6889 57.5162C29.3573 58.4805 29.1895 59.4719 29.1895 60.4616C29.1895 62.7292 30.0339 64.8724 31.559 66.4893C34.9243 70.1107 39.7137 72.1872 44.6998 72.1872C47.1892 72.1872 49.6171 71.6807 51.9237 70.6801C54.1886 69.6869 56.1794 68.2773 57.8342 66.4982C60.0929 64.0954 60.8103 60.6506 59.6963 57.4764C59.5079 56.9663 59.4125 56.3931 59.4125 55.7711C59.4125 54.5939 59.8082 53.4495 60.5291 52.5446L73.8339 35.7661C74.0926 35.4398 74.2332 35.036 74.2332 34.6196V34.5998C74.2332 34.2741 74.1475 33.9548 73.9836 33.6737ZM57.6396 50.2484C56.4021 51.7986 55.7208 53.7599 55.7208 55.7714C55.7208 56.8331 55.8939 57.8373 56.2237 58.7277C56.869 60.5664 56.4553 62.5744 55.1378 63.9766C53.8218 65.3916 52.2421 66.5091 50.4485 67.2971C44.9435 69.6837 38.2713 68.2885 34.2542 63.966C33.3691 63.0286 32.8815 61.7832 32.8815 60.4619C32.8815 59.8816 32.9825 59.2938 33.1727 58.7386C34.1931 55.8869 33.6532 52.635 31.7639 50.2522L19.2504 34.4725C21.5097 30.9256 24.4719 27.9504 27.8818 25.6604L35.2861 45.9279L38.7542 44.6624L31.1198 23.7649C34.7374 21.9374 38.7211 20.8193 42.8543 20.5638V42.5121H46.546V20.5635C50.6789 20.819 54.6629 21.9371 58.2804 23.7646L50.6461 44.6621L54.1142 45.9276L61.5185 25.6601C64.9287 27.9501 67.8909 30.9253 70.1499 34.4723L57.6396 50.2484Z" />
</svg>
