<svg width="89" height="89" viewBox="0 0 89 89" fill="none" xmlns="http://www.w3.org/2000/svg">
<path d="M23.9967 33.4249C29.0939 33.4249 33.2259 29.2928 33.2259 24.1957C33.2259 19.0986 29.0939 14.9666 23.9967 14.9666C18.8996 14.9666 14.7676 19.0986 14.7676 24.1957C14.7676 29.2928 18.8996 33.4249 23.9967 33.4249Z" />
<path d="M71.9877 59.2666H61.6809C68.4213 55.0138 72.9107 47.5049 72.9107 38.9624C72.9107 25.7315 62.1458 14.9666 48.9148 14.9666C47.8944 14.9666 47.069 15.792 47.069 16.8124V59.2666H43.3773V31.6174C43.3773 30.7613 42.7878 30.0185 41.955 29.8203C41.1222 29.6275 40.2624 30.0259 39.8803 30.792L28.8053 52.942C28.5188 53.5135 28.5492 54.193 28.8865 54.7373C29.2238 55.2816 29.8165 55.6133 30.4565 55.6133H39.6857V59.2666H23.0732C22.4169 59.2666 21.8094 59.6145 21.4778 60.1824L15.0174 71.2574C14.6857 71.8288 14.6821 72.5335 15.012 73.1068C15.3419 73.68 15.9512 74.0332 16.6127 74.0332H60.9127C68.0365 74.0332 73.8336 68.2361 73.8336 61.1124C73.8336 60.092 73.0081 59.2666 71.9877 59.2666ZM50.7607 18.7412C61.0947 19.6768 69.219 28.3886 69.219 38.9624C69.219 49.5362 61.095 58.2479 50.7607 59.1836V18.7412ZM33.4435 51.9216L39.6857 39.437V51.9216H33.4435ZM60.9127 70.3416H19.8269L24.1331 62.9582H69.9561C69.0982 67.1652 65.3705 70.3416 60.9127 70.3416Z" />
</svg>
