<svg width="90" height="89" viewBox="0 0 90 89" fill="none" xmlns="http://www.w3.org/2000/svg">
<path d="M31.979 29.7332H35.6707V33.4248H31.979V29.7332Z" />
<path d="M54.1294 29.7332H57.8211V33.4248H54.1294V29.7332Z" />
<path d="M74.3109 48.8549C74.6452 47.9842 74.2784 47.0019 73.4565 46.5619L65.2043 42.1608V24.1957C65.2043 23.1753 64.3779 22.3499 63.3584 22.3499H55.9751V16.8124C55.9751 15.792 55.1488 14.9666 54.1293 14.9666H35.6709C34.6514 14.9666 33.8251 15.792 33.8251 16.8124V22.3499H26.4418C25.4223 22.3499 24.5959 23.1753 24.5959 24.1957V42.1608L16.3437 46.5619C15.5218 47.0017 15.155 47.9842 15.4893 48.8549L23.0109 68.4107C21.2241 67.5353 19.0954 66.6499 15.3668 66.6499V70.3416C18.6222 70.3416 20.1526 71.1059 21.9246 71.9928C23.8369 72.9499 26.0056 74.0332 30.1317 74.0332C34.2578 74.0332 36.4243 72.9499 38.3369 71.9928C40.1089 71.1059 41.6376 70.3416 44.8927 70.3416C48.15 70.3416 49.6804 71.1059 51.4524 71.9928C53.3667 72.9499 55.5351 74.0332 59.6632 74.0332C63.7914 74.0332 65.9597 72.9499 67.8741 71.9928C69.6461 71.1059 71.1765 70.3416 74.4337 70.3416V66.6499C70.7063 66.6499 68.5779 67.5332 66.7902 68.4092L74.3109 48.8549ZM37.5168 18.6582H52.2834V22.3499H37.5168V18.6582ZM28.2876 26.0416H61.5126V40.1919L48.8242 33.4249H50.4376V29.7332H46.7459V32.3165L45.769 31.7955C45.2264 31.507 44.5738 31.507 44.0312 31.7955L43.0543 32.3165V29.7332H39.3626V33.4249H40.976L28.2876 40.1919V26.0416ZM53.1036 68.6903C51.1892 67.7332 49.0209 66.6499 44.8927 66.6499C40.7666 66.6499 38.5983 67.7349 36.6857 68.6903C34.9137 69.5772 33.3851 70.3416 30.1317 70.3416C29.1644 70.3416 28.3523 70.2727 27.6385 70.1546L19.5218 49.0513L43.0543 36.502V55.5749H46.7459V36.502L70.2784 49.0513L62.162 70.154C61.4468 70.2724 60.6325 70.3416 59.6632 70.3416C56.406 70.3416 54.8756 69.5772 53.1036 68.6903Z" />
</svg>
