<svg width="89" height="89" viewBox="0 0 89 89" fill="none" xmlns="http://www.w3.org/2000/svg">
<path d="M74.0084 71.8847L64.7792 16.5097C64.6316 15.6192 63.8607 14.9666 62.9585 14.9666H26.0418C25.1396 14.9666 24.3691 15.6189 24.2211 16.5097L14.9919 71.8847C14.9027 72.4201 15.0534 72.9662 15.4039 73.3808C15.7545 73.7955 16.2701 74.0332 16.8127 74.0332H37.1168C37.9532 74.0332 38.6851 73.4709 38.9004 72.6632L44.5002 51.6632L50.1 72.6632C50.3153 73.4709 51.0471 74.0332 51.8835 74.0332H72.1877C72.7302 74.0332 73.2458 73.7952 73.5964 73.3808C73.947 72.9665 74.0976 72.4201 74.0084 71.8847ZM61.3947 18.6582L62.0099 22.3499H47.4116H41.5917H26.9901L27.6053 18.6582H61.3947ZM18.9919 70.3416L19.6071 66.6499H36.6833L35.6989 70.3416H18.9919ZM44.5002 42.6541C43.6638 42.6541 42.9319 43.2164 42.7167 44.0241L37.6679 62.9582H20.2226L26.3753 26.0416H37.3327L33.3253 29.515C32.287 30.2701 31.6535 31.4166 31.5858 32.6567C31.5182 33.8862 32.0167 35.0811 32.9532 35.9337C33.7997 36.7052 34.8918 37.118 36.0365 37.118C36.2996 37.118 36.5663 37.0965 36.8324 37.0513C38.2149 36.8206 39.3785 36.0129 40.0247 34.8342L44.5002 26.6869L48.9751 34.8345C49.623 36.0135 50.7875 36.8209 52.1691 37.0516C53.595 37.2932 55.0064 36.8821 56.0474 35.934C56.9839 35.0814 57.4821 33.8883 57.4148 32.657C57.3472 31.4169 56.7137 30.2704 55.7961 29.6107L51.6747 26.0416H62.6254L68.778 62.9582H51.3327L46.284 44.0241C46.0684 43.2164 45.3366 42.6541 44.5002 42.6541ZM38.5327 29.8809L36.7887 33.0569C36.6473 33.3147 36.3472 33.3903 36.2243 33.4101C35.9269 33.4553 35.6331 33.3829 35.4376 33.2046C35.3203 33.0982 35.2645 32.981 35.2707 32.8584C35.2778 32.7249 35.3572 32.6006 35.6195 32.4007L38.5327 29.8809ZM50.4612 29.872L53.5013 32.4967C53.6428 32.6012 53.7214 32.7255 53.7284 32.8573C53.7355 32.9816 53.6788 33.0988 53.5616 33.2052C53.3661 33.3835 53.0749 33.4594 52.7757 33.4107C52.6531 33.3909 52.3522 33.3153 52.2104 33.0575L50.4612 29.872ZM53.3014 70.3416L52.3171 66.6499H69.3932L70.0084 70.3416H53.3014Z" />
</svg>
