<svg width="90" height="89" viewBox="0 0 90 89" fill="none" xmlns="http://www.w3.org/2000/svg">
<path d="M70.9045 18.6799C66.6174 14.4008 60.0011 13.7662 54.9922 17.0754C54.9878 17.0748 54.9836 17.0739 54.9795 17.0733C53.4299 16.8887 51.7881 17.387 50.6077 18.586L49.4086 19.7668C48.4125 20.7629 47.859 22.091 47.859 23.493C47.859 23.5851 47.859 23.6956 47.8773 23.788L24.4128 47.3264C22.9556 47.2342 21.4982 47.7322 20.3915 48.8391L19.1925 50.0378C18.1963 51.034 17.6429 52.3438 17.6429 53.764C17.6429 53.9855 17.6612 54.2068 17.6798 54.4097C17.6801 54.4132 17.681 54.4164 17.6816 54.42C14.3679 59.4221 15.0097 66.0387 19.2902 70.3116C21.7545 72.7705 24.9837 74.0298 28.2353 74.0298C30.6476 74.0298 33.0693 73.3266 35.2031 71.9161C35.2037 71.9161 35.204 71.9161 35.2046 71.9164H35.2229C35.4258 71.9347 35.647 71.953 35.8685 71.953C37.2152 71.953 38.5619 71.4365 39.5947 70.4034L40.7938 69.2227C41.7899 68.2265 42.3248 66.8984 42.3248 65.4965C42.3248 65.4043 42.3248 65.2936 42.3065 65.2011L65.7896 41.6628C65.8817 41.6811 65.9925 41.6811 66.0846 41.6811C67.4313 41.6811 68.7781 41.1645 69.8108 40.1501L71.0099 38.951C72.0061 37.9549 72.5409 36.6451 72.5409 35.2248C72.5409 35.0042 72.5226 34.7833 72.504 34.581C75.8312 29.5783 75.1995 22.9679 70.9045 18.6799ZM68.2979 21.2921C70.8894 23.8784 71.597 27.6589 70.294 30.9115C70.2928 30.9106 70.2919 30.9094 70.2908 30.9085C68.299 29.5255 65.5516 29.6725 63.7252 31.3683L58.1942 25.8486C59.095 24.8719 59.5914 23.6197 59.5914 22.2939C59.5914 21.2118 59.2618 20.1666 58.6416 19.3028C61.9068 17.9945 65.7036 18.7003 68.2979 21.2921ZM52.0096 22.3861L53.2087 21.1873C53.8174 20.5783 54.8321 20.5783 55.4405 21.1873C55.7359 21.4823 55.9018 21.8881 55.9018 22.2939C55.9018 22.7183 55.7359 23.1058 55.4405 23.4008L54.2415 24.5999C53.6328 25.2089 52.6366 25.2089 52.0093 24.5999C51.7143 24.3048 51.548 23.8991 51.548 23.4933C51.5483 23.0686 51.7143 22.6814 52.0096 22.3861ZM36.4589 40.464V60.2759C35.3895 60.3866 34.339 60.8473 33.5091 61.6394L27.9884 56.1285L27.9916 56.1252C28.8771 55.1474 29.3753 53.8931 29.3753 52.565C29.3753 51.2369 28.8774 49.964 27.955 48.9864L36.4589 40.464ZM21.7935 52.6574L22.9925 51.4584C23.2876 51.145 23.6937 50.9971 24.0995 50.9971C24.5052 50.9971 24.911 51.1447 25.2247 51.4584C25.52 51.7537 25.686 52.1409 25.686 52.5653C25.686 52.99 25.52 53.3772 25.2247 53.6722L24.0256 54.8713C23.4169 55.4799 22.4022 55.4799 21.7935 54.8713C21.4984 54.5759 21.3322 54.1701 21.3322 53.7643C21.3322 53.34 21.4984 52.9528 21.7935 52.6574ZM21.8969 67.6994C19.3094 65.1173 18.6012 61.3261 19.9063 58.0703C20.8077 58.7097 21.872 59.0216 22.9187 59.0216C23.6937 59.0216 24.4314 58.8556 25.1322 58.5053H25.1452L31.1051 64.4545C30.7761 65.135 30.611 65.9061 30.611 66.6955C30.611 67.7838 30.9246 68.8169 31.5333 69.684C31.5359 69.6875 31.5392 69.6902 31.5416 69.694C28.2793 70.9947 24.4908 70.2888 21.8969 67.6994ZM38.1744 66.6034L36.9937 67.8024C36.6801 68.1161 36.2743 68.2637 35.8685 68.2637C35.4627 68.2637 35.0752 68.1161 34.7619 67.8024C34.4665 67.5071 34.3006 67.1013 34.3006 66.6955C34.3006 66.2711 34.4665 65.8839 34.7619 65.5886L35.9423 64.3896C36.256 64.0759 36.6618 63.9282 37.0675 63.9282C37.4733 63.9282 37.8791 64.0759 38.1744 64.3896C38.4698 64.6846 38.6358 65.0907 38.6358 65.4965C38.6355 65.9209 38.4695 66.3083 38.1744 66.6034ZM43.3764 33.5281L46.8259 30.0786V55.443L43.3764 58.8925V33.5281ZM53.7435 48.5068V28.7133C54.2952 28.6397 54.8469 28.4927 55.362 28.236L61.3451 34.2074C61.3445 34.2086 61.3439 34.2097 61.3433 34.2106C60.9928 34.8931 60.8268 35.6492 60.8268 36.4241C60.8268 37.7526 61.3064 39.0251 62.2288 40.003L53.7435 48.5068ZM68.3903 36.3506L67.2096 37.5311C66.6009 38.14 65.5861 38.1583 64.9774 37.5311C64.6821 37.236 64.5161 36.8488 64.5161 36.4241C64.5161 35.9998 64.6821 35.6126 64.9774 35.3172L66.1765 34.1182C66.7852 33.5095 67.7813 33.5095 68.39 34.1182C68.7036 34.4135 68.8513 34.8193 68.8513 35.2248C68.8516 35.6492 68.7039 36.0553 68.3903 36.3506Z" />
</svg>
