<svg width="89" height="89" viewBox="0 0 89 89" fill="none" xmlns="http://www.w3.org/2000/svg">
<path d="M58.3443 59.066H56.4985V53.2347C62.8165 49.4837 67.5744 40.8974 67.5744 33.2235C67.5744 24.5581 61.6786 17.1529 53.2374 15.217C53.1961 15.2079 53.1518 15.199 53.1066 15.1919C50.4105 14.6204 47.7371 14.6222 45.0141 15.2152C39.6152 16.4412 35.259 19.9063 32.8133 24.5106C31.9394 23.686 30.7646 23.1774 29.4684 23.1774C27.1796 23.1774 25.2643 24.7554 24.7371 26.8812C24.6122 26.865 24.4888 26.8431 24.3594 26.8431C22.7398 26.8431 21.4268 28.1559 21.4268 29.7755C21.4268 30.1089 21.4944 30.4237 21.5969 30.7223H30.8222C30.7129 31.5416 30.6547 32.3762 30.6547 33.2235C30.6547 40.8974 35.4123 49.4837 41.7306 53.2347V59.066H39.8848C38.8653 59.066 38.039 59.8918 38.039 60.9119V71.9872C38.039 73.0075 38.8656 73.833 39.8848 73.833H58.3446C59.3641 73.833 60.1904 73.0073 60.1904 71.9872V60.9119C60.1901 59.8918 59.3635 59.066 58.3443 59.066ZM63.8821 33.2235C63.8821 39.5472 60.0847 46.59 54.9822 49.8366H53.2613C57.445 45.4671 60.1901 39.147 60.1901 33.2235C60.1901 27.6869 57.7454 22.6198 53.645 19.1656C53.6397 19.1612 53.6308 19.1568 53.6255 19.152C59.7226 21.0968 63.8821 26.7141 63.8821 33.2235ZM45.4223 53.5282H52.8062V59.066H45.4223V53.5282ZM49.1137 20.4802C53.678 23.1181 56.4982 27.9001 56.4982 33.2235C56.4982 38.8198 53.4524 45.061 49.1128 48.6706C44.7859 45.0808 41.7303 38.8289 41.7303 33.2235C41.7303 27.8989 44.5517 23.116 49.1137 20.4802ZM34.3467 33.2235C34.3467 26.8097 38.5971 21.08 44.6039 19.1506C44.5939 19.1591 44.5818 19.1653 44.572 19.1736C40.5141 22.6677 38.0387 27.6907 38.0387 33.2232C38.0387 39.152 40.7882 45.4781 44.9619 49.8363H43.2466C38.1441 46.59 34.3467 39.5472 34.3467 33.2235ZM56.4982 70.1416H41.7303V62.758H56.4982V70.1416Z" />
</svg>
