<svg width="89" height="89" viewBox="0 0 89 89" fill="none" xmlns="http://www.w3.org/2000/svg">
<path d="M28.1543 14.9666C24.67 14.9666 21.3965 16.8375 18.9396 20.23L18.7837 20.4426C16.1313 24.1053 14.8649 28.6065 15.2273 33.1975L18.1718 56.732L18.7955 65.2346C19.0333 70.1685 23.0891 74.0332 28.0282 74.0332C33.0575 74.0332 37.2034 69.9414 37.271 64.9248L37.4349 56.7521L40.8932 33.4033C41.3826 28.722 40.1325 24.0463 37.3729 20.2356C34.9113 16.8375 31.6378 14.9666 28.1543 14.9666ZM37.2311 32.9399L33.7657 56.3265C33.7539 56.4039 33.7477 56.4816 33.7459 56.5589L33.579 64.8616C33.5386 67.8826 31.0483 70.3416 28.0279 70.3416C25.0619 70.3416 22.6257 68.0199 22.4804 65.0114L21.844 56.3682L18.8986 32.8248C18.613 29.1907 19.634 25.5622 21.7692 22.6151L21.9252 22.4025C23.6733 19.9884 25.8859 18.6582 28.1543 18.6582C30.4219 18.6582 32.6346 19.9884 34.3832 22.4022C36.6086 25.4736 37.6162 29.243 37.2311 32.9399Z" />
<path d="M29.9246 23.9397H26.233V28.1464C23.4373 30.8771 21.8481 34.6198 21.8481 38.5495C21.8481 39.7392 21.9958 40.9234 22.2879 42.0717L25.8659 41.1597C25.6497 40.3106 25.5395 39.4329 25.5395 38.5495C25.5395 36.6387 26.0493 34.7908 26.9769 33.1689H29.1795C30.1071 34.7911 30.6166 36.6396 30.6166 38.5495C30.6166 39.4329 30.5067 40.3106 30.2902 41.1597L33.8682 42.0717C34.1603 40.9234 34.308 39.7392 34.308 38.5495C34.308 34.6195 32.7194 30.8768 29.924 28.1458V23.9397H29.9246Z" />
<path d="M70.6053 20.4373L70.4585 20.2353C67.9969 16.8375 64.7234 14.9666 61.24 14.9666H61.2391C57.7556 14.9666 54.4813 16.8375 52.0208 20.2356C49.2601 24.0463 48.0102 28.722 48.5102 33.481L51.9585 56.7521L52.1224 64.9107C52.1883 69.9417 56.3351 74.0335 61.3652 74.0335C66.3043 74.0335 70.3602 70.1688 70.5952 65.2819L71.2116 56.8259L74.175 33.113C74.5276 28.6048 73.2615 24.1056 70.6053 20.4373ZM70.5034 32.74L67.5391 56.4618L66.9101 65.0583C66.7677 68.0199 64.3315 70.3416 61.3655 70.3416C58.3445 70.3416 55.8543 67.8847 55.8144 64.8492L55.6475 56.5592C55.6458 56.4818 55.6396 56.4042 55.6277 56.3268L52.1723 33.0176C51.7766 29.243 52.7843 25.4739 55.0105 22.4022C56.7589 19.9884 58.9706 18.6582 61.2403 18.6582C63.5087 18.6582 65.7205 19.9884 67.4727 22.4075L67.6195 22.6095C69.7583 25.5619 70.7792 29.1889 70.5034 32.74Z" />
<path d="M63.1609 23.9397H59.4693V28.1458C56.6737 30.8768 55.0845 34.6213 55.0845 38.5495C55.0845 39.7356 55.2321 40.9199 55.5242 42.0699L59.1022 41.1615C58.886 40.3088 58.7758 39.4293 58.7758 38.5495C58.7758 36.6396 59.2859 34.7911 60.2135 33.1689H62.4158C63.3438 34.7911 63.8535 36.6396 63.8535 38.5495C63.8535 39.4293 63.7436 40.3088 63.5272 41.1615L67.1051 42.0699C67.3972 40.9199 67.5449 39.7356 67.5449 38.5495C67.5449 34.621 65.9557 30.8768 63.1601 28.1458V23.9397H63.1609Z" />
</svg>
