<svg width="89" height="90" viewBox="0 0 89 90" fill="none" xmlns="http://www.w3.org/2000/svg">
<path d="M73.8333 43.2542H69.4065L71.4313 40.2169L68.3599 38.1691L64.97 43.2542H54.0211V41.1614C54.0211 40.4621 53.6263 39.8239 53.0007 39.5102L52.667 39.3433L60.2211 31.789L66.2128 32.9884L66.9375 29.3688L63.3578 28.6523L66.4951 25.515L63.885 22.9048L60.7479 26.0421L60.032 22.4615L56.4124 23.1863L57.6112 29.1792L49.1871 37.6038L46.1458 36.0835V24.4302L51.2308 21.0412L49.183 17.9698L46.1458 19.9937V15.5667H42.4541V19.9934L39.4169 17.9695L37.3691 21.0409L42.4541 24.4299V36.0832L39.4128 37.6035L30.9887 29.1789L32.1874 23.186L28.5678 22.4612L27.8519 26.0421L24.7149 22.9048L22.1047 25.515L25.2421 28.6523L21.6623 29.3688L22.3871 32.9884L28.3788 31.789L35.9328 39.3433L35.5991 39.5102C34.9736 39.8239 34.5787 40.4621 34.5787 41.1614V43.2542H23.6299L20.24 38.1691L17.1685 40.2169L19.1934 43.2542H14.7666V46.9458H19.1934L17.1685 49.983L20.24 52.0309L23.6299 46.9458H34.5787V49.0385C34.5787 49.7379 34.9736 50.3761 35.5991 50.6898L35.9328 50.8566L28.3785 58.4109L22.3868 57.2116L21.662 60.8312L25.2418 61.5477L22.1045 64.685L24.7146 67.2952L27.8516 64.1581L28.5675 67.7388L32.1871 67.014L30.9884 61.0211L39.4125 52.5964L42.4538 54.1168V65.7701L37.3688 69.159L39.4166 72.2305L42.4538 70.2066V74.6333H46.1455V70.2066L49.1827 72.2305L51.2305 69.159L46.1455 65.7701V54.1165L49.1868 52.5961L57.6109 61.0208L56.4121 67.0137L60.0317 67.7385L60.7476 64.1578L63.8847 67.2949L66.4948 64.6847L63.3575 61.5474L66.9372 60.8309L66.2125 57.2113L60.2208 58.4107L52.6667 50.8563L53.0005 50.6895C53.626 50.3758 54.0208 49.7376 54.0208 49.0383V46.9455H64.9697L68.3596 52.0306L71.431 49.9827L69.4062 46.9455H73.8333V43.2542ZM50.3295 47.8977L44.2999 50.9115L38.2704 47.8977V42.3026L44.2999 39.2884L50.3295 42.3023V47.8977Z" />
<path d="M43.8595 41.3822L40.9061 42.8589C40.5727 43.0257 40.3618 43.3665 40.3618 43.7393V46.4602C40.3618 46.8332 40.5724 47.174 40.9061 47.3406L43.8595 48.8172C44.1365 48.9557 44.4628 48.9557 44.7398 48.8172L47.6932 47.3406C48.0266 47.1737 48.2375 46.8329 48.2375 46.4602V43.7393C48.2375 43.3663 48.0269 43.0254 47.6932 42.8589L44.7398 41.3822C44.4628 41.2437 44.1368 41.2437 43.8595 41.3822Z" />
</svg>
