<svg width="90" height="90" viewBox="0 0 90 90" fill="none" xmlns="http://www.w3.org/2000/svg">
<path d="M73.2184 43.3658L61.0819 38.9476L66.491 27.3481C66.8191 26.6452 66.672 25.8106 66.1233 25.2624C65.5754 24.7146 64.7435 24.5631 64.0385 24.8948L51.6841 30.6546L46.6336 16.7814C46.369 16.0516 45.6762 15.5667 44.9 15.5667C44.1239 15.5667 43.431 16.0516 43.1649 16.7817L38.1159 30.6546L25.7621 24.895C25.0575 24.5634 24.2237 24.7149 23.6774 25.2627C23.1284 25.8106 22.9816 26.6452 23.3097 27.3484L28.7187 38.9479L16.5814 43.3661C15.8516 43.631 15.3667 44.3247 15.3667 45.1C15.3667 45.8752 15.8516 46.569 16.5817 46.8342L28.7181 51.2521L23.3097 62.8516C22.9816 63.5545 23.1286 64.3891 23.6774 64.9372C24.0315 65.2904 24.5037 65.478 24.9833 65.478C25.2465 65.478 25.5132 65.4222 25.763 65.3049L38.1156 59.5441L43.1649 73.4183C43.4307 74.1484 44.1239 74.6333 44.9 74.6333C45.6762 74.6333 46.369 74.1484 46.6342 73.4183L51.685 59.5438L64.0379 65.3049C64.2875 65.4222 64.5545 65.478 64.8176 65.478C65.2972 65.478 65.7695 65.2904 66.1236 64.9372C66.6726 64.3894 66.8194 63.5548 66.4913 62.8516L61.0828 51.2518L73.2187 46.8339C73.9487 46.569 74.4337 45.8749 74.4337 45.0997C74.4337 44.3244 73.9484 43.631 73.2184 43.3658ZM61.0025 30.3838L57.6 37.68L53.7293 36.271L52.9523 34.1366L61.0025 30.3838ZM28.7985 30.3838L36.8487 34.1363L36.0719 36.271L32.2013 37.68L28.7985 30.3838ZM28.7985 59.8161L32.2007 52.5196L36.0722 53.929L36.8484 56.0619L28.7985 59.8161ZM61.0025 59.8161L52.9526 56.0616L53.729 53.9287L57.6003 52.5193L61.0025 59.8161ZM51.6578 50.7547C51.1452 50.9405 50.7411 51.3442 50.5548 51.8578L44.9 67.3906L39.2471 51.8578C39.0595 51.3439 38.6558 50.9402 38.1431 50.7547L22.6095 45.1L38.1431 39.4452C38.6558 39.2595 39.0598 38.8557 39.2471 38.3422L44.9 22.8094L50.5548 38.3422C50.7414 38.856 51.1452 39.2598 51.6578 39.4452L67.1915 45.1L51.6578 50.7547Z" />
<path d="M44.8998 50.3712C47.8111 50.3712 50.1712 48.0111 50.1712 45.0998C50.1712 42.1885 47.8111 39.8284 44.8998 39.8284C41.9885 39.8284 39.6284 42.1885 39.6284 45.0998C39.6284 48.0111 41.9885 50.3712 44.8998 50.3712Z" />
</svg>
