<svg width="89" height="90" viewBox="0 0 89 90" fill="none" xmlns="http://www.w3.org/2000/svg">
<path d="M73.7691 37.6895C73.1861 35.9411 71.7177 34.6883 69.9398 34.4199L62.1846 33.2409C57.9046 32.5903 54.2014 29.7675 52.2771 25.6919L48.809 18.3434C48.0015 16.6328 46.3512 15.5693 44.5009 15.5693H44.5C42.6498 15.5693 40.9986 16.6328 40.1902 18.3434L36.7221 25.6922C34.7989 29.7675 31.0957 32.5903 26.8146 33.2412L19.0603 34.4202C17.2812 34.6886 15.814 35.9414 15.231 37.6898C14.6291 39.4922 15.0724 41.4461 16.3881 42.7873L21.9995 48.5085C25.1268 51.6954 26.5518 56.2917 25.8116 60.8052L24.4868 68.8823C24.1731 70.7949 24.9437 72.6641 26.4974 73.7615C27.3131 74.3383 28.2576 74.6304 29.2065 74.6304C29.9806 74.6304 30.7567 74.4375 31.4696 74.0444L38.4067 70.2302C42.2198 68.1357 46.7768 68.1339 50.5934 70.2302L57.5293 74.0444C59.1173 74.9186 61.0216 74.8088 62.5015 73.7615C64.0553 72.6638 64.8258 70.7946 64.5121 68.8823L63.1873 60.8052C62.4475 56.2937 63.8721 51.6954 66.9994 48.5085L72.6116 42.7873C73.9277 41.4459 74.3712 39.4919 73.7691 37.6895ZM69.9767 40.2022L64.3645 45.9234C60.417 49.9467 58.6155 55.7344 59.5446 61.4033L60.8695 69.4804C60.9938 70.2411 60.5189 70.6431 60.3701 70.7476C60.179 70.8847 59.7862 71.074 59.3084 70.8108L52.3716 66.9966C49.9076 65.641 47.2038 64.9632 44.5 64.9632C41.7963 64.9632 39.0925 65.641 36.6276 66.9966L29.6908 70.8108C29.2151 71.074 28.8211 70.8847 28.6291 70.7476C28.4803 70.6431 28.0054 70.2411 28.1297 69.4804L29.4546 61.4033C30.3837 55.7326 28.5822 49.9467 24.6347 45.9234L19.0234 40.2022C18.5116 39.6795 18.6711 39.0415 18.7322 38.8576C18.8016 38.6502 19.0261 38.1582 19.6147 38.0681L27.3698 36.8892C32.8675 36.0545 37.6117 32.4568 40.0603 27.2675L43.5284 19.9187C43.8087 19.3257 44.3007 19.2607 44.5 19.2607C44.6982 19.2607 45.1905 19.3257 45.4708 19.9187L48.9389 27.2675C51.3884 32.4568 56.1326 36.0548 61.6294 36.8892L69.3854 38.0681C69.974 38.1582 70.1985 38.6502 70.2679 38.8576C70.329 39.0415 70.4885 39.6795 69.9767 40.2022Z" />
<path d="M42.6543 28.5618H46.346V35.9448H42.6543V28.5618Z" />
<path d="M33.5073 60.6353L37.0962 54.8467L40.2339 56.792L36.645 62.5806L33.5073 60.6353Z" />
<path d="M47.5494 47.8586L51.5074 47.2697L50.9646 43.6179L46.3459 44.3052V39.6362H42.6542V44.3052L38.0355 43.6179L37.4927 47.2697L41.4507 47.8586L39.0376 51.7452L42.174 53.692L44.5001 49.9451L46.8261 53.692L49.9625 51.7452L47.5494 47.8586Z" />
<path d="M48.7705 56.8679L51.9082 54.9226L55.4971 60.7112L52.3594 62.6565L48.7705 56.8679Z" />
<path d="M54.6099 43.0664L61.912 41.9811L62.4547 45.6324L55.1526 46.7178L54.6099 43.0664Z" />
<path d="M26.5283 45.6348L27.071 41.9834L34.3732 43.0688L33.8304 46.7201L26.5283 45.6348Z" />
</svg>
