<svg width="90" height="90" viewBox="0 0 90 90" fill="none" xmlns="http://www.w3.org/2000/svg">
<path d="M69.0956 41.4083H67.2497V35.8708C67.2497 34.8504 66.4234 34.025 65.4039 34.025H58.0206C57.0011 34.025 56.1747 34.8504 56.1747 35.8708V41.4083H54.3289C53.6809 41.4083 53.0613 41.5182 52.4831 41.7099V32.1791C52.4831 29.1257 50.165 26.6417 47.315 26.6417H41.4081V17.4125C41.4081 16.3921 40.5817 15.5667 39.5622 15.5667H28.4872C27.4677 15.5667 26.6414 16.3921 26.6414 17.4125V26.6417H20.7344C17.8845 26.6417 15.5664 29.1257 15.5664 32.1791V65.4041C15.5664 67.9951 17.2377 70.1696 19.4843 70.7709C19.3396 71.1067 19.2581 71.4756 19.2581 71.8646C19.2581 73.3938 20.4976 74.6333 22.0268 74.6333C23.5561 74.6333 24.7956 73.3938 24.7956 71.8646C24.7956 71.5391 24.7291 71.2317 24.6261 70.9417H43.4234C43.3204 71.2317 43.2539 71.5391 43.2539 71.8646C43.2539 73.3938 44.4934 74.6333 46.0227 74.6333C47.5519 74.6333 48.7914 73.3938 48.7914 71.8646C48.7914 71.4759 48.7099 71.1067 48.5652 70.7709C49.3452 70.5621 50.056 70.167 50.6508 69.6265C51.245 70.1212 51.9509 70.5007 52.7323 70.7207C52.5729 71.0701 52.4789 71.4555 52.4789 71.8646C52.4789 73.3938 53.7184 74.6333 55.2477 74.6333C56.7769 74.6333 58.0164 73.3938 58.0164 71.8646C58.0164 71.5391 57.95 71.2317 57.8469 70.9417H65.5693C65.4662 71.2317 65.3998 71.5391 65.3998 71.8646C65.3998 73.3938 66.6393 74.6333 68.1685 74.6333C69.6978 74.6333 70.9373 73.3938 70.9373 71.8646C70.9373 71.4561 70.8434 71.0713 70.6848 70.7222C72.9656 70.0831 74.6331 68.1076 74.6331 65.7736V46.5764C74.6331 43.7264 72.149 41.4083 69.0956 41.4083ZM59.8664 37.7167H63.5581V41.4083H59.8664V37.7167ZM30.3331 19.2583H37.7164V26.6417H30.3331V19.2583ZM19.2581 32.1791C19.2581 31.1789 19.9341 30.3333 20.7344 30.3333H47.315C48.1154 30.3333 48.7914 31.1789 48.7914 32.1791V65.4041C48.7914 66.4044 48.1154 67.25 47.315 67.25H20.7344C19.9341 67.25 19.2581 66.4044 19.2581 65.4041V32.1791ZM70.9414 65.7736C70.9414 66.574 70.0959 67.25 69.0956 67.25H54.3289C53.3286 67.25 52.4831 66.574 52.4831 65.7736V46.5764C52.4831 45.776 53.3286 45.1 54.3289 45.1H69.0956C70.0959 45.1 70.9414 45.776 70.9414 46.5764V65.7736Z" />
<path d="M24.7954 35.8706H28.4871V61.7123H24.7954V35.8706Z" />
<path d="M32.1787 35.8706H35.8704V61.7123H32.1787V35.8706Z" />
<path d="M39.5625 35.8706H43.2542V61.7123H39.5625V35.8706Z" />
<path d="M62.2383 61.4048L64.8483 58.7948L68.5349 62.4814L65.9249 65.0914L62.2383 61.4048Z" />
<path d="M59.8992 49.2527L56.2075 54.7902H63.5909L59.8992 49.2527Z" />
</svg>
