<svg width="89" height="90" viewBox="0 0 89 90" fill="none" xmlns="http://www.w3.org/2000/svg">
<path d="M44.6998 59.8671C52.8552 59.8671 59.4664 53.2558 59.4664 45.1004C59.4664 36.945 52.8552 30.3337 44.6998 30.3337C36.5444 30.3337 29.9331 36.945 29.9331 45.1004C29.9331 53.2558 36.5444 59.8671 44.6998 59.8671Z" />
<path d="M42.854 15.5667H46.5457V24.7958H42.854V15.5667Z" />
<path d="M42.854 65.4041H46.5457V74.6332H42.854V65.4041Z" />
<path d="M65.0039 43.2542H74.2331V46.9458H65.0039V43.2542Z" />
<path d="M15.1665 43.2542H24.3957V46.9458H15.1665V43.2542Z" />
<path d="M57.7397 60.7627L60.3495 58.1529L66.8739 64.6773L64.2641 67.2871L57.7397 60.7627Z" />
<path d="M22.5073 25.5225L25.1171 22.9127L31.6415 29.4371L29.0317 32.0469L22.5073 25.5225Z" />
<path d="M22.5034 64.6733L29.0278 58.149L31.6376 60.7588L25.1132 67.2831L22.5034 64.6733Z" />
<path d="M57.7437 29.4409L64.268 22.9165L66.8778 25.5263L60.3534 32.0507L57.7437 29.4409Z" />
</svg>
