<svg width="89" height="90" viewBox="0 0 89 90" fill="none" xmlns="http://www.w3.org/2000/svg">
<path d="M73.8333 65.5539L73.8279 61.8622L46.4231 61.9L46.4813 35.7961L63.9839 35.7807C64.4786 35.7807 64.9538 35.5808 65.3008 35.2273C65.6469 34.8723 65.8371 34.3944 65.828 33.8989C65.7388 29.2988 64.1623 25.5474 61.1413 22.7536C56.4898 18.4485 49.6579 17.6334 46.2872 17.5105L46.2636 15.5667L42.5719 15.6098L42.5953 17.546C24.9854 18.2619 22.8071 33.5743 22.787 33.7347C22.7193 34.261 22.8815 34.7911 23.2323 35.1895C23.5832 35.5879 24.0876 35.815 24.6186 35.815H24.6195L42.7899 35.7991L42.7317 61.9047L27.968 61.9251L17.3644 51.4198L14.7666 54.0406L25.911 65.0831C26.2562 65.4257 26.7232 65.6186 27.2099 65.6186H27.2125L29.5091 65.6153L24.6848 74.6333H28.8717L33.6992 65.6097L64.9517 65.5663L69.6705 74.6156H73.8333L69.1115 65.5607L73.8333 65.5539ZM61.9883 32.0908L55.0232 32.097C54.5025 27.3561 52.7045 24.0324 50.7725 21.7695C53.4352 22.3265 56.4157 23.4039 58.6452 25.4736C60.4821 27.1771 61.6026 29.3977 61.9883 32.0908ZM37.8188 21.9804C35.8995 24.3386 34.3569 27.6673 34.1632 32.1151L26.968 32.1213C27.9497 29.1721 30.6665 23.9458 37.8188 21.9804Z" />
</svg>
