<svg width="90" height="90" viewBox="0 0 90 90" fill="none" xmlns="http://www.w3.org/2000/svg">
<path d="M74.428 61.8623L28.5678 61.9252L17.9642 51.4199L15.3667 54.0407L26.5111 65.0832C26.8563 65.4258 27.3233 65.6187 27.81 65.6187H27.8126L30.1091 65.6154L25.2849 74.6334H29.4718L34.2993 65.6098L65.5518 65.5664L70.2706 74.6157H74.4334L69.7116 65.5608L74.4334 65.554L74.428 61.8623Z" />
<path d="M52.809 49.8518C59.7886 49.8518 65.4666 44.172 65.4666 37.1924C65.4666 30.2127 59.7886 24.5347 52.809 24.5347C45.8294 24.5347 40.1504 30.2127 40.1504 37.1924C40.1504 44.172 45.8294 49.8518 52.809 49.8518ZM52.809 28.2263C57.7525 28.2263 61.775 32.2479 61.775 37.1924C61.775 42.1368 57.7525 46.1602 52.809 46.1602C47.8645 46.1602 43.8421 42.1368 43.8421 37.1924C43.8421 32.2479 47.8645 28.2263 52.809 28.2263Z" />
<path d="M52.8086 43.95C56.5408 43.95 59.5664 40.9244 59.5664 37.1921C59.5664 33.4599 56.5408 30.4343 52.8086 30.4343C49.0764 30.4343 46.0508 33.4599 46.0508 37.1921C46.0508 40.9244 49.0764 43.95 52.8086 43.95Z" />
<path d="M50.9629 15.5667H54.6546V22.3245H50.9629V15.5667Z" />
<path d="M67.6758 35.3464H74.4336V39.0381H67.6758V35.3464Z" />
<path d="M62.0049 49.0117L64.6147 46.4019L69.3925 51.1797L66.7827 53.7895L62.0049 49.0117Z" />
<path d="M36.2056 23.2078L38.8154 20.598L43.5933 25.376L40.9835 27.9857L36.2056 23.2078Z" />
<path d="M62.0078 25.3787L66.7856 20.6009L69.3954 23.2107L64.6176 27.9885L62.0078 25.3787Z" />
<path d="M50.9619 52.0601H54.6536V58.8179H50.9619V52.0601Z" />
<path d="M31.1836 35.3464H37.9414V39.0381H31.1836V35.3464Z" />
<path d="M36.2026 51.1772L40.9806 46.3993L43.5904 49.0091L38.8124 53.787L36.2026 51.1772Z" />
</svg>
