<svg width="89" height="90" viewBox="0 0 89 90" fill="none" xmlns="http://www.w3.org/2000/svg">
<path d="M29.752 45.6233H59.2484C59.2667 45.4573 59.2667 45.2724 59.2667 45.1068C59.2667 36.9479 52.6586 30.3401 44.5001 30.3401C36.3415 30.3401 29.7334 36.9479 29.7334 45.1068C29.7337 45.2724 29.7337 45.457 29.752 45.6233Z" />
<path d="M42.6543 15.5667H46.346V24.7958H42.6543V15.5667Z" />
<path d="M22.3076 25.5225L24.9174 22.9127L31.4418 29.4371L28.832 32.0469L22.3076 25.5225Z" />
<path d="M57.5439 29.4409L64.0683 22.9165L66.6781 25.5263L60.1537 32.0507L57.5439 29.4409Z" />
<path d="M14.9668 49.1865H74.0335V52.8782H14.9668V49.1865Z" />
<path d="M24.1958 56.438H64.8041V60.1297H24.1958V56.438Z" />
<path d="M33.4253 63.6902H55.5753V67.3818H33.4253V63.6902Z" />
<path d="M42.6543 70.9417H46.346V74.6333H42.6543V70.9417Z" />
<path d="M64.8042 41.9346H74.0334V45.6262H64.8042V41.9346Z" />
<path d="M14.9668 41.9346H24.196V45.6262H14.9668V41.9346Z" />
</svg>
