<svg width="90" height="90" viewBox="0 0 90 90" fill="none" xmlns="http://www.w3.org/2000/svg">
<path d="M61.5324 70.9417C62.5436 64.7394 63.0409 58.4006 63.0409 51.636C63.0409 29.7403 58.1848 20.6012 55.297 17.1112C54.4937 16.129 53.3133 15.5667 52.0557 15.5667C52.0548 15.5667 52.0548 15.5667 52.0548 15.5667C50.7976 15.5667 49.616 16.1307 48.8065 17.1204C47.4993 18.7388 45.8271 21.463 44.3679 25.8434C43.4896 23.932 42.502 22.292 41.4033 20.9547C40.5868 19.976 39.3915 19.419 38.1361 19.4243C36.8842 19.4296 35.709 19.9922 34.9039 20.978C32.0082 24.5669 27.1494 33.8304 27.1494 55.5512C27.1494 60.9343 27.4586 65.9916 28.0924 70.9417H15.5664V74.6333H74.6331V70.9417H61.5324ZM58.9899 42.0885L44.8118 56.2665C44.7569 54.76 44.7238 53.2397 44.7238 51.6939C44.7238 49.538 44.7796 47.4632 44.8788 45.4553L57.7049 32.6292C58.2465 35.2872 58.6975 38.4201 58.9899 42.0885ZM45.0962 61.2021L59.2678 47.0306C59.3189 48.496 59.349 50.0241 59.349 51.636C59.349 58.4169 58.8325 64.747 57.7873 70.9417H46.3026C45.7577 67.7367 45.3567 64.5028 45.0962 61.2021ZM51.6727 19.4476C51.927 19.1358 52.1765 19.1248 52.4459 19.4568C53.4846 20.7125 55.2125 23.3832 56.6795 28.434L45.3091 39.8044C45.5879 37.154 45.9603 34.6588 46.4379 32.3522C47.9595 25.1617 50.1281 21.3602 51.6727 19.4476ZM37.7705 23.305C37.8974 23.1482 38.049 23.1157 38.1535 23.1157C38.2329 23.121 38.4267 23.1482 38.5599 23.3085C39.7108 24.7099 41.3546 27.362 42.735 32.0643C41.8673 36.4119 41.3289 41.3256 41.1272 46.7287L30.8532 57.0034C30.8478 56.5205 30.841 56.0394 30.841 55.5509C30.8413 34.1963 35.6922 25.8809 37.7705 23.305ZM31.3647 66.9331L41.147 57.1502C41.3472 61.8731 41.8162 66.434 42.5569 70.9417H31.8195C31.6435 69.6153 31.4926 68.2798 31.3647 66.9331Z" />
</svg>
