<svg width="90" height="89" viewBox="0 0 90 89" fill="none" xmlns="http://www.w3.org/2000/svg">
<path d="M66.2808 71.0831C64.6565 68.1853 62.4784 65.6933 59.9311 63.7184C58.676 62.7586 57.3473 61.9281 55.9441 61.2267C52.88 59.6945 49.4837 58.8085 45.9766 58.698C45.6813 58.6611 45.386 58.6611 45.0906 58.6611C44.1308 58.6611 43.1893 58.7166 42.2664 58.8457C41.5029 58.9337 40.7504 59.0678 40.0056 59.2264L46.4799 35.2772L63.3898 39.7926C63.8676 39.9207 64.3783 39.8504 64.805 39.5988C65.2312 39.3454 65.5386 38.9331 65.6582 38.452C66.7628 33.9854 66.2108 29.9541 64.0159 26.4736C60.637 21.1115 54.2489 18.5557 51.0251 17.5649L51.5056 15.6812L47.9285 14.7666L47.45 16.6429C30.2548 12.7766 24.1875 27.0037 24.1267 27.1532C23.9253 27.644 23.9448 28.1981 24.1801 28.6736C24.4155 29.149 24.8443 29.499 25.357 29.6363C25.357 29.6363 25.357 29.6363 25.3579 29.6366L42.9131 34.3242L35.8319 60.5182C30.8623 62.5672 26.6279 66.2408 23.9188 71.0831C23.6048 71.6552 23.6048 72.3569 23.9371 72.9106C24.2693 73.483 24.8786 73.8336 25.5248 73.8336H64.6565C65.3213 73.8336 65.9299 73.483 66.2625 72.9106C66.5944 72.3566 66.5944 71.6552 66.2808 71.0831ZM60.9013 28.4544C62.2347 30.5752 62.7421 33.0102 62.4175 35.7113L55.6884 33.9145C56.4125 29.2001 55.536 25.5247 54.2554 22.8389C56.6833 24.0658 59.2835 25.8782 60.9013 28.4544ZM41.6884 19.6898C39.2241 21.471 36.8727 24.287 35.5342 28.533L28.5824 26.6768C30.2944 24.082 34.2711 19.7371 41.6884 19.6898ZM28.9763 70.1416C32.1881 66.0994 36.8027 63.4042 41.9158 62.5923C42.9495 62.4446 44.02 62.3522 45.0906 62.3522C45.2935 62.3522 45.4784 62.3522 45.6813 62.3708C49.5206 62.4629 53.1754 63.6446 56.2764 65.6747C56.8856 66.0438 57.458 66.4685 58.0115 66.9299C59.1745 67.8714 60.2451 68.9417 61.2046 70.1416H28.9763Z" />
</svg>
