<svg width="89" height="90" viewBox="0 0 89 90" fill="none" xmlns="http://www.w3.org/2000/svg">
<path d="M70.5413 15.5667V57.095C70.5413 62.1835 66.4007 66.3241 61.3121 66.3241H50.2371V63.7748C50.2371 62.6325 49.3113 61.7066 48.1689 61.7066H33.847C32.7047 61.7066 31.7788 62.6325 31.7788 63.7748V72.5648C31.7788 73.7072 32.7047 74.633 33.847 74.633H48.1689C49.3113 74.633 50.2371 73.7072 50.2371 72.5648V70.0158H61.3121C68.4359 70.0158 74.233 64.2187 74.233 57.095V15.5667H70.5413Z" />
<path d="M41.0087 53.2421L44.8536 57.087C46.6427 58.8752 49.0202 59.8611 51.5494 59.8611H52.0839C56.0278 59.8611 59.7357 58.3253 62.5252 55.5368C65.1911 52.8708 66.7242 49.3307 66.8423 45.5723C66.9649 41.686 65.493 37.9565 62.6973 35.0705C59.7806 32.0602 55.7236 30.3325 51.565 30.3283L50.1415 26.0578C49.8911 25.3044 49.1861 24.7961 48.3911 24.7961H33.6244C32.8294 24.7961 32.1247 25.3044 31.874 26.0578L30.4505 30.3277H29.9337C25.9898 30.3277 22.2807 31.8635 19.4913 34.652C16.8253 37.318 15.2922 40.8581 15.1741 44.6166C15.0515 48.5028 16.5232 52.2323 19.3191 55.1183C22.2402 58.1322 26.3031 59.8608 30.467 59.8608C32.996 59.8608 35.3737 58.8747 37.1625 57.0867L41.0087 53.2421ZM34.9546 28.4875H47.0606L47.6743 30.3277H34.3409L34.9546 28.4875ZM30.4673 56.1694C27.2966 56.1694 24.1998 54.8499 21.9709 52.5498C19.8764 50.3885 18.773 47.6124 18.8643 44.732C18.9526 41.9145 20.1026 39.263 22.1017 37.2622C24.1936 35.1712 26.975 34.0194 29.9339 34.0194H51.5503C54.7201 34.0194 57.817 35.339 60.0458 37.639C62.1403 39.8003 63.2437 42.5764 63.1524 45.4568C63.0641 48.2743 61.9141 50.9258 59.915 52.9266C57.8232 55.0176 55.0417 56.1694 52.0837 56.1694H51.5491C50.0287 56.1694 48.5396 55.553 47.4635 54.4768L42.3134 49.3268C41.9528 48.9662 41.4806 48.7861 41.0084 48.7861C40.5361 48.7861 40.0639 48.9662 39.7033 49.3268L34.5524 54.4768C33.4768 55.5527 31.988 56.1694 30.4673 56.1694Z" />
</svg>
