<svg width="89" height="89" viewBox="0 0 89 89" fill="none" xmlns="http://www.w3.org/2000/svg">
<path d="M72.7015 43.6293C71.7786 42.4296 70.4496 41.6727 68.9544 41.4881L58.6974 40.2146L50.9449 27.9214C49.9113 26.297 48.1393 25.3186 46.2196 25.3186H30.696C28.1487 25.3186 25.9154 27.0537 25.3062 29.5088L22.5563 40.4175L18.9937 41.2852C16.5203 41.9125 14.7666 44.1275 14.7666 46.675C14.7666 46.7858 14.7849 46.8962 14.8035 47.0073L16.1142 54.0215C16.5938 56.6425 18.9013 58.5436 21.5779 58.5436H24.4943C25.3065 61.7367 28.2043 64.0811 31.6378 64.0811C35.0711 64.0811 37.9689 61.7367 38.781 58.5436H50.336C51.1481 61.7367 54.0459 64.0811 57.4795 64.0811C60.9127 64.0811 63.8105 61.7367 64.6227 58.5436H67.4042C70.1543 58.5436 72.5173 56.5132 72.9047 53.7997L73.7724 47.7639C73.9936 46.2873 73.6062 44.8292 72.7015 43.6293ZM28.8874 30.4131C29.0903 29.6009 29.8289 29.0103 30.6963 29.0103H46.2196C46.8655 29.0103 47.4748 29.3425 47.807 29.8963L54.2488 40.0935H26.4411L28.8874 30.4131ZM34.8493 58.5436C34.2034 59.6511 33.0034 60.3894 31.6375 60.3894C30.2716 60.3894 29.0717 59.6511 28.4444 58.5436C28.1121 58.0082 27.9459 57.3806 27.9459 56.6978C27.9459 56.0333 28.1304 55.3874 28.4444 54.8519C29.0903 53.7444 30.2716 53.0061 31.6375 53.0061C33.0034 53.0061 34.1848 53.7444 34.8307 54.8519C35.1446 55.3874 35.3292 56.0333 35.3292 56.6978C35.3292 57.3809 35.1632 58.0082 34.8493 58.5436ZM60.6909 58.5436C60.045 59.6511 58.8451 60.3894 57.4792 60.3894C56.1133 60.3894 54.9133 59.6511 54.286 58.5436C53.9538 58.0082 53.7875 57.3806 53.7875 56.6978C53.7875 56.0333 53.9721 55.3874 54.286 54.8519C54.9319 53.7444 56.1133 53.0061 57.4792 53.0061C58.8451 53.0061 60.0264 53.7444 60.6723 54.8519C60.9863 55.3874 61.1708 56.0333 61.1708 56.6978C61.1708 57.3809 61.0049 58.0082 60.6909 58.5436ZM70.1174 47.2471L69.25 53.2645C69.1209 54.1874 68.3271 54.8519 67.4042 54.8519H64.6227C63.8105 51.6771 60.9127 49.3144 57.4795 49.3144C54.0462 49.3144 51.1484 51.6771 50.336 54.8519H38.781C37.9689 51.6771 35.0711 49.3144 31.6378 49.3144C28.2046 49.3144 25.3068 51.6771 24.4943 54.8519H21.5779C20.6736 54.8519 19.898 54.2243 19.732 53.3384L18.4769 46.5274C18.5324 45.7338 19.1045 45.069 19.8797 44.8847L24.3304 43.7855H57.4346L68.4933 45.1431C69.0102 45.217 69.4532 45.4754 69.7671 45.8815C70.0622 46.2687 70.1912 46.7486 70.1174 47.2471Z" />
<path d="M43.6353 45.6309H45.4811V47.4767H43.6353V45.6309Z" />
<path d="M47.3271 45.6309H49.173V47.4767H47.3271V45.6309Z" />
<path d="M41.7896 47.4768H43.6354V49.3227H41.7896V47.4768Z" />
<path d="M45.4814 47.4768H47.3273V49.3227H45.4814V47.4768Z" />
<path d="M39.9438 45.6309H41.7897V47.4767H39.9438V45.6309Z" />
</svg>
