<svg width="90" height="89" viewBox="0 0 90 89" fill="none" xmlns="http://www.w3.org/2000/svg">
<path d="M67.05 23.1284H65.5819V17.0123C65.5819 15.992 64.7556 15.1665 63.7361 15.1665H17.2125C16.193 15.1665 15.3667 15.992 15.3667 17.0123V61.3123C15.3667 68.4361 21.1629 74.2332 28.2875 74.2332H52.6611C59.7857 74.2332 65.5819 68.4361 65.5819 61.3123V54.2299H67.05C71.1212 54.2299 74.4334 50.9187 74.4334 46.8466V30.5117C74.4334 26.4397 71.1212 23.1284 67.05 23.1284ZM61.8903 61.3123C61.8903 66.4009 57.7497 70.5415 52.6611 70.5415H28.2875C23.1989 70.5415 19.0584 66.4009 19.0584 61.3123V18.8582H61.8903V61.3123ZM70.7417 46.8466C70.7417 48.8818 69.0861 50.5383 67.05 50.5383H65.5819V26.8201H67.05C69.0861 26.8201 70.7417 28.4766 70.7417 30.5117V46.8466Z" />
<path d="M28.8607 68.0535H52.0878C55.8831 68.0535 58.9599 64.977 58.9599 61.1814V52.3843H21.9883V61.1814C21.9883 64.9767 25.0651 68.0535 28.8607 68.0535Z" />
</svg>
