<svg width="89" height="89" viewBox="0 0 89 89" fill="none" xmlns="http://www.w3.org/2000/svg">
<path d="M43.3477 36.8691L45.9572 34.2596L54.9323 43.2346L52.3227 45.8442L43.3477 36.8691Z" />
<path d="M72.533 35.2599L67.8853 30.6113C67.5392 30.2652 67.0696 30.0706 66.5803 30.0706C66.0909 30.0706 65.6213 30.2652 65.2752 30.6113C63.4872 32.3975 60.3759 32.4013 58.5888 30.6113C57.6957 29.7174 57.2028 28.5295 57.2028 27.2676C57.2028 26.0059 57.6949 24.8198 58.5888 23.9259C58.935 23.5797 59.1296 23.111 59.1296 22.6208C59.1296 22.1323 58.935 21.6618 58.5888 21.3157L53.9403 16.6672C51.9385 14.6663 48.6833 14.6663 46.6816 16.6672L16.4684 46.8804C14.4669 48.8812 14.4669 52.1382 16.4684 54.1391L21.1161 58.7876C21.4622 59.1337 21.9318 59.3284 22.4211 59.3284C22.9105 59.3284 23.3801 59.1337 23.7259 58.7876C25.5142 56.9997 28.6252 56.9997 30.4131 58.7876C31.3062 59.6798 31.7983 60.8676 31.7983 62.1314C31.7983 63.393 31.3062 64.5809 30.4131 65.4731C30.067 65.8192 29.8724 66.2879 29.8724 66.7781C29.8724 67.2666 30.067 67.7371 30.4131 68.0832L35.0608 72.7318C36.062 73.7321 37.3762 74.2332 38.6902 74.2332C40.005 74.2332 41.3192 73.7321 42.3195 72.7318L72.533 42.5186C73.4999 41.5525 74.0327 40.2637 74.0327 38.8883C74.0327 37.5147 73.5002 36.2259 72.533 35.2599ZM69.9231 39.9084L60.7699 49.0617L57.5064 45.7991L54.8966 48.4093L58.1597 51.6718L39.7096 70.1219C39.1473 70.6825 38.2333 70.6842 37.671 70.1219L34.1857 66.6358C35.0348 65.3021 35.4899 63.7501 35.4899 62.1314C35.4899 59.8818 34.614 57.7675 33.023 56.1777C30.1887 53.3405 25.8183 52.9586 22.565 55.0168L19.078 51.5289C18.5254 50.9755 18.5254 50.0437 19.078 49.4902L37.5283 31.0399L40.7909 34.3024L43.4007 31.6925L40.1382 28.43L49.2911 19.277C49.8535 18.7129 50.7675 18.7129 51.3298 19.277L54.8159 22.7631C53.966 24.0969 53.5109 25.6471 53.5109 27.2676C53.5109 29.5153 54.3877 31.6296 55.9784 33.2212C57.569 34.8127 59.6825 35.6887 61.9311 35.6887C63.5516 35.6887 65.1018 35.2327 66.4373 34.3836L69.9225 37.8697C70.1928 38.1403 70.3407 38.5023 70.3407 38.888C70.3413 39.2758 70.1934 39.6382 69.9231 39.9084Z" />
<path d="M43.467 43.6655L39.9779 46.2296L35.7405 44.6995L37.2706 48.9369L34.7065 52.426L39.1413 52.4806L41.794 56.167L43.0045 51.9635L47.208 50.7529L43.5216 48.1003L43.467 43.6655Z" />
</svg>
