<svg width="90" height="89" viewBox="0 0 90 89" fill="none" xmlns="http://www.w3.org/2000/svg">
<path d="M73.8948 26.6115L59.1281 15.5365C58.8083 15.2966 58.4196 15.167 58.0206 15.167H52.4831C51.4636 15.167 50.6373 15.9924 50.6373 17.0128C50.6373 20.0663 48.1532 22.5503 45.0998 22.5503C42.0463 22.5503 39.5623 20.0663 39.5623 17.0128C39.5623 15.9924 38.7359 15.167 37.7164 15.167H32.1789C31.7797 15.167 31.3913 15.2966 31.0714 15.5365L16.3048 26.6115C15.6695 27.0872 15.4099 27.9183 15.6612 28.6717L19.3529 39.7467C19.5224 40.2532 19.9037 40.6625 20.3975 40.8678C20.8922 41.0716 21.4492 41.0535 21.9297 40.8137L26.6414 38.4579V72.3872C26.6414 73.4076 27.4678 74.2331 28.4873 74.2331H61.7123C62.7315 74.2331 63.5581 73.4076 63.5581 72.3872V38.4579L68.2699 40.8137C68.7495 41.0535 69.3065 41.0716 69.802 40.8678C70.2958 40.6622 70.6771 40.2532 70.8466 39.7467L74.5383 28.6717C74.7896 27.9183 74.53 27.0872 73.8948 26.6115ZM30.3331 42.8542H59.8664V48.3917H30.3331V42.8542ZM30.3331 70.5414V52.0834H59.8664V70.5414H30.3331ZM68.0173 36.5598L62.5374 33.8199C61.966 33.5352 61.2855 33.5639 60.7412 33.9012C60.1978 34.2381 59.8661 34.8312 59.8661 35.4712V39.1628H30.3331V35.4712C30.3331 34.8312 30.0015 34.2381 29.458 33.9012C28.9137 33.5642 28.2333 33.5352 27.6618 33.8199L22.1819 36.5598L19.5845 28.7656L32.7944 18.8587H36.0561C36.9131 23.0657 40.6426 26.242 45.0995 26.242C49.5564 26.242 53.2858 23.066 54.1429 18.8587H57.4045L70.6145 28.7656L68.0173 36.5598Z" />
</svg>
