<svg width="89" height="89" viewBox="0 0 89 89" fill="none" xmlns="http://www.w3.org/2000/svg">
<path d="M48.2658 50.3636C53.3629 50.3636 57.4949 46.2316 57.4949 41.1344C57.4949 36.0373 53.3629 31.9053 48.2658 31.9053C43.1687 31.9053 39.0366 36.0373 39.0366 41.1344C39.0366 46.2316 43.1687 50.3636 48.2658 50.3636Z" />
<path d="M70.6215 41.0675L64.8944 35.3404C64.8265 35.1452 64.7533 34.952 64.6786 34.7592L68.1413 31.2973C70.9092 28.5303 70.9092 24.0256 68.1413 21.2589C65.3744 18.4902 60.8696 18.4902 58.103 21.2589L54.6328 24.7285C54.4467 24.6564 54.261 24.5841 54.0731 24.5188L48.333 18.7787C43.5185 13.9621 35.6807 13.9621 30.8661 18.7787C30.1452 19.4996 30.1452 20.6677 30.8661 21.3889L37.0486 27.5714C36.626 27.9213 36.2143 28.2917 35.8186 28.6874C34.0829 30.4225 32.7589 32.4585 31.8853 34.6756H27.5168C20.7067 34.6756 15.1665 40.2169 15.1665 47.027C15.1665 47.5191 15.3629 47.9895 15.7117 48.3357C16.0569 48.68 16.5247 48.8729 17.0123 48.8729H17.025L32.3977 48.771C33.2471 50.5324 34.3948 52.1579 35.8186 53.5811C37.2737 55.0365 38.9237 56.18 40.6842 57.0182L40.5288 72.3693C40.5244 72.8613 40.7164 73.3353 41.0634 73.6853C41.4095 74.0368 41.8818 74.2331 42.3747 74.2331C49.1848 74.2331 54.7249 68.6921 54.7249 61.882V57.5055C56.9072 56.6481 58.9523 55.3422 60.7131 53.5811C61.1071 53.1871 61.4786 52.7766 61.8304 52.3531L68.0117 58.5344C68.3723 58.895 68.8445 59.0752 69.3168 59.0752C69.789 59.0752 70.2612 58.895 70.6218 58.5344C75.437 53.7181 75.437 45.8841 70.6215 41.0675ZM60.7128 23.8694C62.0412 22.5427 64.2025 22.5427 65.5312 23.8694C66.8596 25.1978 66.8596 27.359 65.5312 28.6877L62.8894 31.3289C62.2571 30.3903 61.5309 29.5055 60.7128 28.6877C59.8885 27.8632 59.0011 27.1405 58.0675 26.5141L60.7128 23.8694ZM34.9216 20.2244C38.2698 18.0684 42.7935 18.4615 45.7226 21.3889L47.8829 23.5492C45.2356 23.6065 42.5994 24.2533 40.1913 25.4943L34.9216 20.2244ZM19.0593 45.1667C19.9119 41.2822 23.38 38.3676 27.517 38.3676H30.8806C30.7383 39.2748 30.6624 40.1986 30.6624 41.1345C30.6624 42.4824 30.8177 43.8055 31.1107 45.0876L19.0593 45.1667ZM51.033 61.882C51.033 66.0152 48.121 69.4836 44.2409 70.3398L44.3629 58.2902C45.6464 58.5799 46.9559 58.7296 48.266 58.7296C49.1916 58.7296 50.1166 58.6531 51.033 58.5084V61.882ZM38.4284 50.9709C35.8011 48.3445 34.3537 44.8513 34.3537 41.1343C34.3537 37.4193 35.8011 33.9258 38.4284 31.2976C41.1405 28.5864 44.7031 27.2291 48.2651 27.2291C51.828 27.2291 55.3906 28.5864 58.1027 31.2976C60.7299 33.9258 62.1774 37.4193 62.1774 41.1343C62.1774 44.851 60.7299 48.3445 58.1027 50.9709C52.6789 56.395 43.8525 56.3932 38.4284 50.9709ZM69.1785 54.4807L63.9107 49.2137C65.1298 46.8596 65.8005 44.2447 65.8596 41.5262L68.0114 43.678C69.649 45.3147 70.5504 47.4904 70.5504 49.8014C70.5504 51.4848 70.0716 53.0961 69.1785 54.4807Z" />
</svg>
