<svg width="89" height="89" viewBox="0 0 89 89" fill="none" xmlns="http://www.w3.org/2000/svg">
<path d="M51.6832 39.1626H38.7623C37.7428 39.1626 36.9165 39.9881 36.9165 41.0084V50.2376C36.9165 51.258 37.7428 52.0834 38.7623 52.0834H51.6832C52.7027 52.0834 53.529 51.258 53.529 50.2376V41.0084C53.529 39.9881 52.7027 39.1626 51.6832 39.1626ZM49.8373 48.3918H40.6082V42.8543H49.8373V48.3918Z" />
<path d="M22.1499 48.3916H33.2249V52.0833H22.1499V48.3916Z" />
<path d="M22.1499 42.854H33.2249V46.5457H22.1499V42.854Z" />
<path d="M72.4012 40.2205C70.2081 35.577 65.9059 32.51 60.9124 31.8983V26.2415C60.9124 25.2211 60.0861 24.3957 59.0666 24.3957H51.6833V17.0123C51.6833 15.992 50.8569 15.1665 49.8374 15.1665H36.9166C35.8971 15.1665 35.0708 15.992 35.0708 17.0123V22.5498H23.9958C22.9763 22.5498 22.1499 23.3753 22.1499 24.3957V31.9651C17.9426 32.8227 14.7666 36.5516 14.7666 41.0082V63.1582C14.7666 66.2116 17.2507 68.6957 20.3041 68.6957H20.5472C21.37 71.8752 24.2545 74.2332 27.6874 74.2332C31.1204 74.2332 34.0049 71.8752 34.8277 68.6957H53.7719C54.5947 71.8752 57.4795 74.2332 60.9121 74.2332C64.3448 74.2332 67.2299 71.8752 68.0524 68.6957H68.2955C71.3489 68.6957 73.833 66.2116 73.833 63.1582V46.5457C73.8333 44.3106 73.3483 42.1762 72.4012 40.2205ZM69.5066 42.854C69.9269 44.0238 70.1416 45.261 70.1416 46.5457V48.3915H60.9124V42.854H69.5066ZM57.2208 28.0873V31.779H51.6833V28.0873H57.2208ZM38.7624 18.8582H47.9916V26.2415V31.779H38.7624V24.3957V18.8582ZM35.0708 26.2415V31.779H25.8416V26.2415H35.0708ZM27.6874 70.5415C25.6514 70.5415 23.9958 68.885 23.9958 66.8498C23.9958 64.8147 25.6514 63.1582 27.6874 63.1582C29.7235 63.1582 31.3791 64.8147 31.3791 66.8498C31.3791 68.885 29.7235 70.5415 27.6874 70.5415ZM60.9124 70.5415C58.8764 70.5415 57.2208 68.885 57.2208 66.8498C57.2208 64.8147 58.8764 63.1582 60.9124 63.1582C62.9485 63.1582 64.6041 64.8147 64.6041 66.8498C64.6041 68.885 62.9485 70.5415 60.9124 70.5415ZM68.2958 65.004H68.0527C67.2302 61.8244 64.3454 59.4665 60.9124 59.4665C57.4795 59.4665 54.5947 61.8244 53.7722 65.004H34.828C34.0049 61.8244 31.1204 59.4665 27.6874 59.4665C24.2545 59.4665 21.37 61.8244 20.5472 65.004H20.3041C19.2867 65.004 18.4583 64.1765 18.4583 63.1582V41.0082C18.4583 37.9547 20.9423 35.4707 23.9958 35.4707H59.0666C62.3055 35.4707 65.2677 36.8322 67.3286 39.1623H59.0666C58.0471 39.1623 57.2208 39.9878 57.2208 41.0082V50.2373C57.2208 51.2577 58.0471 52.0832 59.0666 52.0832H70.1416V63.1582C70.1416 64.1765 69.3132 65.004 68.2958 65.004Z" />
</svg>
