<svg width="90" height="89" viewBox="0 0 90 89" fill="none" xmlns="http://www.w3.org/2000/svg">
<path d="M72.5875 41.0084H70.7417V33.6251C70.7417 29.553 67.4295 26.2417 63.3584 26.2417H55.9812L48.5979 18.8584L41.2146 26.2417H22.75C18.6789 26.2417 15.3667 29.553 15.3667 33.6251V63.1584C15.3667 67.2305 18.6789 70.5417 22.75 70.5417H63.3584C67.4295 70.5417 70.7417 67.2305 70.7417 63.1584V55.7751H72.5875C73.607 55.7751 74.4334 54.9496 74.4334 53.9292V42.8542C74.4334 41.8339 73.607 41.0084 72.5875 41.0084ZM63.3584 29.9334C65.3944 29.9334 67.05 31.5899 67.05 33.6251H63.3646L59.6729 29.9334H63.3584ZM67.05 63.1584C67.05 65.1935 65.3944 66.8501 63.3584 66.8501H22.75C20.714 66.8501 19.0584 65.1935 19.0584 63.1584V33.6251C19.0584 31.5899 20.714 29.9334 22.75 29.9334H37.5229L33.8312 33.6251H24.6021V37.3167H67.05V41.0084H63.3584C59.2872 41.0084 55.975 44.3197 55.975 48.3917C55.975 52.4638 59.2872 55.7751 63.3584 55.7751H67.05V63.1584ZM70.7417 52.0834H63.3584C61.3223 52.0834 59.6667 50.4269 59.6667 48.3917C59.6667 46.3566 61.3223 44.7001 63.3584 44.7001H70.7417V52.0834Z" />
<path d="M64.2369 50.2376C65.2564 50.2376 66.0828 49.4112 66.0828 48.3917C66.0828 47.3723 65.2564 46.5459 64.2369 46.5459C63.2175 46.5459 62.3911 47.3723 62.3911 48.3917C62.3911 49.4112 63.2175 50.2376 64.2369 50.2376Z" />
</svg>
