<svg width="89" height="89" viewBox="0 0 89 89" fill="none" xmlns="http://www.w3.org/2000/svg">
<path d="M64.8041 44.6998C64.8041 39.1969 62.6003 34.2016 59.033 30.541L56.5888 16.6916C56.4329 15.81 55.6668 15.1665 54.7711 15.1665H34.2289C33.3331 15.1665 32.567 15.81 32.4111 16.6916L29.9669 30.541C26.3996 34.2016 24.1958 39.1969 24.1958 44.6998C24.1958 50.2028 26.3996 55.1981 29.9669 58.8587L32.4111 72.7081C32.567 73.5896 33.3331 74.2332 34.2289 74.2332H54.7711C55.6668 74.2332 56.4329 73.5896 56.5888 72.7081L59.033 58.8587C62.6003 55.1981 64.8041 50.2028 64.8041 44.6998ZM53.2226 18.8582L54.6851 27.1464C51.6887 25.401 48.2105 24.3957 44.5 24.3957C40.7894 24.3957 37.3113 25.401 34.3148 27.1464L35.7773 18.8582H53.2226ZM44.5 28.0873C53.6597 28.0873 61.1125 35.5392 61.1125 44.6998C61.1125 53.8605 53.6597 61.3123 44.5 61.3123C35.3402 61.3123 27.8875 53.8605 27.8875 44.6998C27.8875 35.5392 35.3402 28.0873 44.5 28.0873ZM35.7773 70.5415L34.3148 62.2533C37.3113 63.9987 40.7894 65.004 44.5 65.004C48.2105 65.004 51.6887 63.9987 54.6851 62.2533L53.2226 70.5415H35.7773Z" />
<path d="M44.4999 57.6212C51.6359 57.6212 57.4208 51.8364 57.4208 44.7004C57.4208 37.5644 51.6359 31.7795 44.4999 31.7795C37.364 31.7795 31.5791 37.5644 31.5791 44.7004C31.5791 51.8364 37.364 57.6212 44.4999 57.6212Z" />
</svg>
