<svg width="90" height="89" viewBox="0 0 90 89" fill="none" xmlns="http://www.w3.org/2000/svg">
<path d="M72.7863 38.1777H53.8667C47.8516 38.1777 42.9577 43.0629 42.9577 49.0688C42.9577 49.6816 42.7244 50.253 42.2979 50.6783C41.4633 51.5147 39.9654 51.5507 39.0776 50.6603C38.6514 50.2457 38.4169 49.6816 38.4169 49.0688V38.4893C39.4092 38.8047 40.4521 38.9707 41.4993 38.9707C47.0566 38.9707 51.5776 34.4498 51.5776 28.8925C51.5776 27.8721 50.7512 27.0466 49.7317 27.0466H38.2323C36.1151 27.0466 34.0856 27.6955 32.3623 28.9214C32.2938 28.9701 32.2279 29.0242 32.1677 29.0818C31.8159 29.3461 31.4866 29.6338 31.1762 29.9385C30.2046 28.285 28.435 27.0505 26.0493 27.0505H17.4137C16.3942 27.0505 15.5679 27.8759 15.5679 28.8963C15.5679 34.4518 20.0879 38.9728 25.6435 38.9728H28.1464V39.5082H28.1544V51.5422C28.1544 60.406 34.6269 68.0046 43.1753 69.5475V72.3871C43.1753 73.4075 44.0017 74.2329 45.0212 74.2329C48.4648 74.2329 51.5073 72.4952 53.3256 69.8525H56.3224C66.4187 69.8525 74.6331 61.6381 74.6331 51.5419V40.0236C74.6322 39.0035 73.8055 38.1777 72.7863 38.1777ZM25.6429 35.2811C22.7643 35.2811 20.3245 33.365 19.5312 30.7421H26.0487C27.8549 30.7421 28.3325 32.2274 28.3325 33.0115V35.2539C28.3307 35.2631 28.3286 35.272 28.3269 35.2808H25.6429V35.2811ZM51.4051 64.1582C51.4051 67.0368 49.4899 69.4757 46.8661 70.269V63.9382C46.8661 62.1319 48.3505 61.6544 49.1355 61.6544H51.4048V64.1582H51.4051ZM56.3215 66.1609H54.8956C55.0268 65.5132 55.0968 64.844 55.0968 64.1582V59.8088C55.0968 58.7885 54.2704 57.963 53.2509 57.963H49.1357C46.2057 57.963 43.1747 60.1981 43.1747 63.9385V65.7817C36.6818 64.2929 31.8455 58.3907 31.8455 51.5422V37.1252C31.8455 35.072 32.8404 33.1361 34.5061 31.9444C34.5611 31.9049 34.6133 31.8632 34.6629 31.8183C35.722 31.1116 36.9512 30.7386 38.232 30.7386H47.6136C46.8203 33.3632 44.3788 35.2793 41.4993 35.2793C40.124 35.2793 38.7648 34.8322 37.6724 34.0195C37.1118 33.603 36.3647 33.5398 35.7418 33.8517C35.1181 34.1653 34.7253 34.8036 34.7253 35.5011V49.069C34.7253 50.686 35.3561 52.191 36.4837 53.2888C38.7205 55.5277 42.6928 55.5076 44.9081 53.2905C46.0309 52.1677 46.6493 50.6695 46.6493 49.069C46.6493 45.0998 49.8868 41.8697 53.8667 41.8697H70.9405V45.2046H62.9128C62.1304 45.2046 61.4328 45.6984 61.1724 46.4359L57.0968 57.9633H61.0123L64.2178 48.8963H70.9405V51.5425C70.9405 59.6033 64.3826 66.1609 56.3215 66.1609Z" />
<path d="M54.3697 49.9292H52.1311C51.8402 49.9292 51.6045 50.1649 51.6045 50.4558V52.6944C51.6045 52.9853 51.8402 53.221 52.1311 53.221H54.3697C54.6606 53.221 54.8963 52.9853 54.8963 52.6944V50.4558C54.8963 50.1652 54.6606 49.9292 54.3697 49.9292Z" />
<path d="M68.172 23.4019C67.1803 23.4019 66.2438 23.6331 65.4033 24.0342V21.6269C65.4033 18.0649 62.5049 15.1665 58.9428 15.1665C55.3808 15.1665 52.4824 18.0649 52.4824 21.6269V22.5498H56.1741V21.6269C56.1741 20.1 57.416 18.8582 58.9428 18.8582C60.4697 18.8582 61.7116 20.1 61.7116 21.6269V30.7424V34.4766H65.4033V29.8623C65.4033 28.3354 66.6451 27.0935 68.172 27.0935C69.6989 27.0935 70.9408 28.3354 70.9408 29.8623V32.631H74.6324V29.8623C74.6324 26.3003 71.7337 23.4019 68.172 23.4019Z" />
</svg>
