<svg width="21" height="21" viewBox="0 0 21 21" fill="none" xmlns="http://www.w3.org/2000/svg">
<path d="M12.0284 10.5029L20.6591 1.9194C21.0729 1.5098 21.0729 0.846719 20.6591 0.438162C20.2464 0.0285606 19.576 0.0285606 19.1632 0.438162L10.5399 9.01437L1.83685 0.310336C1.42411 -0.103445 0.753722 -0.103445 0.340986 0.310336C-0.07175 0.725162 -0.07175 1.3966 0.340986 1.81038L9.0377 10.5081L0.309552 19.1881C-0.103184 19.5977 -0.103184 20.2607 0.309552 20.6693C0.722288 21.0789 1.39268 21.0789 1.80542 20.6693L10.5262 11.9967L19.1946 20.6662C19.6073 21.0799 20.2777 21.0799 20.6904 20.6662C21.1032 20.2513 21.1032 19.5799 20.6904 19.1661L12.0284 10.5029Z" fill="#B4B4B4"/>
</svg>
