<svg width="18" height="30" viewBox="0 0 18 30" fill="none" xmlns="http://www.w3.org/2000/svg">
<path d="M16.4987 0.006242L12.6084 0C8.23784 0 5.41336 2.89785 5.41336 7.38304V10.7871H1.50185C1.16385 10.7871 0.890137 11.0611 0.890137 11.3991V16.3313C0.890137 16.6693 1.16416 16.943 1.50185 16.943H5.41336V29.3883C5.41336 29.7263 5.68707 30 6.02507 30H11.1285C11.4665 30 11.7402 29.726 11.7402 29.3883V16.943H16.3137C16.6517 16.943 16.9254 16.6693 16.9254 16.3313L16.9272 11.3991C16.9272 11.2369 16.8626 11.0814 16.7481 10.9666C16.6336 10.8517 16.4775 10.7871 16.3152 10.7871H11.7402V7.90144C11.7402 6.51447 12.0707 5.81037 13.8774 5.81037L16.4981 5.80943C16.8358 5.80943 17.1095 5.53541 17.1095 5.19772V0.617958C17.1095 0.280578 16.8361 0.0068662 16.4987 0.006242Z" />
</svg>
