<svg width="13" height="13" viewBox="0 0 13 13" fill="none" xmlns="http://www.w3.org/2000/svg">
<path d="M9.41234 0H3.58743C1.60932 0 0 1.6094 0 3.58751V9.41241C0 11.3906 1.60932 12.9999 3.58743 12.9999H9.41234C11.3906 12.9999 12.9999 11.3905 12.9999 9.41241V3.58751C13 1.6094 11.3906 0 9.41234 0ZM11.8466 9.41241C11.8466 10.7546 10.7546 11.8465 9.41241 11.8465H3.58743C2.24532 11.8466 1.15342 10.7546 1.15342 9.41241V3.58751C1.15342 2.24539 2.24532 1.15342 3.58743 1.15342H9.41234C10.7545 1.15342 11.8465 2.24539 11.8465 3.58751V9.41241H11.8466Z" fill="white"/>
<path d="M6.49997 3.15036C4.65289 3.15036 3.15022 4.65303 3.15022 6.50011C3.15022 8.34712 4.65289 9.84971 6.49997 9.84971C8.34705 9.84971 9.84971 8.34712 9.84971 6.50011C9.84971 4.65303 8.34705 3.15036 6.49997 3.15036ZM6.49997 8.69622C5.28896 8.69622 4.30363 7.71104 4.30363 6.50003C4.30363 5.28895 5.28888 4.3037 6.49997 4.3037C7.71105 4.3037 8.6963 5.28895 8.6963 6.50003C8.6963 7.71104 7.71098 8.69622 6.49997 8.69622Z" fill="white"/>
<path d="M9.9902 2.17233C9.76798 2.17233 9.54967 2.2623 9.39273 2.41993C9.23502 2.5768 9.14436 2.79518 9.14436 3.01817C9.14436 3.24047 9.2351 3.45878 9.39273 3.61641C9.5496 3.77327 9.76798 3.86401 9.9902 3.86401C10.2132 3.86401 10.4308 3.77327 10.5884 3.61641C10.7461 3.45878 10.836 3.2404 10.836 3.01817C10.836 2.79518 10.7461 2.5768 10.5884 2.41993C10.4316 2.2623 10.2132 2.17233 9.9902 2.17233Z" fill="white"/>
</svg>
