<svg width="14" height="20" viewBox="0 0 14 20" fill="none" xmlns="http://www.w3.org/2000/svg">
<path d="M10.1502 0H3.85084C3.07772 0 2.45102 0.596924 2.45102 1.33331V5.71732C2.34914 5.68924 2.24421 5.6723 2.13816 5.66666H2.07632C1.54831 5.66895 1.10552 6.04706 1.0456 6.54663C0.988571 7.00668 0.895015 7.46201 0.765735 7.90863C0.687398 8.1517 0.591759 8.38943 0.47946 8.62C0.247813 9.0538 0.109561 9.52728 0.0727154 10.0127C0.0629433 10.2994 0.0751184 10.6039 0.0868129 10.8977C0.0975462 11.171 0.10908 11.4534 0.102192 11.7137C0.0972258 11.8893 0.0815263 12.1603 0.064385 12.466C0.0262578 13.1326 -0.0210008 13.9619 0.0100777 14.3581C0.0169662 14.9588 0.23772 15.5396 0.636134 16.0054C0.747472 16.1566 0.877714 16.3333 1.02878 16.5674C1.09014 16.6614 1.1555 16.7566 1.22166 16.853C1.50858 17.1861 1.692 17.5891 1.75112 18.0164V18.9999C1.75112 19.5523 2.22114 20 2.80106 20H7.00051C7.58043 20 8.05045 19.5523 8.05045 18.9999V17.6666C8.05333 17.5436 8.12494 17.4313 8.23836 17.3723C8.91873 17.039 9.51643 16.5712 9.99158 16.0001H10.1502C10.7898 15.9999 11.3478 15.5862 11.5048 14.9957C11.5202 14.9957 11.5346 15 11.55 15H11.9104C12.4572 15.0027 12.9549 14.7005 13.1832 14.2273C13.4113 13.7541 13.3277 13.1976 12.9695 12.8043C13.3229 12.606 13.5654 12.2684 13.6318 11.8828C13.6979 11.4972 13.5808 11.1035 13.312 10.8083C13.8552 10.5038 14.1169 9.89029 13.9502 9.31122C13.7836 8.7323 13.2302 8.33145 12.5999 8.33328H11.55V7.71973L12.7669 7.2406C13.4857 6.96793 13.8367 6.19232 13.551 5.50735C13.2646 4.82285 12.4505 4.48853 11.7313 4.75998L11.5493 4.82895V1.33331C11.5493 0.597229 10.923 0.000305176 10.1502 0ZM8.75036 0.666656V1.00006C8.75036 1.18408 8.59368 1.33331 8.40032 1.33331H5.60069C5.40749 1.33331 5.25082 1.18408 5.25082 1.00006V0.666656H8.75036ZM7.89297 16.7926C7.56056 16.9701 7.35343 17.3038 7.35054 17.6666V18.9999C7.35054 19.1841 7.19387 19.3333 7.00051 19.3333H2.80106C2.6077 19.3333 2.45102 19.1841 2.45102 18.9999V18.0164C2.40056 17.457 2.17676 16.9246 1.80815 16.4867C1.74551 16.396 1.68399 16.3066 1.62664 16.2177C1.46628 15.97 1.32835 15.7843 1.21109 15.6227C0.886044 15.255 0.708224 14.7894 0.709345 14.3086C0.681951 13.9549 0.727928 13.1493 0.764614 12.5023C0.782075 12.189 0.799537 11.911 0.803061 11.7307C0.81043 11.4493 0.798896 11.1563 0.787682 10.8727C0.775827 10.5769 0.764614 10.298 0.774065 10.0346C0.808668 9.63379 0.926735 9.24362 1.12122 8.88672C1.24617 8.62854 1.35238 8.36258 1.43905 8.09067C1.57794 7.61032 1.67855 7.12051 1.73958 6.62567C1.75752 6.46088 1.90234 6.33514 2.07632 6.33331H2.13335C2.28025 6.34369 2.42203 6.39053 2.5441 6.46896C2.57181 6.4975 2.60466 6.52115 2.64102 6.5387C2.89654 6.74561 3.15093 7.16003 3.15093 8.00003C3.14885 8.01605 3.15029 8.03223 3.15526 8.04764C3.21533 9.02969 2.46993 10.6183 2.29467 10.7016C2.14873 10.7697 2.07167 10.9248 2.10916 11.0754C2.14665 11.2259 2.28858 11.3316 2.45102 11.33V14.6666C2.45102 15.403 3.07772 16.0001 3.85084 16.0001H9.05265C8.70038 16.3069 8.31109 16.573 7.89297 16.7926ZM10.1502 15.3334H3.85084C3.46428 15.3334 3.15093 15.0348 3.15093 14.6666V10.7114C3.56312 9.85825 3.80006 8.93799 3.84876 8.00003H3.85084C3.85084 6.98303 3.52083 6.40961 3.15093 6.08597V1.33331C3.15093 0.965118 3.46428 0.666656 3.85084 0.666656H4.55075V1.00006C4.55075 1.55228 5.02093 1.99997 5.60069 1.99997H8.40032C8.98024 1.99997 9.45026 1.55228 9.45026 1.00006V0.666656H10.1502C10.5367 0.666656 10.8501 0.965118 10.8501 1.33331V8.51868C10.4582 8.73108 10.1995 9.11179 10.1564 9.53918C10.1133 9.96658 10.2915 10.3873 10.6338 10.6667C10.3274 10.9172 10.1507 11.2827 10.1502 11.6673C10.1495 12.052 10.325 12.4179 10.6306 12.6694C10.2926 12.9471 10.1157 13.3629 10.1556 13.7863C10.1957 14.2099 10.4473 14.5891 10.8318 14.805C10.7649 15.1128 10.4802 15.3334 10.1502 15.3334ZM12.2499 12.3334H11.55C11.4691 12.3337 11.3888 12.3195 11.3134 12.2913C11.0346 12.1989 10.8483 11.9478 10.8501 11.6667C10.8501 11.2985 11.1634 11.0001 11.55 11.0001H12.2499C12.6365 11.0001 12.9498 11.2985 12.9498 11.6667C12.9498 12.0349 12.6365 12.3334 12.2499 12.3334ZM11.9104 14.3333H11.55C11.1634 14.3333 10.8501 14.0349 10.8501 13.6667C10.8501 13.2985 11.1634 13 11.55 13H11.9104C12.297 13 12.6103 13.2985 12.6103 13.6667C12.6103 14.0349 12.297 14.3333 11.9104 14.3333ZM13.2998 9.6666C13.2998 10.0348 12.9865 10.3334 12.5999 10.3334H11.55C11.1634 10.3334 10.8501 10.0348 10.8501 9.6666C10.8501 9.2984 11.1634 8.99994 11.55 8.99994H12.5999C12.9865 8.99994 13.2998 9.2984 13.2998 9.6666ZM11.9899 5.38071C12.2228 5.29312 12.487 5.33066 12.6831 5.47913C12.879 5.62759 12.977 5.86426 12.94 6.10016C12.9032 6.33606 12.7369 6.53519 12.504 6.62262L11.55 6.99997V5.54703L11.9899 5.38071Z" />
<path d="M8.40032 13.9999H5.60069C5.40749 13.9999 5.25081 14.1491 5.25081 14.3333C5.25081 14.5173 5.40749 14.6666 5.60069 14.6666H8.40032C8.59368 14.6666 8.75035 14.5173 8.75035 14.3333C8.75035 14.1491 8.59368 13.9999 8.40032 13.9999Z" />
<path d="M3.50096 18C3.3076 18 3.15093 18.1492 3.15093 18.3333C3.15093 18.5174 3.3076 18.6667 3.50096 18.6667H3.85084C4.0442 18.6667 4.20087 18.5174 4.20087 18.3333C4.20087 18.1492 4.0442 18 3.85084 18H3.50096Z" />
<path d="M5.25081 18.6667H6.30059C6.49395 18.6667 6.65063 18.5174 6.65063 18.3333C6.65063 18.1492 6.49395 18 6.30059 18H5.25081C5.05745 18 4.90078 18.1492 4.90078 18.3333C4.90078 18.5174 5.05745 18.6667 5.25081 18.6667Z" />
<path d="M4.20087 2.33337C4.00751 2.33337 3.85084 2.4826 3.85084 2.66662V3.00003C3.85084 3.18405 4.00751 3.33328 4.20087 3.33328C4.39407 3.33328 4.55074 3.18405 4.55074 3.00003V2.66662C4.55074 2.4826 4.39407 2.33337 4.20087 2.33337Z" />
<path d="M4.20087 3.99993C4.00751 3.99993 3.85084 4.14917 3.85084 4.33334V6.00006C3.85084 6.18408 4.00751 6.33331 4.20087 6.33331C4.39407 6.33331 4.55074 6.18408 4.55074 6.00006V4.33334C4.55074 4.14917 4.39407 3.99993 4.20087 3.99993Z" />
</svg>
