<svg width="15" height="15" viewBox="0 0 15 15" fill="none" xmlns="http://www.w3.org/2000/svg">
<path d="M14.9294 5.59665C14.8497 5.35483 14.6969 5.14365 14.4923 4.99213C14.2892 4.84436 14.044 4.76556 13.7929 4.76732L10.3607 4.76981C10.0509 4.76618 9.78004 4.56024 9.69372 4.26271L8.64457 0.865493C8.4603 0.232963 7.79814 -0.130432 7.16558 0.0538416C6.77409 0.167889 6.46795 0.474026 6.3539 0.865523L5.30725 4.26274C5.21916 4.56009 4.94789 4.76559 4.6378 4.76983L1.20561 4.76735C0.687005 4.76638 0.227829 5.10217 0.0715408 5.59668C-0.109366 6.10252 0.0596267 6.66722 0.488681 6.99054L3.29391 9.1263C3.54106 9.31979 3.6417 9.64662 3.54618 9.94562L2.47956 13.3828C2.30966 13.9007 2.50202 14.4686 2.95168 14.7767C3.14848 14.9174 3.38422 14.9933 3.62613 14.994C3.88578 14.9925 4.1377 14.9056 4.34305 14.7467L7.08584 12.6509C7.32875 12.461 7.66975 12.461 7.91266 12.6509L10.6554 14.7467C11.0622 15.0641 11.6292 15.0762 12.0493 14.7767C12.4973 14.4674 12.6885 13.9002 12.5189 13.3828L11.4523 9.94559C11.3564 9.64607 11.4583 9.31859 11.7071 9.12627L14.5098 6.99051C14.9384 6.66693 15.1082 6.10307 14.9294 5.59665ZM1.95941 6.18489C1.89952 6.30918 1.75023 6.36138 1.62597 6.30151L1.3996 6.19247C1.2753 6.13267 1.22305 5.9834 1.28289 5.85911C1.34269 5.73482 1.49195 5.68257 1.61625 5.7424L1.84261 5.85144C1.96688 5.91125 2.01922 6.06054 1.95941 6.18489ZM3.09131 6.73033C3.03142 6.85463 2.88213 6.90682 2.75786 6.84696L2.5315 6.73792C2.4072 6.67811 2.35495 6.52885 2.41478 6.40455C2.47459 6.28026 2.62385 6.22801 2.74814 6.28784L2.97451 6.39688C3.09878 6.45669 3.15109 6.60598 3.09131 6.73033ZM5.81051 8.04091C5.87063 7.91691 6.01969 7.86481 6.14399 7.92432L6.37035 8.03336C6.49465 8.09317 6.5469 8.24243 6.48706 8.36672C6.42726 8.49102 6.278 8.54327 6.1537 8.48343L5.92731 8.37439C5.80301 8.31456 5.7507 8.16527 5.81051 8.04091ZM4.67887 7.49524C4.73879 7.37097 4.88809 7.31881 5.01235 7.37873L5.23872 7.48789C5.36289 7.5481 5.41474 7.69754 5.35452 7.82172C5.29448 7.94554 5.14566 7.9975 5.0216 7.93796L4.79523 7.8288C4.671 7.76879 4.61892 7.61947 4.67887 7.49524ZM4.10609 13.6403L3.96289 13.8517C3.88514 13.9657 3.7297 13.9952 3.61568 13.9174C3.50213 13.84 3.47242 13.6854 3.54917 13.5714L3.69237 13.36C3.77012 13.246 3.92556 13.2166 4.03958 13.2944C4.1531 13.3718 4.18284 13.5263 4.10609 13.6403ZM3.99801 7.41728C3.96051 7.41725 3.92348 7.40879 3.8897 7.39252L3.66333 7.28336C3.53919 7.22314 3.48735 7.07368 3.54756 6.94953C3.6076 6.82573 3.75642 6.77377 3.88045 6.83329L4.10682 6.94245C4.23108 7.00246 4.28316 7.15184 4.22315 7.27607C4.18144 7.36245 4.09394 7.41734 3.99801 7.41728ZM4.82254 12.5828L4.67934 12.7943C4.60171 12.9084 4.4463 12.9379 4.33228 12.8602C4.2187 12.7829 4.1889 12.6283 4.26563 12.5143L4.40883 12.3028C4.48617 12.1886 4.64146 12.1587 4.75571 12.236C4.86994 12.3133 4.89988 12.4686 4.82254 12.5828ZM5.54 11.524C5.53959 11.5246 5.53918 11.5252 5.53877 11.5258L5.39533 11.7373C5.31837 11.8518 5.16319 11.8822 5.04874 11.8052C4.93428 11.7283 4.90389 11.5731 4.98085 11.4586C4.98126 11.458 4.98167 11.4574 4.98208 11.4568L5.12552 11.2453C5.20248 11.1309 5.35765 11.1005 5.47211 11.1774C5.58657 11.2544 5.61695 11.4096 5.54 11.524ZM6.25522 10.4685L6.11202 10.6799C6.03427 10.7939 5.87883 10.8233 5.76481 10.7456C5.65126 10.6681 5.62155 10.5136 5.6983 10.3996L5.84151 10.1882C5.91926 10.0742 6.0747 10.0448 6.18871 10.1225C6.30224 10.1999 6.33195 10.3545 6.25522 10.4685ZM6.97165 9.41101L6.82845 9.6225C6.75111 9.73676 6.59581 9.76667 6.48156 9.68933C6.36731 9.61199 6.33739 9.4567 6.41473 9.34245L6.55793 9.13095C6.63527 9.0167 6.79057 8.98678 6.90482 9.06412C7.01907 9.14146 7.04899 9.29675 6.97165 9.41101ZM7.75277 6.99991C7.75277 7.13787 7.64095 7.24969 7.50298 7.24969C7.36502 7.24969 7.2532 7.13787 7.2532 6.99991V6.74181C7.2532 6.60385 7.36502 6.49202 7.50298 6.49202C7.64095 6.49202 7.75277 6.60385 7.75277 6.74181V6.99991ZM7.75277 5.7092C7.75277 5.84717 7.64095 5.95899 7.50298 5.95899C7.36502 5.95899 7.2532 5.84717 7.2532 5.7092V5.4511C7.2532 5.31314 7.36502 5.20132 7.50298 5.20132C7.64095 5.20132 7.75277 5.31314 7.75277 5.4511V5.7092ZM7.75277 4.4185C7.75277 4.55646 7.64095 4.66829 7.50298 4.66829C7.36502 4.66829 7.2532 4.55646 7.2532 4.4185V4.1604C7.2532 4.02244 7.36502 3.91061 7.50298 3.91061C7.64095 3.91061 7.75277 4.02244 7.75277 4.1604V4.4185ZM7.75277 3.1278C7.75277 3.26576 7.64095 3.37758 7.50298 3.37758C7.36502 3.37758 7.2532 3.26576 7.2532 3.1278V2.8697C7.2532 2.73173 7.36502 2.61991 7.50298 2.61991C7.64095 2.61991 7.75277 2.73173 7.75277 2.8697V3.1278ZM7.75277 1.83712C7.75277 1.97509 7.64095 2.08691 7.50298 2.08691C7.36502 2.08691 7.2532 1.97509 7.2532 1.83712V1.57905C7.2532 1.44109 7.36502 1.32926 7.50298 1.32926C7.64095 1.32926 7.75277 1.44109 7.75277 1.57905V1.83712ZM9.76725 7.48789L9.99362 7.37873C10.118 7.31901 10.2673 7.37147 10.327 7.49588C10.3865 7.61994 10.3345 7.76876 10.2107 7.8288L9.98437 7.93796C9.85996 7.99768 9.71072 7.94522 9.65101 7.82081C9.59146 7.69678 9.64342 7.54793 9.76725 7.48789ZM8.63561 8.03336L8.86198 7.92432C8.98627 7.86451 9.13551 7.91677 9.19534 8.04106C9.25518 8.16535 9.2029 8.31459 9.0786 8.37442L8.85223 8.48346C8.72794 8.54327 8.57871 8.49102 8.51887 8.36672C8.45907 8.24243 8.51132 8.09317 8.63561 8.03336ZM8.52438 9.68936C8.41012 9.76667 8.25483 9.73676 8.17749 9.6225L8.03432 9.41101C7.95698 9.29675 7.98692 9.14146 8.10115 9.06412C8.2154 8.98678 8.37069 9.0167 8.44803 9.13095L8.59124 9.34245C8.66849 9.45673 8.63857 9.61199 8.52438 9.68936ZM9.24092 10.7465C9.24089 10.7466 9.24083 10.7466 9.2408 10.7466C9.12658 10.8239 8.97132 10.794 8.89392 10.6799L8.75072 10.4685C8.67364 10.354 8.70399 10.1988 8.81845 10.1217C8.93244 10.045 9.08703 10.0747 9.16443 10.1882L9.30763 10.3996C9.38503 10.5138 9.35514 10.6691 9.24092 10.7465ZM9.9577 11.8037C9.95764 11.8037 9.95758 11.8038 9.95752 11.8038C9.84339 11.8813 9.68809 11.8515 9.61064 11.7374L9.4672 11.5259C9.38922 11.4121 9.41826 11.2567 9.53201 11.1787C9.64579 11.1007 9.80121 11.1297 9.87919 11.2435C9.8796 11.2441 9.88001 11.2448 9.88042 11.2453L10.0239 11.4568C10.1014 11.5709 10.0717 11.7262 9.9577 11.8037ZM10.6735 12.8612C10.5592 12.9385 10.4039 12.9086 10.3266 12.7944L10.1834 12.5829C10.1061 12.4686 10.136 12.3133 10.2502 12.236C10.3645 12.1587 10.5198 12.1886 10.5971 12.3028L10.7403 12.5143C10.8176 12.6286 10.7877 12.7838 10.6735 12.8612ZM11.4568 13.5714C11.5338 13.6859 11.5035 13.8412 11.389 13.9182C11.275 13.995 11.1205 13.9652 11.0431 13.8517L10.8998 13.6403C10.823 13.5257 10.8536 13.3705 10.9682 13.2937C11.0821 13.2173 11.2362 13.2469 11.3136 13.36L11.4568 13.5714ZM11.3426 7.28336L11.1163 7.39252C10.9919 7.45223 10.8426 7.39978 10.7829 7.27537C10.7234 7.15131 10.7754 7.00248 10.8991 6.94245L11.1255 6.83329C11.2499 6.77357 11.3992 6.82603 11.4589 6.95044C11.5184 7.0745 11.4664 7.22332 11.3426 7.28336ZM12.4745 6.73792L12.2481 6.84696C12.1238 6.90676 11.9746 6.85451 11.9148 6.73025C11.855 6.60595 11.9072 6.45672 12.0315 6.39688L12.2579 6.28784C12.3821 6.22804 12.5314 6.28029 12.5912 6.40455C12.651 6.52885 12.5988 6.67808 12.4745 6.73792ZM13.6064 6.19244L13.38 6.30149C13.2557 6.36129 13.1065 6.30904 13.0467 6.18477C12.9869 6.06048 13.0391 5.91125 13.1634 5.85141L13.3897 5.74237C13.514 5.68257 13.6633 5.73482 13.7231 5.85908C13.7829 5.9834 13.7307 6.13264 13.6064 6.19244Z" fill="#F7C200"/>
</svg>
