<svg width="15" height="15" viewBox="0 0 15 15" fill="none" xmlns="http://www.w3.org/2000/svg">
<path d="M14.9291 5.59648C14.7718 5.10256 14.3126 4.76748 13.7942 4.7683H13.7933L10.3618 4.77084H10.3613C10.0509 4.7673 9.77954 4.56078 9.69339 4.26261L8.64516 0.867226C8.46203 0.234816 7.80091 -0.129367 7.16853 0.0537636C6.77583 0.167488 6.46879 0.474531 6.35506 0.867226L5.30663 4.26264C5.22048 4.56084 4.94909 4.76736 4.63871 4.7709H4.63821L1.20671 4.76832H1.20574C0.68738 4.7675 0.228236 5.10259 0.0709244 5.59651C-0.108752 6.10322 0.0608838 6.66789 0.490023 6.99174L3.29339 9.12646C3.54107 9.31943 3.6425 9.6462 3.54757 9.94548L2.48104 13.3826C2.31085 13.9002 2.50226 14.4681 2.9511 14.7771C3.37053 15.0768 3.93736 15.0642 4.34303 14.7461L7.08612 12.6508C7.32956 12.4615 7.67038 12.4615 7.91381 12.6508L10.6569 14.746C11.0625 15.0643 11.6294 15.077 12.0488 14.7771C12.4977 14.4681 12.6891 13.9003 12.5189 13.3826L11.4524 9.94545C11.3575 9.64614 11.4589 9.3194 11.7066 9.12643L14.51 6.99171C14.9391 6.66789 15.1087 6.10319 14.9291 5.59648ZM14.2075 6.59433L11.4041 8.72905C10.9898 9.04936 10.8187 9.59377 10.9753 10.0935L12.0418 13.5306C12.1445 13.8406 12.031 14.1811 11.763 14.3675C11.5217 14.5425 11.1933 14.5349 10.9604 14.349L8.21731 12.2536C7.79523 11.926 7.20479 11.926 6.78271 12.2536L4.03961 14.349C3.80666 14.5349 3.47831 14.5424 3.23704 14.3675C2.96899 14.1811 2.85553 13.8406 2.95822 13.5306L4.02471 10.0935C4.18132 9.59374 4.01022 9.0493 3.59587 8.72902L0.792499 6.5943C0.536713 6.39844 0.436483 6.05993 0.544412 5.75637C0.633167 5.46563 0.901745 5.26725 1.20574 5.26786H1.20621L4.63772 5.27041H4.63868C5.16846 5.26778 5.63384 4.91805 5.78375 4.40991L6.83221 1.0145C6.93423 0.64563 7.31597 0.429304 7.68487 0.53132C7.91967 0.596247 8.10309 0.7797 8.16805 1.0145L9.21625 4.40997C9.36609 4.91803 9.83136 5.26775 10.361 5.27047H10.3623L13.7938 5.26792H13.7943C14.0982 5.26728 14.3669 5.46569 14.4556 5.75643C14.5635 6.05996 14.4633 6.39847 14.2075 6.59433Z" fill="#F7C200"/>
<path d="M7.50345 1.32971C7.36548 1.32971 7.25366 1.44153 7.25366 1.5795V1.8376C7.25363 1.97553 7.3654 2.08735 7.50333 2.08738C7.50339 2.08738 7.50342 2.08738 7.50345 2.08738C7.64138 2.08741 7.7532 1.97565 7.75323 1.83771C7.75323 1.83765 7.75323 1.83763 7.75323 1.8376V1.5795C7.75326 1.44156 7.64141 1.32971 7.50345 1.32971Z" fill="#F7C200"/>
<path d="M7.50345 2.62042C7.36548 2.62042 7.25366 2.73224 7.25366 2.87021V3.12831C7.25363 3.26624 7.3654 3.37806 7.50333 3.37809C7.50339 3.37809 7.50342 3.37809 7.50345 3.37809C7.64138 3.37812 7.7532 3.26636 7.75323 3.12842C7.75323 3.12839 7.75323 3.12833 7.75323 3.12831V2.87021C7.75326 2.73224 7.64141 2.62042 7.50345 2.62042Z" fill="#F7C200"/>
<path d="M7.50345 3.91107C7.36548 3.91107 7.25366 4.02292 7.25366 4.16086V4.41895C7.25363 4.55688 7.3654 4.66871 7.50333 4.66873C7.50339 4.66873 7.50342 4.66873 7.50345 4.66873C7.64138 4.66876 7.7532 4.557 7.75323 4.41907C7.75323 4.41904 7.75323 4.41898 7.75323 4.41895V4.16086C7.75326 4.02292 7.64141 3.91107 7.50345 3.91107Z" fill="#F7C200"/>
<path d="M7.50345 5.20178C7.36548 5.20178 7.25366 5.31363 7.25366 5.45157V5.70967C7.25363 5.8476 7.3654 5.95942 7.50333 5.95945C7.50339 5.95945 7.50342 5.95945 7.50345 5.95945C7.64138 5.95948 7.7532 5.84772 7.75323 5.70978C7.75323 5.70975 7.75323 5.7097 7.75323 5.70967V5.45157C7.75326 5.31363 7.64141 5.20178 7.50345 5.20178Z" fill="#F7C200"/>
<path d="M7.50345 6.49243C7.36548 6.49243 7.25366 6.60425 7.25366 6.74222V7.00031C7.25363 7.13825 7.3654 7.25007 7.50333 7.2501C7.50339 7.2501 7.50342 7.2501 7.50345 7.2501C7.64138 7.25013 7.7532 7.13837 7.75323 7.00043C7.75323 7.00037 7.75323 7.00034 7.75323 7.00031V6.74222C7.75326 6.60425 7.64141 6.49243 7.50345 6.49243Z" fill="#F7C200"/>
<path d="M1.84303 5.85183L1.61666 5.74279C1.49237 5.68296 1.34314 5.73524 1.2833 5.8595C1.2235 5.98379 1.27575 6.13303 1.40004 6.19286L1.62641 6.3019C1.7507 6.3617 1.89993 6.30945 1.95977 6.18516C2.01957 6.0609 1.96729 5.91166 1.84303 5.85183Z" fill="#F7C200"/>
<path d="M2.97511 6.39729L2.74874 6.28825C2.62445 6.22844 2.47522 6.2807 2.41538 6.40496C2.35558 6.52925 2.40783 6.67848 2.5321 6.73832L2.75846 6.84736C2.88275 6.90716 3.03199 6.85491 3.09182 6.73062C3.15165 6.60636 3.0994 6.45709 2.97511 6.39729Z" fill="#F7C200"/>
<path d="M4.10732 6.94295L3.88095 6.83379C3.75654 6.7741 3.60731 6.82656 3.54759 6.95097C3.48808 7.075 3.54004 7.22382 3.66383 7.28386L3.8902 7.39302C4.01461 7.45274 4.16384 7.40028 4.22356 7.27587C4.2831 7.15181 4.23111 7.00299 4.10732 6.94295Z" fill="#F7C200"/>
<path d="M5.23917 7.48837L5.0128 7.37921C4.88839 7.3195 4.73916 7.37196 4.67944 7.49636C4.6199 7.62042 4.67189 7.76924 4.79568 7.82928L5.02205 7.93844C5.14646 7.99815 5.29569 7.9457 5.35541 7.82129C5.41495 7.69723 5.36299 7.54838 5.23917 7.48837Z" fill="#F7C200"/>
<path d="M6.37086 8.03376L6.14449 7.92472C6.0202 7.86492 5.87097 7.91717 5.81114 8.04143C5.75133 8.16573 5.80358 8.31496 5.92785 8.37479L6.15421 8.48383C6.27851 8.54364 6.42774 8.49139 6.48757 8.36709C6.54741 8.24283 6.49512 8.09357 6.37086 8.03376Z" fill="#F7C200"/>
<path d="M13.7236 5.85957C13.6638 5.73527 13.5145 5.68302 13.3902 5.74286L13.1639 5.8519C13.0395 5.91161 12.9872 6.06082 13.0469 6.18514C13.0885 6.27181 13.1763 6.32688 13.2724 6.32673C13.3099 6.32673 13.3468 6.31827 13.3805 6.30197L13.6069 6.19292C13.7311 6.13309 13.7834 5.98386 13.7236 5.85957Z" fill="#F7C200"/>
<path d="M12.5917 6.40498C12.5319 6.28068 12.3827 6.22843 12.2584 6.28827L12.032 6.39731C11.9077 6.45702 11.8553 6.60623 11.9151 6.73055C11.9567 6.81723 12.0444 6.87229 12.1406 6.87214C12.178 6.87214 12.215 6.86368 12.2487 6.84738L12.475 6.73834C12.5993 6.6785 12.6516 6.52927 12.5917 6.40498Z" fill="#F7C200"/>
<path d="M11.4588 6.94998C11.3988 6.82616 11.25 6.7742 11.1259 6.83374L10.8996 6.9429C10.7753 7.00291 10.7232 7.15229 10.7832 7.27652C10.8249 7.3629 10.9124 7.41779 11.0084 7.41773C11.0459 7.4177 11.0829 7.40924 11.1167 7.39296L11.343 7.28381C11.4672 7.22362 11.5191 7.07416 11.4588 6.94998Z" fill="#F7C200"/>
<path d="M10.327 7.49546C10.267 7.37163 10.1181 7.31967 9.99408 7.37921L9.76772 7.48837C9.64345 7.54838 9.59138 7.69776 9.65139 7.822C9.6931 7.90838 9.7806 7.96327 9.87652 7.96321C9.91402 7.96318 9.95105 7.95472 9.98483 7.93845L10.2112 7.82929C10.3353 7.76907 10.3872 7.6196 10.327 7.49546Z" fill="#F7C200"/>
<path d="M9.19575 8.04151C9.13595 7.91722 8.98669 7.86497 8.86239 7.9248L8.63603 8.03384C8.51171 8.09356 8.45934 8.24276 8.51908 8.36708C8.56071 8.45376 8.64844 8.50882 8.7446 8.50868C8.78204 8.50868 8.81898 8.50022 8.85268 8.48391L9.07904 8.37487C9.20331 8.31507 9.25556 8.1658 9.19575 8.04151Z" fill="#F7C200"/>
<path d="M6.90532 9.06456C6.79107 8.98723 6.63578 9.01717 6.55844 9.1314L6.41524 9.34289C6.33796 9.45714 6.36788 9.61241 6.48207 9.68977C6.59632 9.76711 6.75161 9.73717 6.82895 9.62294L6.97215 9.41145C7.04949 9.29723 7.01958 9.1419 6.90532 9.06456Z" fill="#F7C200"/>
<path d="M6.18793 10.1221C6.07394 10.0454 5.91935 10.0751 5.84195 10.1887L5.69875 10.4C5.62138 10.5143 5.6513 10.6696 5.76555 10.747C5.80683 10.775 5.85551 10.7899 5.90536 10.79V10.79C5.98832 10.7901 6.06592 10.749 6.11246 10.6803L6.25566 10.469C6.33274 10.3545 6.30241 10.1992 6.18793 10.1221Z" fill="#F7C200"/>
<path d="M5.47456 11.1791C5.36077 11.1012 5.20536 11.1302 5.12738 11.2439C5.12697 11.2446 5.12656 11.2452 5.12615 11.2458L4.98271 11.4573C4.90476 11.571 4.93377 11.7265 5.04755 11.8044C5.16134 11.8824 5.31675 11.8534 5.39473 11.7396C5.39514 11.739 5.39555 11.7384 5.39596 11.7378L5.53939 11.5263C5.61735 11.4125 5.58831 11.2571 5.47456 11.1791Z" fill="#F7C200"/>
<path d="M4.7564 12.2364C4.64215 12.1591 4.48686 12.189 4.40952 12.3033L4.26631 12.5148C4.18903 12.629 4.21895 12.7843 4.33314 12.8616C4.4474 12.939 4.60269 12.909 4.68003 12.7948L4.82323 12.5833C4.90057 12.4691 4.87065 12.3137 4.7564 12.2364Z" fill="#F7C200"/>
<path d="M4.03885 13.2939C3.92486 13.2172 3.77033 13.2469 3.6929 13.3605L3.5497 13.5718C3.47262 13.6863 3.50298 13.8416 3.61744 13.9186C3.73142 13.9954 3.88601 13.9656 3.96341 13.8521L4.10662 13.6407C4.18369 13.5263 4.15333 13.371 4.03885 13.2939Z" fill="#F7C200"/>
<path d="M8.59178 9.34298L8.44858 9.13148C8.37063 9.01767 8.21516 8.9886 8.10134 9.06656C7.98841 9.14392 7.95876 9.29775 8.03487 9.41154L8.17804 9.62303C8.25538 9.73728 8.41067 9.7672 8.52492 9.68986C8.6392 9.61252 8.66912 9.45723 8.59178 9.34298Z" fill="#F7C200"/>
<path d="M9.30819 10.4L9.16499 10.1887C9.0875 10.0746 8.93236 10.0448 8.8181 10.122C8.70382 10.1993 8.67388 10.3546 8.75119 10.4688C8.75121 10.4689 8.75124 10.4689 8.75127 10.469L8.89448 10.6803C8.97222 10.7944 9.12766 10.8238 9.24168 10.746C9.35523 10.6686 9.38494 10.5141 9.30819 10.4Z" fill="#F7C200"/>
<path d="M10.0257 11.4591C10.0253 11.4585 10.0249 11.4579 10.0245 11.4573L9.88107 11.2458C9.80411 11.1313 9.64893 11.1009 9.53448 11.1779C9.42002 11.2549 9.38963 11.41 9.46659 11.5245C9.467 11.5251 9.46741 11.5257 9.46782 11.5263L9.61126 11.7378C9.68822 11.8523 9.84339 11.8826 9.95785 11.8057C10.0723 11.7287 10.1027 11.5735 10.0257 11.4591Z" fill="#F7C200"/>
<path d="M10.7407 12.5147L10.5975 12.3032C10.5202 12.189 10.3649 12.159 10.2507 12.2364C10.1364 12.3137 10.1065 12.469 10.1838 12.5833L10.327 12.7948C10.4044 12.909 10.5597 12.9389 10.6739 12.8616C10.7882 12.7843 10.8181 12.629 10.7407 12.5147Z" fill="#F7C200"/>
<path d="M11.4572 13.5719L11.314 13.3605C11.2363 13.2465 11.0808 13.217 10.9668 13.2948C10.8533 13.3722 10.8235 13.5268 10.9003 13.6408L11.0435 13.8521C11.1212 13.9662 11.2767 13.9956 11.3907 13.9178C11.5042 13.8404 11.534 13.6859 11.4572 13.5719Z" fill="#F7C200"/>
</svg>
