<svg width="13" height="13" viewBox="0 0 13 13" fill="none" xmlns="http://www.w3.org/2000/svg">
<g clip-path="url(#clip0)">
<path d="M12.7992 1.29135C12.6405 1.09715 12.4026 0.990234 12.1295 0.990234C11.981 0.990234 11.8237 1.02148 11.662 1.08327L0.657766 5.28393C0.0737814 5.50679 -0.00487003 5.84123 0.00018825 6.02075C0.00524653 6.20027 0.102743 6.52976 0.69843 6.71929C0.702001 6.72038 0.705572 6.72147 0.709142 6.72247L2.99172 7.37568L4.22614 10.9056C4.39445 11.3868 4.77224 11.6857 5.21221 11.6857C5.48962 11.6857 5.76247 11.5695 6.0013 11.3497L7.41316 10.0497L9.46097 11.6986C9.46117 11.6988 9.46147 11.6989 9.46167 11.6991L9.48111 11.7148C9.48289 11.7162 9.48478 11.7177 9.48656 11.7191C9.71419 11.8956 9.96264 11.9888 10.2053 11.9889H10.2054C10.6796 11.9889 11.0572 11.6379 11.1672 11.0948L12.9702 2.19183C13.0426 1.83447 12.9819 1.51471 12.7992 1.29135ZM3.75532 7.2516L8.15911 5.00185L5.41702 7.91553C5.37209 7.96323 5.34025 8.02165 5.32458 8.08523L4.79584 10.227L3.75532 7.2516ZM5.48526 10.7893C5.46701 10.8061 5.44866 10.8211 5.43031 10.8349L5.92087 8.84804L6.81321 9.56661L5.48526 10.7893ZM12.2237 2.04057L10.4207 10.9437C10.4033 11.0289 10.3479 11.2271 10.2053 11.2271C10.1349 11.2271 10.0464 11.1887 9.95589 11.119L7.63543 9.25062C7.63513 9.25032 7.63473 9.25002 7.63434 9.24983L6.25362 8.13799L10.219 3.92444C10.346 3.78955 10.3575 3.58295 10.2463 3.43478C10.135 3.2866 9.93338 3.23998 9.76844 3.32429L3.24642 6.65621L0.932798 5.99427L11.9337 1.7949C12.0266 1.75939 12.0915 1.75195 12.1295 1.75195C12.1528 1.75195 12.1942 1.75473 12.2096 1.77367C12.2298 1.79837 12.2556 1.88258 12.2237 2.04057Z" fill="white"/>
</g>
<defs>
<clipPath id="clip0">
<rect width="13" height="13" fill="white"/>
</clipPath>
</defs>
</svg>
