<svg width="30" height="28" viewBox="0 0 30 28" fill="none" xmlns="http://www.w3.org/2000/svg">
<path d="M0.529888 13.4644L7.44249 16.0444L10.1181 24.6491C10.2893 25.2002 10.9632 25.4039 11.4105 25.0382L15.2637 21.897C15.6676 21.5679 16.2429 21.5515 16.665 21.8579L23.6148 26.9036C24.0933 27.2514 24.7712 26.9892 24.8912 26.411L29.9823 1.92189C30.1133 1.29029 29.4927 0.763388 28.8913 0.995988L0.521788 11.9401C-0.178311 12.2101 -0.172211 13.2013 0.529888 13.4644ZM9.68689 14.671L23.1967 6.35029C23.4395 6.20119 23.6893 6.52949 23.4808 6.72289L12.3313 17.0869C11.9394 17.4517 11.6866 17.9399 11.615 18.4698L11.2352 21.2844C11.1849 21.6602 10.657 21.6975 10.5533 21.3338L9.09259 16.2013C8.92529 15.6159 9.16909 14.9906 9.68689 14.671Z" />
</svg>
